<svg width="10" height="13" viewBox="0 0 10 13" fill="none" xmlns="http://www.w3.org/2000/svg">
    <path fill-rule="evenodd" clip-rule="evenodd" d="M5.60705 12C5.60705 12.4142 5.27127 12.75 4.85705 12.75C4.44284 12.75 4.10705 12.4142 4.10705 12L4.10706 2.51743L1.27425 5.28635C0.978032 5.57588 0.503189 5.57046 0.213656 5.27425C-0.0758775 4.97803 -0.0704616 4.50319 0.225753 4.21366L4.31806 0.213655C4.46033 0.0745926 4.65203 -0.0022459 4.85096 4.95911e-05C5.0499 0.00234604 5.23977 0.0835867 5.37879 0.225897L9.28648 4.2259C9.57594 4.52219 9.5704 4.99703 9.27411 5.28648C8.97781 5.57594 8.50297 5.5704 8.21352 5.2741L5.60706 2.60607L5.60705 12Z" fill="#14557A"></path>
</svg>
