<svg xmlns="http://www.w3.org/2000/svg" width="479" height="369"><path d="M106.5 153.9zm92.4-136.8v.3-.3zM231.5 314c0-.1 0-.1 0 0zm247.4-108.7c0 1-.1 2-.4 3a9.4 9.4 0 01-3.9 5.4l-.6-.8.6.8-.6-.8.6.8c-1 .6-2 1.1-3 1.4l-3 .7-2.7.4-2.6.3-.1-1 .1 1-.5.1-.2-.2-.7-.1h-5.4v.3-.3.3h-.8-.1l-.2.1c-.4.1-.9.2-2.1.1v-.5.6h-.4-.1-.1l-.5-.1a.8.8 0 01-.4-.2h-.5l-.2.4-.8-.2-1.8-.4h-1.1v-.6.6h-.9l-.1.5-.8-.1.8.1-.1.9-.8-.1.8.1-.3 2.1-1 .1.9.1-1.3 8.3h-.3.3v.2l-.1.2-.3.3-.7 2.7-.8 3.3h.2c-.4 2.3-.8 3.5-1.2 4.8-.4 1.2-.9 2.5-1.6 5.1h-.1.1-.1l-.3 3.4-1.5-3.4-.2-.5.2-.1-.2.1-.2-.5.3-.4.2.1-.2-.1.6-1.6.1-.5-.3-.1.1-.3-.1-.1-.1-.4v-.3-.2l.1-.3.4-1.4.4.1.5-2.4.5-1.6.1-.3v-.1l.3.1-.3-.1.3.1v-.2l-.1-.2-.1-.2v-.5-.7l.4.1-.4-.1c.4-2.3.7-3 1-3.7l.5-1.1.5.5.1-.5h-.6l.1-.2-.5-.2 1.1-4.9-.7-.3c.5-2.5.8-2.7 1.2-3.9l.2.1.2-1.3.2-1.3.1-.6.1-.3v-.1l.1-.3.3-.3.4-.1v.2-.2h.2v-.2H447.5l-.2.1.4.1.1-.3c1.5.1 2.1.3 2.7.5h.5l.1-.1.2-.1H453.2l-.1.1-.2.2v.4l.2-.1h.2v.4-.4h.2l.4-.6s-.1 0 0 0h.7l.2-.2.3-.2.2-.1.3-.1.1.4-.1-.4H461.9l3.4-.1.1 1-.1-1 1.8-.2v-.2l.7-.1-.1-.6 1.9-.3h.7l.6-.1.4-.2-.1-.3 1.4-.9.3.5-.3-.5.9-.6.2.4-.2-.4.5-.3.1-.1.1-.1.1-.1.1-.1.3-1.8.6.1-.6-.1c.1-.5.1-1.1 0-1.6h-.2.2-.2l-.1-.8-.2-.4-.5-1.1-.5-1.1-1-1.7-.2.2-.8-.9.2-.2-.2.2-1.4-1.4.2-.2-.2.2-.2-.2-.1-.1-.1-.3v-.2l-.3-.2-1.5-1.1-.5-.3v-.5l-.7-.4.5-.8.1-.1-.5.9-1.8-1-.2.3-.7-.3h-.4l-.7-.2.3-.6-.3.6-1.1-.5.4-.5c-1.4-.6-2.8-1-4.2-1.4l-.6 1.2c-.7-.3-1.3-.5-1.6-.8l-.3-.4-.4-.1-.4.3-.4.1h-.5l-3.1-1h-.1l-.1.4c-1.1-.3-2.4-.7-3.7-1.4h-.1l.2-.3h-.1l-.8-.4-.3-.2-.1-.1.1-.3-.1.3-.1-.1-.1-.1c-.5-.5-.8-.8-.9-1.1l.3-.2-.3.2-.1-.2v-.1l-.2.1c-.6-.9-.9-1.9-1.1-2.8l-.5-.3.4-.1-.1-.4-.1-.4-.1.1.1-.1-.1.1-.2-.3-.1-.1v-.2l-.4-2.3h.2-.2.1a23 23 0 01-.7-4.2c-.1-1-.3-2-.6-2.9h-.2l.2-.1-.2.1-.2-1.3-.2-1.5.4-.1v-.1l-.6.1.6-.1-.6.1-.2-1.7-.1-.6-.5.1-.2-1v-.1l-.3-.9v.1l.3.2.5.1.4-.1-.2-.5h-.1l-.2.2.1-.1.2-.2-.1-.1-1.1.2-.4-2.4-.5-.5.3-.7h.1-.1l.1-.2-.1-1.2-.3-2.1-.2-1.9v-.4h-.1.1-.1l-.3-1.2V155.2l-.1-.4-.3-.3-.3-.5-.3-.9h-.1.1-.1l-.3-1.2v-.1h-.1v-.1l-.1-.1-.8-1 .5-.2v-.1l-.1-.3h-.4a22 22 0 00-.4-1.9h-.3l.2-.1-.2.1-.3-1.4v-.5-.1l-.5-1.4.6-.2-.6.2.6-.2v-.1-.3-.2-.5l-.1-.5-.5-.4-.3-.4-.2-.3-.5.1.5-.2-.5.2a18 18 0 00-.8-2.1l-.9-2.2.3-.2-.3.2-.9-2-.7-1.5-.1-.3-.6-1.7-.4-1-.3-.6-.1-.2-.3-.4-1.4-2.1h.1l-2.2-3.5.6-.4-.6.4.6-.4-.1-.3-.1-.2-.1.3v.4l-.3-.7-.3-.2-.6-.4.1-.5-.4-.7.5-.3-.5.3-1.6-2.2.7-.6-.8.6-1-1.3-1-1.2.3-.2-.3.2-.8-1.2-.6-1.2.6-.3-.7-.8-1.3-1.4-1.8-1.9v.1l-1.3-1.2.2-.2-.2.2-.9-.9-.9-.9-1.9-1.9-.5-.5-1-.5a7 7 0 01-.9-.7l.1-.1-.1.1c-.7-.5-1.3-.9-1.7-1l.1-.5-.1.5-.6-.1-.2-.6.4-.1-.4.1v-.3l-.4-.1a4 4 0 01-.7-.2l.4-.9-.2.6-1.6-.6.1-.2-.1.2v-.2h-.1v-.1l.1-.6.1-.3-.1.3-.2.6v.1l-.6-.2-.2.1H399.1l.3-.9-.3.9-.5-.2-.4-.1-.5-.1v-.9.9l-.6.1c-.2 0-.5.2-1.1.2l-.9.1-.9.1v.1c-1.4.2-3 1-4.5 2-.7.5-1.4 1.1-2 1.8l-1.8 2-.3-.3.3.3-.3-.2-.5.7.2.1-.2.6h-.1.1l-.1.2-.1.1-.7.9-.5.6-.2.1-.2.1-.1.6-.3-.1.3.1-1.5 3.3-.2-.1.2.1c-.6 1.2-1.1 2.5-1.6 3.3l-.3 2.1v.2h-.1l-.7 2.8-.9-.2.9.2-.7 2.4-.1.6v2l-.4-.2c-.3 1.6-.7 2.4-1 3a3 3 0 00-.4.8l.2.1-.3-.1.3.1c-.5 2.2-1.2 3.8-1.7 5.4l-.2-.1.2.1c-.4 1.2-.9 2.4-1.2 3.8l.1.4v.2l-.1.5-.5 1.6-.4-.1-.3 1 .7.2-.7-.1.7.1-.4 1.9-.5 1.6-.3-.1.3.1-.3-.1-.1.6.1.3V148.5h-.2.2c-.1.6-.3 1.1-.5 1.4l.2.1h-.2.2l-.3 1.2-.4 2.2-.4 1.3.3.2-.1.2-.2.5-.1.2-.4 1.6-.4 2.1.1.1a6 6 0 00-.8 2.6l-.5 3.2.2.1c-.3 1-.8 2.4-1 4l.3.1-.3-.1.3.1-.6 3.1-.5 2.2.1.3v.3l-.2 1.5v.2l-.4 1.1.3.1h-.3.3c-.1 1.1-.3 1.6-.4 2.1l-.2.8.3.1-.4-.1.4.1-1 4.2-1 4.2-.1.4-.3.2-.3-.4.1-.1-.3-.1-.1-.1.1.1-1.5-.5v-.1l-.5-.1.2-1.5h-.1v-.2l-.1-.2-.1-.3v-.2-.3-.6l-.4-.1c.1-.8.4-1.6.6-2.2l-.3-.1.3.1-.3-.1.2-.9c-.2-.2-.2-.5-.2-.6v-.4l.1-1v-.2l.7.2-.7-.2c.5-1.8.6-3.3.6-4.5.1-1.2.1-2.4.3-3.5l.4.1-.4-.1.3-1.1.1-.3.1-.2.1-.2.2-.2.1-.1v-.3l.1-.9 1 .2-1-.2v-.2l.1-.2.5-.7v-.1l-.6-.4.4-1.3-.1-.2v-.1-.2-.2l.1-.5h.1-.1c.8-3 1.1-4.9 1.4-6.7l1.2-5.9-.2-.1.2.1-.2-.1.4-1.2-.1-.1h.1-.1l1.1-3.9 1.1-4.2-.2-.1 1-2.8-.2-.2.3.2-.3-.2.4-1 .5-1.9.9-3.6h-.3l.4-1.1.3.1-.3-.1.4-1.1h-.1.1-.1l1-2.9.2-.7-.1-.1-.3-.4.2-.5 1.8-5.1v-.1-.4l.1-.4-.1.1.1-.3-.1-.1.1-.3.2-.5.2-.9c1.1-4.4 2.7-8.6 5.3-12.3l.6.4-.2-.1-.5-.3c.6-.9 1.3-1.9 2.1-2.7l2.4-2.5c1.7-1.5 3.6-2.9 5.9-4.1v-.1.1-.1c1-.4 2-.6 3-.8l.1.6-.1-.6 1.5-.2h.7l.1 1-.1-1h.7l1.1-.2.2 1v-.1l-.2-.8.9-.1h1.2l-.1 1v.1-.1l.1-1 .1 1.2.7.1v-.3c0-.4-.2-.6-.3-.7l-.1-.1.5.1.8.2 1.7.5.7.3.1-.2-.1.3.1-.3c2.8.9 5 2.3 6.9 3.8l-.3.4.3-.4 2.8 2.4 2.9 2.6-.1.1.5.5a29 29 0 011.7 1.9l.8.9.6.7-.7.7.1-.1.7-.6c.2.2.3.4.5.4l.1.1.3.1.2.3c.9 1.2 1.7 2.3 2.4 3.5l1.2 1.9.4.7.4-.2 1.8 2.7.4.6c.2.4.4.7.4 1l.1.2v.2l.6 1.2.9 1.7 1.7 3.5h.1l.5.2.2.1.1.2.7 1.3-.1.1.1-.1.9 1.9-.2.1.2-.1.7 1.6-.2.1.2-.1-.2.1.2.6.2.4h.1-.1.1c.7 1.4.9 2.5 1.2 3.4.2.8.4 1.4.9 2.1l-.8.6.8-.6.3.4-.1.4-.1.3.9 1.8.3.7-.3.2.3.9-.9.3 1-.3.4 1.2.1.5.1.2.1.2V146.4c.5 1.2.8 2.9 1.2 4.3l.5 1.9.2.6.2.4-.1.1.1-.1.5.8-.4.3.5 2.3.5 2.3.3.1.1.7.2 1.1h.1-.1.1l.3 1.5 1.4 7.2.3-.1a46 46 0 011 5.3l1 5.9h.1-.1.1l.1.7h.1l.3 1.1-.2.1.2-.1c.2.8.5 1.4.9 1.7l-.7.7.7-.7c.3.3.9.7 1.6 1l2.4.8 1.4.5.1-.4-.1.4.1-.4 3.1.9 3.4 1c2.3.7 4.6 1.6 6.7 2.7h.1l.2.1.5.3 2.4 1.5-.6.8.6-.8 1.8 1.5h.1l.4.2 1.3.8.8.6-.1.2 1.5 1.8.4.6-.8.5.8-.5.4.6.3.6-.9.5.9-.5.3.7-.9.4.9-.4.5 1.6.1.1v.1l.1.1.1.2v.2h-.1.1l.2 1.2.2-.3-.2.8c.4.1.5.4.5.8zM451.3 216zm-7.4 11.8h.4-.4zm.3 0l-.2-.2h-.1l-.1.2h.4zm.9-40.5l.2-.2-.2.2zm-6.2-25.7l-.3.2.7.1v-.4l-.4.1zm-63.8-40zm56.1 7.5h-.1.1zm6.7 17.5l-.2.1.2-.1zm0 0zm-10.7-19.2l.6.1-.1-.3-.5.2zm50.5 75.4l.5-.1-.5.1zm-30.3-19.6v-.2l-.6.1v.1l.2.4h.1c.2-.1.2-.3.3-.4zm0-.2l-.6.1.6-.1zM379 116.3zm3.3-6.4l.1.1-.1-.1zm14.7-11zm3.2.3zm.9.4l.2-.3v-.1h-.1c-.1.1-.2.3-.1.4zm16.9 12.9zm8.4 15.2l.4.1-.1-.3-.3.2zm11.9 34.4h.9-.9zm9 26.1l-.2.4.3-.6.1-.1-.2.3zm17 5.5zm-18 22.6zm32.1-13.7zm-2.2-3.1c0 .1 0 .1 0 0zm-34.6-39.4v-.1.1zm-1.6-7l-.4.1.1.3.8-.3-.5-.1zm-5.4-19.3l-.7.3.7-.3zm-.2-.2c-.1-.1-.4-.2-.8 0l.1.4.9-.2-.2-.2zm-.2-.8l-.7.4.1.3h.2l.4-.4v-.3zm0 0l-.6.3-.2.1.2-.1.6-.3zm-6.4-10.2zm-7.7-11.7l.2-1-.2 1zm-37.4-6.9zm-8.4 16.5c.1.2.4.5.8.6l.1-.3-.7-.3h-.2zm-10.5 44.6zm-.7 24.4zm1-4.1zm7.5-36.9h-.1.1zm11.1-38.6l-.3-.1.3.1zM396 99.1zm5.6.5l.1-.3-.3-.1c0 .2 0 .4-.2.6l.1.2.2.3.1-.7zm-.1.7l.3-.8v-.2.2l-.3.8zm15.2 10.8zm12.5 20.4c.1 0 .1 0 0 0 .1 0 .1 0 0 0zm9.1 30.6h.2-.2zm0 0l.2.1-.2-.1zm2.7 8.1l-.3.1.2.2.1-.3zm6.1 18.4l.2-.4-.1-.1-.2-.1.1.3v.3zm17.2 5.1zm-10.1 20zm-10.2 1zm-3.1 17.9zm18.6-17v-.3.3zm16.8-4.8zm-201 89.5zm-25.4 9.3zM136.5 91.2s.1 0 0 0c.1 0 .1 0 0 0 .1-.1.1-.1 0 0 0-.1 0 0 0 0zm103.9 213.9zm-150.8-186zm142.8 203.7zm24.8-14.4l.4.1-.1-.2-.3.1zm-3.9 6.8l-1.4.9.1.1-.8.5.8-.5.8 1.1-1.3.4a2 2 0 01-.9.2v.2h-.2l-.9.2.4.5h-.4v.7l-.9-.7-.5.3h-.4 0v-.1l-.4-.1.3-.1v-.1h-.1v.1h-.1l-.2.1h-.1l-.4.1.3.3-1.5.1.4.5-2 .3-.8-.1-1.6.2v-.2.2l-.6-.1h-.1l-.1.2-.2.2-.7-.7.7.7-.2.3h-.4v-.4.4h-.6l.1.1h-.5l-.3.2.1.1-.6.2-.4.2v-.1.1l-.6.2h-.2l-.2.1v-.1.1l-.7.1-.4.2.1-.2-.8.1c-.2.2-.4.4-.6.4l-.2.1.1.3-1 .2-.5.1v-.2.2H232.4l-.4-.1-.2-.2h-.1v-.1.1h-.5l-.1.1-.3.1 1.1 1.3-2.8-.5-.3-.1v.1l-.2.1-.3-.2.3.5-1.6-.3h-.1l-.7-.1-.1.2-.6-.1-.5-.1v-.1.1-.1l-.8-.1-.4.1h-.1l-.1.1-.2-.1h-.2l-.2-.1-.1.1-.3.2.1-.1.2-.3h-.1l-.1.1v-.1.1h-.1v.3-.3.3l-.1-.3v.2l-.1-.3.1.4h.1-.2l-.1-.5.1.5v-.2.2l-.1-.3-.9 3-.9-3h-.1l-.3-.1-.3-.1-.2.1 1.1 1.1-1.3-.2-.3 1.3-.5-1-1 1.7v-2.3l-.8-.4a.8.8 0 01-.2-.4h-.2-.1l-.2.4H214.3h0v-.2h-.1l-.1.2h-.1v-.1l-.1.1-.1-.1h-.5l-1.5.6.1-.4-1.2 1.9-.2-2.4h-.9l-.4.1-.1-.2c-.3-.2-.6-.4-.8-.8l.4-.2-.4.2-.1-.2h-.4l-.1.1-.2-.1-.6-.1.1.7-1.2-1-1.4 1.2v-.7l-2.1-1.3-.7-.1-1.5-.1-.1.1-.3-.1-1.8-.4.5-.4-.5-.3-.4-.3h-.4l-.9-.2-.1-.1-2.6 1.4.9-1.9-.2-.2a3 3 0 01-1.3-1l-.1-.1h-.2l-.6-.2-.2-.2-.1.2-.4-.1-.3-.2-.2-.3h-.1l-.2-.1-.1-.1-.1.1v-.1.1l-.2-.1.2 1.6-1-1.3-.3.3-.4-1.3-.3-.4-.1-.1v-.1l-.1-.1-.2 1.2-1.4-1.9-.1-.2v-.1-.1l-.1-.1v-.2l-.2-.2-.4.1v.2l-.1-.1-.8-.5-.2-.1h-.1l-.3 1-1.1-2-.5-1.1-.4-1.1-.2-.6.5-.5.3-.2.5-1.4 1 1.3.2-.1c.3-.1.6.1.7.1l.2.1h.1l-.2.3v.1l.3-.3c.6-.3 1.1 0 1.3.2l-.3.5.3-.5.2.2.1.2h.1l-.1.6.1-.6h.4l.5.1 1-2.2.4 3.2v.1-.1l.1.1.1.1.4.4.3.2.1-1.3 1.3 1.8.2.1v.1-.1l.1.1.1.1.2.1.4.3c.3.3.6.5.8.5v.1l.2-.1-.1-.3.9.5.1-.3.8.8.1.1.3-.5 1 .8.5.4.7.1-.1.3.1-.3.7.2v-.1.1c.8.3 1.4.7 2 1.1l.8.4-.2-1.2 2 1.5-.3.4.3-.4.4.3.5-.1 2.4-.2-.4.5.6.2 1.1.3v.2h.2l.4.1.1-.2.8.3v.1-.1l.2.1h.1l-.4-.8 1.7.8.1-.3.6.6.5.1v.4l.1.1h.1l.3-.2.1-.1.2-.3.2.2h.5l.5.1h.3v.2c.3-.1.7 0 .9.1l.9-1.1.3 1.1.8-.3v.8h.5l.4.1.1-.2v-.1l1.2-1.6.1 1.6.5.2.6.1.5.1.5-.2.1.2-.1-.2c.4-.2.7-.2 1-.2l-.5-.8 2.3.8h.3v.2-.2l1.5-.1 1 .2.1-.3-.1.3.1-.3 1.1.1.7-.1h.2l.1-.2.7.1h.7l.3-.2.1.2-.1-.2 1-.6-.2-.4 1.2.5 1-.1 1.1-.1.1 1-.1-1 1.4-.2-.2-.2h.8l.9-.3.1.3h.4l.5-.3-.1-.9 1.7.9.1.1.3-.1.2-.5.4.3.7-.2 1.5-.5.4-.2.4.2.2.1h.1l.1-.1h.1l.2-.1.1.1-.1-.1.9-.3h.7l.6.1 1.4-1.9v1.2h.2v.1-.1l3.7-.2zm-9.3 4.4zm-28.6-.5zm-27.1-8.3zm-.2-.1c-.1 0-.1 0 0 0zm4 5.2zm31 6.6l.1-.1-.1.1zm-.1.1zm4.7.4l.1.4-.1-.4zm-35.7-7zm11.8 4.2l-.2.1.2-.1zm.3.5zm11.3-1.4h.1v-.1l-.1.1zm-11.4 1.6l.1-.1-.1.1zm16.4 2.5zm16.5-4.8l.1.2v-.2h-.1zm-21.6.3s0-.1 0 0zm-18.2-4.4l-.3.3.2.1.1-.4zm-.6.2l.1-.4-.1.4zm-6-3.3l-.2.4.2-.4zm-.8.3c0 .1 0 .1 0 0zm-.1-.9h-.1.1zm-.1.1h-.2.2zm-.2 0zm-3-2l-.2.1.2-.1zm-2-.3zm-.9.5l-.2.1v.1h.1l.1-.2c0 .1 0 .1 0 0zm-.1 0zm33.5 14.6zm0 0zm3.6-.3l-.3.1.3-.1zm12.7-.6l.1-.2h-.1v.2zm7-3zm3.9-.2zm5.7-4.1v.1-.1zm-5.6 1.2zm-4.6 1.2v-.3.3zm-3.1 1h.2l.1-.4.1.1.1.3h.1l-.1-.2-.1-.1-.1-.3-.1.1-.2.5zm-2.4-.6zm-7.9 1.2l-.2.2.2-.2-.2.3.3-.1-.1-.2zm-7.9 0c.1 0 .1 0 0 0 .1 0 .1 0 0 0zm-21.5-5.3l-.1.5.3-.2h.1l-.3-.3zm-.1 0v.1-.1c.1 0 .1 0 0 0zm-2.9-1.3l.2-.2-.2.2zm-1.6-1.1l-.1.2.1-.2zm-2.6-1.2l-.2.3.2-.3zm-3.4-1.8v.2l.2-.1-.2-.1zm-.9.1l.3-.1-.3.1zm-.4-.4l.3.3.1-.3c-.1-.1-.2-.1-.4 0zm-.7-.2l.2.2v-.2h-.2zm-.6.4l-.2.3.2-.1-.1.1h.1v-.1l.3-.1-.2.2.2-.2.2-.1.3-.2-.3.2-.2.1.3-.2-.3.2-.3.1v-.1l.4-.2-.4.2.2-.4.2-.2-.4.5zm4.7 5.7zm15.9 7.8v-1h-.2l.2 1zm6.8 1l-.1-.1.1.1c-.1 0-.1 0 0 0zm5.6.4l.1-.2-.1.2-.3-.3.1.1.2.2zm5.2-.1zm.2 0l-.1.4h.2l-.1-.4zm.3-.1s.1 0 0 0c.1-.1.1-.1 0 0zm7.4-.5l-.4.1-.2.3.2-.1.4-.3zm1.1-.2zm1.8.3v-.2.1h-.1-.1l.2.1zm.5-.1c-.1-.1-.1-.1 0 0-.1 0 0 0 0 0zm0-.1c0 .1 0 .1 0 0zm6.9-2.7v.4-.4zm.4-.2h-.1v-.1.1h-.1.1l-.1.2.1-.2h.1zm.7.3s-.1 0 0 0c-.1 0-.1 0 0 0-.1 0-.1 0 0 0zm3.1-.6h-.1.1c-.1.1-.1.1 0 0zm3-.8v-.1.1zm.5-.2zM199.1 88.5h.7l.3-.2.1-.1.1-.2-.1.1-.3.2h-.3l-.3-.1-.3-.3-.3.2c0 .2.2.3.4.4zm-.1-.6l.4-.2-.4.2zm5.7 217.8zm-14.4-9.3zm32.4 17.5zm19.8-1.2zm-136-158.8zm0 0zm133.7 166zm-35.5-14.2c0-.1 0-.1 0 0zm-8.6-11.1zm12.5 37.1l-.1.2.1-.2zm-18.3-35.1zm85.1 3.6v.1h.2l-.2-.1zM106.8 149.8zm97.9 155.9zm26.8 8.2zm-99.7-201.3l1.6 3 .3-3.4-1-.1-.9.5zm99.7 201.3zM77.6 156.3v.3l.2-.1a.2.2 0 01-.2-.2zM214 323.8zm49.4-182zm-67.2 59.5c0 .1 0 0 0 0zm89.5 88.6l-.1.3-.7 1.4-.8 1.7-.2-.1.2.1-.2-.1-.2.5-.1-.6-1.6 3.2-.8 1.4-.2-.1.2.1a5 5 0 01-.8 1.2l-.6.9-.7.7-.5-.8.5.8-1.4-1.4.2-.3-.3.1.1.3h-.8l-.3.1c0 .3-.1.4-.2.5l-.2.2-.2.1-.2.1c-.1 0-.1 0 0 0l-.1-.2-.1-.1v.1l-.1.1v-.1l-.1.1h.1l-.5.3-.6.2-.1.2h-.1l.4.3-1.9.6.7.4-2.2.6-.2-.6.2.6-1.1.1.1.1-2.1.4c-.3.1-.6 0-.8 0h-.1l-.1.1-.2.1h-.1.1l.2-.2H266.8c0 .3-.2.5-.2.5l-.2.2-.3-.3.3.3-.2.2h-1.3l-.1.1.1.1h-.4l-.6.2.2.1-.9.2-.4.1-.7.1h-.1l.1.1-.8.6.8-.6.8 1.1-1.3.4-.9.3h-.1v.2h-.2l-.8.3.4.5h-.4v.7l-.9-.6c-.2.3-.5.3-.5.4l-.3.1h-.1v-.1l-.1-.2v-.2.1h-.1l-.1.1H256.9l.3.3-1.5.2.5.5-2 .3h-.7l-1.7.2v-.2.2l-.6-.1h-.1l-.1.3-.2.2-.7-.7.7.7-.2.3h-1.1l.1.1h-.5l-.3.2h.1l-.4.1-.6.3-.9.2-.2.1-.7.1-.4.2.1-.3-.9.1-.6.5-.3.1.1.3-1 .2v-.2-.1h-.1v-.2.2h-.1v.1h.1v.2l-.5.1v-.2.2h-.4l-.4-.1-.2-.2h-.6l-.3.2 1.1 1.3-2.9-.5.1-.4-.1.4-.3-.1h-.1l-.2.1-.4-.2.3.5-1.4-.2h-.2l-.7-.1h-.1l-.2.2-.6-.1v-.1.1l-.5-.1v-.1l-.8-.1-.4.1v-.1.1h-.1l-.1.1-.2-.1h-.2l-.3-.1-.1.1-.3.2.1-.1.2-.3v.1-.1.1h-.2v.3-.3.3l-.1-.3.1.3-.1-.3.1.3h.1-.2l-.1-.3-.9 3-.9-2.8h-.1l-.3-.1-.3-.1-.2.1h-.1l1.1 1.1-1.3-.2-.2 1.4-.5-1-.9 1.5-.1-2.1a1 1 0 01-.8-.4.8.8 0 01-.2-.4h-.2l-.9.7h-.7l-.5.1h-.7 0-.2l-.1-.1v-.1h-.1l-.5.1-1.5.6.1-.4-1.2 2-.3-2.3h-.9l-.4.1-.1-.2c-.3-.1-.6-.4-.9-.8l.4-.2-.4.2-.1-.2h-.4l-.1.1-.3-.1-.7-.1.2.7-1.3-.9h-.1l-1.3 1.3v-.7l-2.2-1.2.1-.1-.1.1-.8-.1h-1.5l-.1.1-.3-.1-1.8-.2.5-.4-.5-.2-.5-.3h-.4l-.9-.1h-.1l-2.4 1.8.7-2-.2-.2c-.7-.2-1.2-.6-1.4-.8l-.1-.1h-.2l-.6-.1-.3-.2-.1.2-.4-.1-.3-.1-.3-.2h-.1l-.2-.1v-.1.1l-.1-.1v.1-.1.1h-.1l.4 1.3-1.1-.9-.3.5-.7-1.3h-.1l-.2-.1h-.1v-.1l-.1-.1.1 1.2-1.8-1.7-.1-.1-.1-.1-.1-.1v-.2l-.2-.1-.2.1v.1h-.2l-.1.1.1-.1-.1.1c.1.1.1.1 0 0l-.3-.1h-.7v1.2l-1.7-1.6-1.5-1.4-.5-.5.2-.6.2-.3-.2-1.4 1.3.7.2-.2.4-.2h.6l-.4.2.2.1v-.1l.1.1h.1l.1.1.2-.4.4-.3.4-.1.6.1-.2.6.2-.6.2.1.2.2-.5.5.5-.5H194.7l.3-2.2 1.2 2.8h.2l.1.1c.4.3.7.4 1 .4l-.1-1.2 1.4 1.3.6.3-.1.1.1-.1.3.2.4.3c.3.2.7.4 1 .4l.1-.1.1.1-.2-.4 1 .4.1-.3.9.7.2.1.2-.5 1.1.8-.3.4-.1.2.1-.2v.5-.5.5l.3-.3.1-.1a.8.8 0 00-.4-.2l.3-.4.6.4.7.1v.3-.3l.8.1v.1c.8.2 1.5.6 2.1.9l.9.4-.3-1.1 2.1 1.3-.2.4.2-.4.5.3.5-.2v.2-.2l2.3-.3-.3.5.7.2 1.2.2v.2h.3l.5.1.1-.2.8.2v.1-.1l.2.1h.3l-.4-.8 1.7.7.1-.3.6.6h.5v.3l.1.1h.2l.3-.3.1-.1.1-.3.2.2h1.3v.2-.2.2c.4-.1.7 0 1 .1l.9-1.1.3 1 .8-.3v.8h.6l.4.1.1-.2 1.2-1.6.1 1.6.6.2h.6l.5.1.5-.2c.3-.2.7-.2 1-.2h.1l-.5-.9 2.3.8h.3v.2-.2l1.6-.1 1 .2.1-.3 1.2.1.7-.1h.2l.1-.2.7.1h.7l.3-.2.1.2-.1-.2 1-.6-.1-.3 1 .4 1.1-.1h.1l-1-.7 3.3.4h.2l-.2-.1h.8l.8-.4.1.3h.4l.5-.3-.1-.4-.9-.2h-.1l-.8-.2v-.1.1l-.3-.1-.2.2-.5-.1v-.1.1l-.7-.1v-.1a3 3 0 01-1.3-.3l-.3-.1-.1.1v.2H243.2l-.6-.2-.2-.1-.1.1h-.1l-.1.1-.2.1v.1-.1.1h-.3v-.3.3l-.1-1-.1.4v.1l-1.2 2.3-.6-2.4-.2-.1-.3-.1-.5-.3-.4.2 1.2 1.2-1.7-.4-.2.7-.4-.8-1.2 1.2.2-1.6h-.1c-.3-.1-.6-.2-.8-.5a.8.8 0 01-.2-.4l-.1-.1h-.4l-.2.4-1-.1h-.7l-.6-.1.1-.2-.1.2h-.2l-.2-.1h-.9l-1.4.3.1-.3h-.4v-.1.1-.1l-1.2 1.4-.2-1.8h-.3l-1.1-.1h-.2v-.1c-.4-.1-.8-.4-1-.8l-.2-.3h-1l-.1-.1a2 2 0 01-1.1-.3l.2.6-1.2-.8-.3-.1-1.3.9-.1-1.4h-.2-.1l-.4.1v-.3.3l.4.9-2.4-1.1v-.1.1l-1.1-.2h-1.8v-.2.2h-.2l-.1-.1-2.1-.3.5-.4-.7-.2-.7-.4h-.1l-1.7 1.8.3-1.8h-.4l-2.1 1.7.4-1.7-.3-.2c-.9-.1-1.5-.4-1.9-.6l-.4-.2-.3.1h-.6l-.5-.2v.2h-.5l-.3-.1-.3-.2h-.4v-.1.1l-.3-.1v.1h-1l-.2 1.8-.9-1.9a.2.2 0 01-.2-.2h-.2-.1-.2v-.6l-.2.3.6 1.3-2.4-1-.2-.1-.1-.1-.2-.1h-.2l-.1-.2h-.1l-.2.2h-.1l-.1.2c.1 0 .1 0 0 0H194.8l-.5.2.5.9-2.4-.6-2.3-.6-.6-.2-.1-.6v-.4l-1.1-1.3h1.9l.1-.3.3-.3.2-.1.3-.1h0l-.3.3h.5l.2-.8-.1.8.1-.8h.2l.5-.4.5-.1.1.7-.1-.7h.2l.2.1c.2.1.4 0 .7-.1l.2-.1.3-.1.8-.2-.6-1.8 2.4 1.9h.4v.2-.2h.2c.7.2 1.2.2 1.7.2h.2l-.5-1 2.1.9.6.1v.1-.1l.5.1.7.2 1.3.3.1-.2-.1.2.1-.2.9.4-.1.1.2-.1-.6-.7 1.4.3v-.2l1 .4.4.1v.1-.1l.3.1.1-.5 1.1.5-.2.4.2-.4.9.4 1 .1c1.4.1 2.7.6 3.7 1l1.5.5-.5-1.2 2.5 1.3-.2.4.2-.4.9.5.7-.2v.2-.2l2.5-.2-.4.4 1.1.3 1.7.4v.2-.2.2h.3l.8.2.1-.2.7.2.3.1.6.1-.4-.8 2.2 1 .1-.1.3.3h.2l.4.1v.2l.1.1v.1l.4.1.3.1c.1-.2.3-.3.4-.3l.6-.1h.3l.6.1.4.1v.2-.2.2h.1c.6 0 1 .2 1.3.4l.9-.7.3.9 1-.2v.7h.2l.6.1.7.2h.1l1.5-1.2v1.1l.9.3.7.1 1.5.3v-.3l.1.3-.1-.3h1l.4.1-.4-.7 2.4.9h.5l1.9.1 1.2.4.1-.3 1.6.2h1.4l.1-.1.6.1 1 .1.4-.2.1.2-.1-.2 1.2-.4v.3h.3l-.2-.4.8.3h2.8l2-.2-.1-.1h.4l.3-.1v.1-.1l.9-.3.1.3.8-.1.1-.1.5-.2h.2l-.1-.7 1.5.5.3.1.7-.2.1-.2.2.1.9-.3c.7-.3 1.3-.5 1.8-.9l.1.2.2-1.2.3-.2h.4l.3.1h.1l.2-.1.3-.3c.6-.6 1.1-.7 1.4-.9l.5-.2.4-.3.6-2.1.3.6.1-.1.2.1.4-.5.1.1.3-.4c.1-.2.5-.6 1.1-.6l1.5-.1-.6 1.4-.5 1.1-.3.4.1.1-.3.2-.3.3-.1.1h.8l-1.1.9v.1l.5.2 2.5-4.3.2.1-.2-.1 1.3-2.5 1.1-2.2.3-.8.1-.2.1-.1.2-.2.2-.1.3-.5 1.8.8-.3.8.4.3zm-31.9 19.4zm-3.8.4s0-.1 0 0l-.1-.2.1.2-.2-.1h-.1l.3.1-.1.1.1-.1zm-60.7-6l.7-.1-.7.1zm1.4-1zm53.2 2.4l.1-.1-.1-.1v.2zm-3.5 0l-.3.3.3-.3-.4.1.4-.1zm-50.1-8.7l-.1.2-.1.2.1-.2v.1h.1l-.1-.1.1-.2v.3-.3l.1-.2v-.1.1l-.1.2v-.2.2zm19-.6l.4.2-.4-.2zm15.1 13.8l.1-.1-.1-.2v.3zm-4.5-9.3l-.1.3.1-.3zm13.4.2zm-37.8 3.2zm54 2.2v-.2.2zm4-.4v.3-.3zm0 .3l.2-.1h.1v-.2h-.1l-.2.3zm.3.6zm-10.2-1.7zm4 .7zm5.3.4v-.1.1zm.4.5l.7-.3h.1l-.3-.1v-.1l-.6.2h-.1l.2.3zm-57.2-11.7v-.2.2zm-3.2 2.7zm50.7 7.4zm7.8.9l.4-.3h-.3l-.1.3zm-19.1 7.1zm31.5-9.1v-.1.1zm-73.5-6.9v.2-.2zm29.5 3.4l.1.1-.1-.1zm24 4.9l.1.1-.1-.1zm6.1 1.2l.1-.4-.1.4zm0 0l.1-.1-.1.1zm1.1 0h.2l.1-.6c0 .3-.1.4-.3.6zm.3-.1c.2 0 .3-.1.5-.3l.3-.5v-.1h-.2l-.4.3-.2.6zm-4.8 2.3l-.2-.1-.1.4.3-.1v-.2zm-21.8.8zm-10.9-.4zm-1.1 2.8v-.5.5zm17 1.9zm2.6-.8zm17.4-3.1zm16.3-6.5zm-.8-1.2l-.1.1.1-.1zm-3.2 0l.1.4v-.3l-.1-.1zm-25.2-.9h-.5.5zm-.8 0h-.2.2zm-.9-.3zm-1.1-.5l-.1-.3-.1.3h.2zm-14.1-2.3c0 .1 0 .1 0 0zm-22.6-4v.3-.3zm-2.1.2v.3-.3zm-3.1.3l-.1.1h.1v-.1zm-1.3.8zm0 0zm-.4.5zm29.3 5.4l.2-.5-.2.5zm8.2 2.1zm.8 0zm13.6 2.2zm1.1-.6l.2-.1-.2.1zm.1.2l.1-.3-.1.3zm.4.1l-.1-.2.1.2zm5.7 1.2l1.2.6.1.1.3-.1.1-.3h-.2l-.5-.2-.4.2-.4-.2-.3-.1h.1zm-25.3 2.8zm-11-.5c.1 0 .1 0 0 0zm0 0zm-13.7-4.8l-.2.2.2-.2zm-3.2-.5zm16.3 8.6zm13.3 2c.1 0 .1 0 0 0zm.1 0zm3.3-.1l.2-.2-.2.2.3-.3-.3.3zm2.9-1zm.3.1v-.1l.1-.2-.1.1.1-.1-.1.2v.1zm10-.4v.2c.1-.1.1-.2 0-.2.1 0 .1 0 0 0zm11.2-3.2c0-.1 0-.1 0 0zm0 0c0-.1 0-.1 0 0zm11.8-5.8zm.1-.1l.2-.2-.2.2zm0 0l.1.1v-.2l-.1.1zm.2-.1l.2.2v-.2h-.2c.1 0 0 0 0 0zm4.9-.8zm.1-3.1l-.1.1h.2l-.1-.1zm-5.8 1.6v.3-.3zm-3.6 1.3l.2.1v-.1l.2-.5.1.5h.1l-.1-.4v-.2c-.3.1-.4.3-.5.6zm-13.8-.3l-.2.3v.1l.4-.1c0-.2-.1-.3-.2-.3zm-13.5-2.2s.1.1 0 0c.1.1.1.1 0 0zm-24.3-3.8zm-1.2-1.1v.6l.2.1.3-.3-.2-.2c-.1-.2-.3-.2-.3-.2zm-3.9-.1l.3-.2-.3.2zm-3.4-1l-.1.6.1-.6zm-4.1-.1v.1-.1zm-2.1 0v.4-.4zm-5.1 2h.2v.1-.2l-.1-.1-.1.2zm-.1.8l.1.3v-.2l-.1-.3v-.3.5zm9.3 1.7c-.1 0-.1 0 0 0-.1 0-.1 0 0 0zm20 2.6v-.4l-.1.2.1-.2v.4zm9.2 3l-.1-.2.1.2zm7 1l-.3-.3.1.1.2.2zm6.7 1v-.2.2zm.1-.1v-.3.3zm.2-.1s0-.1 0 0l-.1-.2v.3l.1-.1zm1.6 0l-.1-.2.1.2zm.3-.3l-.3-.3v.2l.1.2.2-.1zm4.7 2.3v-.3.3zm-5.6.6zm-8.1 1.3l-.2.2.2-.2-.1.3v.1l.3-.1-.2-.3zm-22.4-1.1l.3.2-.3-.2zm-8.1-2.1l.2.1v-.4l-.2.3zm-5.2-2.4l-.1.1.1-.1zm-3.2-.6l.2-.1-.2.1zm-3.9-1.1h-.1l.1.1.1-.1h-.1zm-2.1.3l.2.1-.1-.2-.1.1zm-.5 1.1l.1-.1-.1.1c.1 0 .1 0 0 0 .1 0 .1 0 0 0 .1 0 .1 0 0 0l.1.2.1-.1v-.1-.1h.1l.1-.2.2-.1.1-.3-.1.3-.2.1.2-.4-.2.4-.2.2v-.1l.4-.4-.1.1-.3.3.1-.4.1-.3c-.1.1-.3.3-.3.5l-.1.4zm3.9 2.8l-.2.1.2-.1zm2.3.7zm16.9 5.9l-.1-1h-.3l.4 1zm6.9.7c0-.1 0-.1 0 0 0-.1 0-.1 0 0 0-.1 0-.1 0 0 0-.1 0-.1 0 0zm5.8.1l.1-.2-.1.2-.3-.3.1.1.2.2zm5.5-.2v.3h.1l-.1-.3zm.3-.2zm1-.4l.1.1-.1-.1v-.1.1l-.1-.2.1.2zm5.9.2l.1-.3-.1.3zm.6-.4l-.4.1-.1.2-.1.1.2-.1c.2 0 .3-.2.4-.3zm1.2-.1zm1.8 0c-.1 0-.1 0 0 0l-.1-.1.1.1h-.1-.1l.2.1v-.1zm.5-.1v-.2.2zm8.1-2.7c-.1 0-.1 0 0 0-.1.1-.1.1 0 0zm3.2-.7h-.1.1l-.1.1.1-.1zm3.6-.7s.1 0 0 0v-.2.2zm8.5-4.6l-.4-.4.4.4zm4.9-1.5c-.1 0-.1 0 0 0-.1.1 0 .1 0 0zm0 0l-.1-.2.1.2zm4.6-2.1c.1 0 .1 0 0 0l-.1-.1.1.1zM217 233.9l.1.3.1-.2-.2-.1zm-149.1-92zm136.6 79.7zm62.5-117c.1 0 .1 0 0 0zM75.6 153c-.1 0-.1 0 0 0zm29.9 1.2zm84.6 149.4h.1-.1l.1-.1-.1.1zm.3-.3zm46.7 24.9l1 1.2-1.4.4-1.3.3v.1h-.5l.3.2-1.1.2.4.5-.4-.1v.5l-.8-.6c-.1.2-.3.3-.4.3l-.3.1h-.5v-.2h-.1l-.2-.1.2-.1v-.2.1h-.1l-.1.1-.4.1h-.1-.5l-.1.1.3.3-1.8.1.5.6h-2.2v-.6.6l-.8-.2v.1l-2.1-.1v-.3.3l-.7-.2H223.6h-.1l-.2.3-.2.2-.2-.3.2.3-.3.2h-.3v-.4.4l-1-.2.1.1-.4-.1-.6.1.1.1h-.9l-.4.1h-.5l-.8-.1-.7-.1h-.2l-.2.1.1-.1-1.3-.1c-.3.2-.5.3-.8.3h-.5v.3l-1-.1H212.7l.1-.3-.1.3-.3-.2-.2-.2-.3-.1.1-.2-.1.2-.7-.2-.5.1h-.1l.9 1.6-2.9-1.3.2-.4h.1l.5-.2.2-.2.1-.4-.4-.1v.1l-.2.6.2-.4-.2.4-.2.2h.1l-.2.4-.4-.2-.4.1-.4-.3-.3-.2.3.7-2.3-1-.3-.1-.2.2-.5-.2v-.1.1l-.6-.2v-.1.1-.1c-.4-.1-.8-.2-1-.4h-.6H201.8l-.2-.1-.5-.3-.1-.1-.2.2-.3.1v.1h-.1v-.2.2-.2.2h-.2v-.2.2l.1-.7-.1.3-.1-.1.1.1-1.6 2.3-.2-2.7-.2-.1-.3-.2-.4-.3-.3.1h-.1l.9 1.4-1.5-.7-.4.8-.2-.9-1.4 1.1.5-1.7h-.1l-.7-.6-.2-.5-.1-.1h-.3l-.3.4-1-.3-.6-.1-.6-.2-.2-.1-.1-.2-.9-.2h-1.5l.3-.4-.3-.1v-.1.1-.1l-1.6 1.1.3-1.9-.2-.1.1-.3-.1.3-1-.4h-.3v-.1c-.3-.2-.6-.6-.7-1.1l.5-.1-.5.1v-.3l-.8-.3h-.1l-.1-.1c-.4-.1-.7-.4-1-.6l-.1.7-.9-1.3-.2-.1-1.5.4.5-1.4-.1-.1h-.1l-.4-.1.1-.2-.1.2h-.1l-.1.9-1.6-1.9-.9-.6.3-.5-.3.5-1.5-.9-.2-.1-.1-.1-1.8-1.3.8-.1-.5-.6.2-.1-.2.1-.4-.7h-.1l-2.6.6 1.5-1.4-.1-.1-.2-.2h-2.9l1.7-1.2v-.1l-.1-.3c-.6-.7-.7-1.3-.8-1.8l-.1-.4-.3-.2-.3-.5-.1-.4v.1l-.1-.3-.1.1-.3-.4-.1-.3-.1-.4v-.1l-.1-.1-.1-.2-.1-.3h-.1l.1-.1-.1.1-.2-.4-.1-.2-.1-.2-.8.1-1 .3 1.3-1.5.1-.3-.1-.2-.1-.3.6-.3-.5-.1v-.1l-1 .8.3-2.5h.2-.2l.1-.4v-.3-.3l.2-.1-.5-.2.5.2-.5-.2v-.1l-.1-1.3-.1-.3v-.3l-1 .4.3-.5h-.3c-.6 0-1.1-.2-1.6-.3l.3-.9-.3.9.3-.9-.3.9-1.4-.7-.3-.2-.2.3.2-.3-.2.3-.1-.1a7.4 7.4 0 01-2.1-2.2l-1.5-2.7c-.8-1.7-1.6-3.5-2.6-5.1h-.1.1-.1l-.3-.8-.1.1-.6-1 .2-.1-.2.1-2.9-5.3a38 38 0 01-1.7-3.8l-.4.2a52 52 0 00-3-5.6l-3.4-5.6-.1-.1-.1-.2-.2-.4-1.3-2 .8-.5-.8.5a15 15 0 01-1-1.7c-.3-.2-.8-.5-1.4-1.1l-.7-.7.1-.1-1.2-1.4-1.6-1.9-.8-1.1-.1-.1-.1-.1-.1-.1.1-.1-.1.1-.1-.1v-.1l-1.2-1.8-.7-1-.6-1 .6-.3-.6.3-1.3-2.1-1.3-2.2a107 107 0 01-2.6-4.6l-1.3-2.2-1.3-2.1.9-.5-.9.5-.3-.4.1-.3-.2-.6-1-2.1-1.3-2.6-.3.1.3-.1-.3.1-.4-.6-.2-.2a6 6 0 01-1.1-1.7l-.2-.4-.1-.1-.2-.5v-.4l-.2-.3h-.4l-.2-.8.9-.3-.9.3-.5-1.7-4.1-7.5-3.8-7.1.2-.1-.2.1-.1-.1v-.1l.2-.1-.2.1-.1-.3v-.4l-1-2.5-1.4-3-.1.1.1-.1-.1.1a16 16 0 01-1.1-2.5l.5-.2-.5.2-.6-1.9-.6-2-.4-1.3-.5-1.6h.1l-1.8-3 3.3 1.9-.4.7.4-.7.5.3-.1.1.1-.1.5.3v.5l.4 1.5.2.4.3-.1.1.2h.2l.4.3.2.3.1.2.1.3.5 1.3-.3.1 1 2.2.6 1.9-.3.1.3-.1-.3.1.1.2.4.2.3.3.3.4-.3.2.3-.2v.2c1 2 1.3 2.7 1.4 3.4l.3 1.1h-.7l.2.5h.1l.4-.3-.2.2.2-.2.1.2.5-.1-.5.2.5-.2 2 4.4.6-.2-.6.3.6-.3c1.1 2.3 1 2.5 1.3 3.8l-.2.1.2-.1-.2.1 1.7 3.4.2-.1.6 1 .5 1v.1l-.2-.1.1.4.3-.1c.7 1.3.7 2 .9 2.5l.2.4.2.1.2.2.1.1.1.2.2.4.5.9.1.1-.1-.1-.2-.1v.1l-.4.1.4-.1-.3.2.2.1.1.2-.4.2.4-.2.1.2h.7c0-.1 0-.1 0 0l.1.2.2.4.2.1.3.2.1.1.2.2-.4.3.4-.3.1.1v.1l2.6 5.4 1.4 2.9.9 1.6.2-.1.3.6.6-.3 1 1.8.1.6v.3l.1.3.1.3.3.4.3-.2-.3.2.3-.2a10 10 0 011.5 3l.3 1.4 1.4 1.5-.4.3.4-.3 1 1.4.2-.1.5.7.5.4-.1.1.1-.1c.6.5 1.2 1.3 1.8 2l1.4 1.7.2-.3.8.9 1.5 1.8h-.1.1l.2.3.1.1.1.3v.2l.3.3 1.1 1.7-.4.2.4-.2.3.5-.2.5.5.8 1.1 1.7.3-.2.5.6.3.2.4.6-.6.3.6-.3.6 1.1-.6.2 2.2 3.7 1.3-.4-.9.4-.3.1.3-.1.9-.4c.3.7.5 1.3.5 1.7l-.1.4.2.4.4.1.3.2.2.2-.5.3.5-.3.1.1v.1l.6 1.4.7 1.6v.1l.4-.2-.4.2.4-.2 1.5 2.9-.3.2.3-.2-.3.2.4.5.1.2.1.1.1.2.3.6.2.4v.1l.2-.1-.2.1.2-.1 1.1 2.4.4.2-.3.1.1.3.1-.1.2.2.1.1.1.2h-.1.1l1 2-.1.1c.8 1.3 1.3 2.6 1.8 3.7l-.9.4.9-.4c.2.6.5 1.1.8 1.5l-.8.5h-.1l.8-.5.5.7.2-.1-.1.1.1-.1.4.5.2.3.7.8-.3.4.4-.6-.4.6.4-.6.1.1.8.4h.2l.1-.2v-.3l.6-.1.3-.1.1-.1.5.5-.3-.8 1.7-.9.2-.7H170.1l1-.6.9-.5.9-.6 1.7-.9.4-.2 1-.7.3.4-.3-.5.1-.1h.1l.3-.2.1-.4.4-.4.7-.6-.1-.1.1.1-.1-.1 1-.7h.1v-.1h.1l.1-.1.1.1-.1-.1.7-1.1.4.4.2-.2-.2-.4.2.4-.2-.4 1.6-1-.1-.2 1.2-.7.5-.1.6-.5.3.3.1-.1-.2-.2.1-.1-.1.1-.2-.3-.5.2-2-4.1-1.8-3.4-.1-.3c-.2-.8-.9-2.5-1.4-3.3l-.1-.1-.3-.4h.1-.1l-1.4-2.1h.1l-2-3.5.6-.3-.6.3.6-.3-.1-.3-.1-.2-.2.2-.1.2v.1l-.2-.7-.3-.2-.6-.4.2-.5v-.1l-.3-.8-1.3-2.4-1.5-2.8c-.4-.9-.8-1.8-.9-2.6l.6-.2-1.3-2.6-1.2-2.3-.1.1-.9-1.5c-.8-1.4-1.5-3.1-2.2-4.8l-.3-.7c-.3-.3-.6-.6-.7-.9l-.5-1.1c-.4-.8-.7-1.4-1.1-1.8l.3-.3-.3.3-.4-.4.2-.6.1-.3-.2-.3c-.3-.3-.5-.7-1.3-2.2l.2-.1-.2.1.1-.1-.1-.1-.3-.6-.2-.1-.4-.4-.3-.5-.1-.1v-.1l.9-.3-.9.3c-.3-.8-.4-1.2-.6-1.4l-.4-.5c-.4-.4-.9-1-1.7-2.7h-.1.1-.1a17 17 0 00-1.2-2.3l-1.5-2.4-3-4.8.4-.2-.4.2.3-.3-.4-.8-.2.1.1-.1-.1.1-.4-.4-.1-.1-.1-.2-.5-1.1-.3-.8v-.3-.2l-.4-.5c-.5-.6-1.2-1.9-1.8-3.2L145 208l-1.3-1.6-.3-.2.1-.1-1.5-2.4-1.3-2.1-.3-.5-.3-.2-1.2-1.1.4-.2a8.8 8.8 0 01-1.4-2.8l-.2-.8-.2.1c-1.1-1.8-1.8-3.4-2.5-4.9-.5-1.1-1-2.2-1.8-3.4l-.4-.3-.1-.1a.8.8 0 01-.2-.4l-.7-1.5.4-.2-.4.2.4-.2-.5-.9-.6.4-1-1.6-.7-1.4.3-.2-.3-.5-.3-.1-.1-.1-.3-.4.2-.2-.2.2v-.2l.1-.1-.1.1-.6-1.3-.2.1-.3-.4-.7.5.2-.8-.1-.1-.2-.2-.1-.1v-.1-.1-.1l.1-.4-.6-1-.6-1.2-.6-.1-.1-.2-.3-.5v-.3l-.7-1.4-1.1-1.7h-.1.2-.2c-.2-.9-.5-1.6-1-2.4l-1.7-2.6-.2.1.2-.1-.2.1-1.8-3.6-.3.1-1.5-2.7-1-1.9-.3-.1-.2-.2-.8-1.2.9-.5-1 .3-.4-1.1-.2.1.2-.2-.2.2-1-1.8-.3-.7-.4.1.3-.2-.3.2-.8-1.6-.2.6-.9 2.5.3.1c-.1.7-.4 1.5-.7 2.1l.7-.3-1.4 2.5-.2.8-.6 2.3-.9-.3 1 .3-.4 1.1-.2.4.4.1a2 2 0 00-.2.9l-.1 1.1v1.1l-.8.1.8-.1v.8l.1.1v.7l.2 1.1v.1l.5.5-.4.3.4-.3.8 1-.2.1.1.1-.8.6.8-.6.2.4.3.5-.4.2.4-.2.3.5.1.1.1.1-.1.1.1-.1.1.1.1.1.2.8.4-.1-.3.6v.3c0 .6-.2 1.2-.5 1.7-.3.6-.7 1-1.3 1.4l-.5-.8.5.8a3 3 0 01-1.8.6l-1.8-.1-1.2-.1H103.1h-.1v.1c.2.4.2.8.1 1.2v.3l.4.1-.7 1.1-.3.5-.2 2.4 1.6 6.2.2.6v.4l-.1.3V191.4l-.3.1.3-.1-.3.1-.3.2c-.2.1-.3.1-.4 0l-.8.2-.2-.6-.4.1-.1-.5-.2-.7c0 1-.2 1.5-.4 2.1-.2.5-.4.9-.5 1.9l.6 2.1-.4-.3-.2.8-.3-.1.3.1h-.3l-.1.6-.2-.1v.3l-.2 1-.2.5-.6.6-.4-.9.4.9-1.6.7.2-1.7c.1-.7.2-1.9.5-2.8l-.2.3.2-1.8-.4.2.2-.5-.2-.1.4-.4.2-.5-.1-.2-.2-.5v-.2-.2l.1-.3v-.1h.4v-.1l.1-1v-.1l.1-.4v-.1l.1-.1-.1-.3.5-.1-.5.1v-.2l-.3.2.6-2.6-.6.5.5-2.7c.1-.6.2-.9.5-1.3l.2-.3.2-.2.1.1.1-.3-.6.4.5-2.6c.1-.4.2-.7.4-.9l.1-.1v-.1-.2-.1-.3-.2c0-.1 0-.1 0 0v.1l.1.2v-.3h.2v-.1l-.2-.1-.1.1.1-.2h-.1c-.3-.2-.4-.4-.4-.5l-.1-.3.4-.1-.4.1v-.4l.4.1-.4-.1v-.1-.1h.2-.2v-.1-.2h.1-.2l.2-.7.4-1.3.3-.9.7.2-.2-.2 1.7.3-.5-.4 1.6.1v-.1.1-.1l1 .1h.5v.2-.2h.3l-.4-.4-.1-.3-.1-.1-.1-.1-.3.2-.5-1 .3-.1-.3.1a3 3 0 01-.4-1v-.2l.3-.1-.3.1v-.3l.1-.5-.2-.8-.1-.7.4-.2-.1-.7h-.3l.1.1.2.2-.4-.3-.2-.5v-1.3h.6v-1h-.1.1v-.3l-.3-.1-.6-.5.1.4-.5-.1.4-.9-.1-.4h.2-.2l-.1-.3.1-.3.4-1.2-.3-.1-.5.3 1.2-2.9.1.1-.1-.1.3-.8-.1-.4.1-.4.4-.9h.1c.1-.7.5-1.3.7-1.7l.3-.8h.1-.1l-.2-.1c0-.2.1-.5.4-.8l.3-.4-.1-.1v-.1l.2-.3-.2-.4h-.1l.1-.3v-.1l.6.1-.6-.1v-.1l1 .2v-.2l-1.1-.5.1-.3-1.1-.9 1.8-.4.1-.1.3-.7.4-.8v-.1l-.2-.5v-.4l-1-.3.5-.4-1.2-1.1h1.3v-.1-.1l-.3-.1c0-.3 0-.6.2-1v-.1h.1-.1.1l.3-.3.2-.4-.3-.5h-.5.5-.5c0-.4-.2-.8-.4-1.3l-.4-.7-.3-.6v-.4h.6-.6v-.1l-.1-.3-.1-.1-.1-.1-1.6-1-.2-.1v-.1.1-.1l-1.4.8.3-1.5H100.8c-.4 0-.9-.1-1.4-.6l-.3-.3-.4.1-.8.4-1.1.5h.2l-1.2.6-.5.4-.1.1-.1.1-.2 1.2-1-.5-.5.5-.1.3-.2.4.9-.1-2.3 2.1-.1-.1.1.1-.5.6-.5.9-.9-.4.9.4-.4 1-.5 1.1-1.2 2.6-.1-.6-.1.2-.5.8-.7 1v.5l.7 1.5-1-.4-.2.5-.2.5-.1.3.6 2.1-1-.5-.1.3-.3.4v.2c-.3 1-.8 1.7-1.2 2.2l-.5.9v.4l-.1.4-.4.7-.2-.2.2.2-.1.1.3.1-.3-.1.3.1-.2.6-.3.5-.2.3-.1-.1v.5l-.1.1-.2.4.2.1h-.2.2l-.2.6-.1.3-.1.4v.1l.5.3.5.2-1.1.5-.3.4h-.1l-.1.2-.2.7-.5-.1.3.3-.2.2v.1l1.3-.5-1.6 2.6-.2-.1.2.1c-.3.6-.6.9-.6 1.4l.2.2-.1.3-.2.6-.1.3-.1.4v.5l-.1.2 1-.4-1.4 2.6-.3-.2.3.2-1.6 3-.9-.5.9.5-.3.5h-.6l-.3-.1-1.9 1.2.9-2.7-.1-.1-.3-.1.2.1-.2-.1.1-.2-.1-.4v-.3-.4-.2.1l.2.3.1.1.1-.3-.7-.4.1-.1.3-.4a.8.8 0 01-.2-.4l-.1-.4.1-.6.7.2-.7-.2v-.1l.1-.1c.3-.5.3-.9.3-1.4v-.4-.4l.1-1v-.1l-1.7.3 2.4-2.3v-.2-.2l.1-.2.2.1-.6 1v-.2c.5-1 .7-1.7.9-2.4l.1-.4-1.1.4 1.4-2.2.3-.8.3-.6.4-.9.6-1.3h-2.6l1.8-1.1.1-.2c-.4-.1-.6-.4-.6-.4l-.1-.3-.1-.2c0-.1 0 0 0 0l.1-.1.2-.1.2-.1-.1.1v-.1h-.1l-.3-.4-.1-.3-.3.6-.7-1.5-.3.6-1-1.9.5-.3h.1l.3-.1-.3.1v-.1l-.1.1h.1l-.5.3a3 3 0 01-.2-.8l-.8-1.7-.2-.7-.1-.2h-.3l-.3-.1-.3-.2-.1-.3.4-.2-.4.2-.3-.8v.1l-.2-.4-.3-.3v.1l-.4-.5-.4-.4.1-.1-.1.1c-.2-.2-.4-.5-.4-.8l-.2-.2-.4-.8-.2-.2h.1l-.5-1-.6-.4-.2-.3-.2.2-.5-.9.2-.1-.2.1-.3-.5.2-.1h.1v-.1l.1-.1-.1.1-.1-.1v.1l-.2.1-.1-.1v-.1s-.1-.2 0-.4l.1-.3-.1-.2-.2-.6h-.1l-.2-.2-.7 1.5-.7-2.9v-.4l-.3-.2v-.5l-.5.4-.4-1.6v-.1l-.2-.7h.1-.1v-.2l-.3-.1-.2-.5h.1-.1l-.2-.6h.1l-.3-.9-.3-.4.1-.1-.1.1-.1-.1H63v-.2l-.1-.2v-.4h-.2l-.3-.2h-.1l-.1-.2.6-.4-.6.4.3-.2-.4.2.6-.3-.6.3.3-.3-3 .5 2-2.1v-.2-.3-.4l-.2-.1-.4 1.6-.5-1.4-1 .3.5-.8-1.8-.2 1.7-.9c-.1-.2-.2-.6-.1-.9l.2-.4v-.1l-.2-.2-.5.1-.4-.7-.3-.5-.3-.4v-.5l-.4-.5-1.2-1 .4-.1-.1-.1h-2.1l1.6-1.3v-.1l-.5-.8-.2-.3.1-.1c-.1-.3-.1-.8.2-1.2l.4.2-.4-.2.1-.2-.4-.5h-.1v-.2l-.4-.8-.4.5-.1-1.5v-.1-.1l-1.7-.4 1.3-1-.3-.3-.6.9-.5-2.5c0-.2-.2-.4-.5-.8l-1-1.3h.1-.1v-.1h-.1l-.1-.2-1-1.7.6.1-.2-.6-.1-.6-2.8-.1 2-1-.1-.2-1.9-.5-.2.7-1.2 3.6-.3 1.1v.5l-1-.1-.3.6.3-.6 1 .1-.2 1.5-.4-.2-.1.3.2.1a24 24 0 01-2.4 5.9l.2.1-.3-.1.3.1c-1 3.1-2 5.5-3 7.8a96 96 0 00-2.3 6v.6l-.2.6-.9 2.3-.4-.1-.6 1.6.7.2-.9 2.6-1 2.4-.3-.1-.4 1.2.1.4v.2l-.1.6h-.2.2a11 11 0 01-.9 2.1l.2.1-.2-.1.2.1-.6 1.8-.9 3.1h-.1.1-.1.1l-.3 1.2-.3.8v.2H31.4h-.1.1l-.1.7-.1.3a8 8 0 000 2.2c.2.8.5 1.5.9 2.1h.1c.1.6.4 1.1.8 1.5l-.2.1.2-.1 1.3 1.3 3.7 2.3.1-.2c1.3.8 3.1 2 5.3 3l.2-.3-.2.3.2-.3 1.9 1 2.4 1.1-.2.5.2-.5 3.2 1.5c.2-.1.4 0 .4 0l.3.1 1.9.7-.4.9.4-.9h.2l1.8.8.1-.3 2.8 1 1.2.5.2-.3-.1.3.1-.3c3.9 1.4 7.9 2.6 12 3.5l.3.1.2.2-.5.5-.1-.1-.1-.1-.1.4.1-.4-.1.4v.1l-.2.9h-.1l-.1.5h-.1l-.1.5-2.2-.5v.1l-.4-.1h-.1l-.2.1v-.2.2h-1l-.8-.1-.1.4.1-.4-.1.4-3.3-1.1-.1.3-1.7-.5-.2.1h-.5l-.4-.1-1.4-.3.2-.7-.2.7c-2.7-1-4.9-1.6-6.8-2.1l-2.6-.7-2.3-.8.2-.4-.2.4-1.5-.7-.4-.2-.3-.2-.2-.2-.2-.4-.4-.2h-.2l-.3-.1-1.1-.4-.1-.1-.1-.1-1.1-.9-.4-.2-.5.5.4-.6-.4.6-2.1-1.3H37.8h-.1l-.1-.1-.2-.1-.6-.3v-.1.1a33.4 33.4 0 01-5.2-3.6l-1.9-1.9.8-.6-.8.6c-.6-.7-1.1-1.4-1.5-2.2l.9-.5-.9.5c-.4-.7-.8-1.6-1-2.5-.2-.9-.4-1.8-.4-2.7-.1-1.7.2-3.4.7-5.3l-.2-.1.5-1.3.2-.7-.1-.1h.1-.1l2.1-5.6.3.1-.3-.1 2.2-6-.2-.1.2.1-.2-.1 1.7-4.1-.2-.2.7-1.6 1-2.8 2-5.7h-.3l.4-1.1.2.1-.2-.1.7-1.7h-.1.1-.1a124 124 0 011.7-4.2l.5-1.4-.1-.2-.2-.4.2-.4.5.2-.5-.2 3.1-7.7v-.2l.1-.5.1-.5.1-.2-.1.1v-.2l-.1-.1.1.1-.1-.1.2-.5.4-.9.5-1.4.8-2.3-1.8-4.3-.3.4-.6-2.3-.1-.4-2.6-6.3a140 140 0 00-7.9-16.7h-.1.1-.1L30.2 66a8 8 0 00-.8-1.6l-1-.4-.4-.8-.1-.1-.3-.2V66.5c.1 1.6.1 3.3.3 4.9.2 3.3.6 6.7 1.3 10.6H29l.7 4.5-1 .1 1-.1.5 3 .2 1 .1.3.2.2v.3l-1 .2 1-.2.2 1.4-1 .2 1-.2.1.7.2 1.2.1.3-.1.3-.4 1-.5-.2.5.2-.5-.2.5.2-.1.2-.5-.2.5.2-.1.1-.1.3H30l.5.2-.3.5-.3.5-.5-.2.5.2-1.1 2.1-1.4 2.8.4.2-.4-.2.4.2-1.9 4.2-.3-.2.3.2-.3.8-.3-.1.3.2-.7 1.3-.2.2-.2.2-2.3 4.5-2.5 5.4v.3l.1.1.2.8v.4a88.6 88.6 0 01-2.9 7l-.2-.1-.7 1.5.1.1h-.1.1c-.8 2.1-1.5 3.5-2 4.6-.6 1.1-1 2-1.2 3.4l-1-.2 1 .2v.3l-.2.2-.4.4-.9 3.1-.2.6h-.3l-.1.2-.6 1.5a32.5 32.5 0 01-1 2.4l-.1.1V147.5l-.1.2-2 6.2-.8 2.8-.2 1h.1v1.4l-.4.1c-.6 2.5-.9 5.1-.9 7.2l.3.2v.6l.1 1.4h.1-.1.1l.1.5.1.5.2.9a29.8 29.8 0 004.6 8.8l.3-.2c1.3 1.5 3 3.4 5.2 5.3l-.3.3.3-.3 3.4 2.8 3.5 2.3.1-.1 1.5 1v-.2l1.1.6 8.2 4.4c2.2 1.2 4.2 2.2 5.6 3.1l.2-.4-.2.4.2-.4 4.2 2.3 2.3 1.2-.1.2.1-.2 2.4 1.3c1.6.9 3.2 2 4.7 3.2a19 19 0 013.8 4.2l.1.1.1.1.1.1.4.8h-.1.1-.1.1-.1.1l.5 1 .4 1 .6 2.1c.3 1.3.3 2.6.3 3.7.1.4.4 1.3.3 2.9h-1 1v.9h-.2l-.1.5-1-.1 1 .1-.1 1.4-.1.8v.4l-1-.1 1 .2-.1.5-.4 2-.5 1.9-.5 1.7-.2.4v.2l-.1.4h-.1.1c-2.7 8-7.6 19.5-11.1 28.8l-.1.3-.2.1-.1.2-.5 1-1.5 3.3-1.8 4.1.3.2-.5 1.2-.1.6c-.1.5-.3 1.1-1 2.7v.1l-.6 1.3-.4.4-.6 1.4.2.3-.3.5-1.4 2.4c-3.5 8.9-6.8 16.2-9.8 24l-.2-.1.2.1v.2l-.1.2-.3.3h-.1l-1.9 4-2 4.8.1.1-.1-.1.1.1c-1.2 3.3-2 4.9-2.9 6.6-.8 1.7-1.8 3.5-3.4 7.2l-.9-.4-.1-.1.2.1.9.4-1.1-.5-.9-.1.6-.1-.6.1-.1-.7h.2-.2v-.3l.2-.3 1.2-2.4.3-.7-.2-.1.2.1-.2-.1.3-.8-.1-.3v-.4l.1-.4.2-.4.9-2 .3.1 1.4-3.5 1-2.1.3-.6.3.2.3-.8-.1-.4v-.2l.1-.5.2-.7.4.2-.4-.2c1.3-3.2 1.8-4.2 2.3-5.1l1.1-2v.1l.4.4.2-.4.2.1-.2-.1.1.1-.4-.2-.3-.1h-.1c0-.1 0-.1 0 0h.1l-.4-.3 3.2-7-.5-.3c1.5-3.5 1.8-3.5 2.8-5.3l.2.1 2.5-5.6-.2-.1.2.1-.2-.1.6-1.6.7-1.8.1-.2V282.5l.2-.3-.3-.2c.9-2 1.4-2.6 1.9-3.5l.5-1.2v-.1-.3-.2-.1l.1-.2.3-.7.6-1.5.1-.2c0-.1 0 0 0 0v.1l.1.3.3.3v-.2l.4.1-.4-.1v-.2l.1-.1.1-.3-.6-.5.6.5-.6-.5.1-.1.2-.4.4-1-.1-.4v-.3-.2l.1-.4v-.2l.1.1.3.5c1.9-4.5 4.7-10 7-15.7l-.2-.1.2.1-.2-.1.5-1.1-.6-.2 1.1-2.7.4-.7.3-.4.2-.5.2-.5.3-.8-.3-.1c1-2.6 1.5-3.7 2-4.4.5-.7.8-.9 1.4-2.2l.8-3.2.6.2-.6-.2.8-2.6-.2-.1.2.1-.2-.1.8-2.4-.2-.1c.1-1 .6-2.4 1-3.8l.3-1.1.3-1h.1-.1l.2-1 .1-.6h-.3l.2-1.3.2-3.3h.1-.1v-.4-.1l.1-.3.2-.3v-.9l-.3-2.7.4-.1-.4.1-.1-.5.3-.4-.5-1.4.9-.4-.9.4c-.4-.9-.9-1.7-1.5-2.5l-.3.2-.8-.9.1-.1-.1.1-.1-.1-.4-.2-.6-.5-1-1 .5-.3-.2-.2.6-.8-.6.8a42.8 42.8 0 00-5.7-3.7l-.8 1.1-1.9-1.3-.3-.4v-.1l-1.3-.7h-.1c-.3.2-.5.1-.5.1l-.3-.1-.3-.1h-.2v-.1.1c-1.2-.8-2.9-1.7-4.6-2.6l-.2.4.2-.4-.2.4-4.5-2.4.2-.3-.2-.1-.9-.4-.4-.1h-.2l-.1-.1c-.6-.4-1.1-.6-1.2-.8l-.1-.1-.2-.2-.2.2.1-.2-.1.2L22 194l.1-.2-.1.2-.5-.2v-.1.1h-.1l-.1-.1-1.5-1-1.5-1 .1-.1-.1.1.1-.1a27.4 27.4 0 01-5.2-4l.7-.7-.7.7-3.4-3.2-.2.1-.7-.7-.4-.6-.7-.9.8-.6-.8.6-.7-1-.1-.1c-.1-.1-.1-.1-.1 0H7l.8-.6-.6.7c.1 0 .5.1.9-.2l-.3-.5-.2-.1-.9.6.8-.5.1-.1-.1.1-.8.5L6 180l-.7-1.2.9-.5-.9.5-.6-1-.4.2-.8-1.5-.5-.9-.2-.4-.1-.2.1-.1H2.5l-.5-1.1.7-.2-.7.2-.4-1.3-.4-1.4h.2-.2v-.2l-.1-.1-.3-.4.1-.5h.2-.2l.1-.5-.1-2.5.2-3.4.9.1h.1l-1-.1.6-2.9.3-.8h-.1l.4-1.9V157.6l.2-.9v-.2l-.1-.5.1-.7.3-1.3h-.1.1-.1l.7-2.3v-.5h.3-.3v-1.1h.4l.2-.6.1-.4-.4-.2 1.1-3-.3.1c.3-1 .6-1.6.8-1.9l.3-.4.1-.2.1-.3.7-2.2.6.2c.3-.4.4-.4.8-1.2l.5-1.1-.1-.2-.1-.6.1-.5.1-.3-.5-.3.5.2-.5-.2 2.6-6.7 2.1-5.5.2-.4c.6-1.2 2-3.9 2.5-5.2v-.2l.2-.6 1.1-3.1.3 1 .4-.7-.6-.3.6.3-.6-.3 2.6-6.2.2.1.8-1.3.1-.7.5.1-.5-.1.1-.5.3-.2.2-.3.5-1.1 1.5-3.5 1.7-4.1h.1-.1l.8-1.9.4-.8v-.1h.1-.1v-.1-.2l.7-.1-.6-3 1-.2-1 .2-.8-4.4 1-.2-1 .2-.2-1.6-.1.2-.4-2.3h.3-.3c-.5-2.5-.7-5.2-.9-8v-1.5l-.4-1.5-.3-2.2c-.1-1.3-.1-2.6-.3-3.6l-.1-.4.2-.3.4.2-.4-.2.4-.4V64l1-.1-.8.1.8-.1-1 .1v-1.2h1-1l.1-1.1 1 .1-1-.1.4-1.8h.2l.1-.3.2.1-.3.2.9.2V60l-.5-.2.5.2-.2-.3-.4.1-.3-.1.3-.7c-.4-1-.9-1.7-1.3-2.3-.5-.7-1.1-1.4-1.5-2.2l.3-.2-.3.2-.3-.8-.1-.3v-.2-.3-.2l-.3-.5-.1-.3v-.7l-.1-.1H20V51l-.1-.2-.1-.3-.2-.1-.1-.2-.1-.1-.2-.3h.1-.1c-.7-2-1.3-3.2-1.8-4.4l-.8-1.8-.1.4-1.4-3.5-.9-2.7-1-2.9-.3.1.2-.1-.2.1-1 1.5.2-3.7v-.2l-.1-.4-.4-1.3a29 29 0 00-.8-2.1l-.4.2-.3-1.1.5-.1-.5.1-.2-.7h-.1.1-.1l-.6-2.1-.1-.2-.6-.1-.2-.6-1-3.6-.2-.2-.1-.1-.1.1-.2-.5h-.1.1-.1l-.1-.6-.2-.5.1-.1-.1.1-1.7-4.3-.3-1 .2-.1-.2.1-.2-.5.7-.2-.7.2-.1-.9 1-.3-1 .3a20 20 0 01-.5-2.6l1-.1-1 .1a12 12 0 01-.1-2.7l1 .1-1-.1c.1-.9.3-2 .9-3.2l.3-.5.3-.4.3.2-.3-.2.7-.8.3.3-.3-.3.8-.6.2.4-.1-.5.1-.1-.2-.1H7l.4-.2.1.2-.1-.2C8.7.3 10.3.3 11.5.6V.5c1 .4 1.7 1 2.3 1.5l-.4.4.4-.4 1.5 1.6.5.4.5.4.6.5-.1.2.2.2s0-.1 0 0l.1.1 1.4 1.5c1.3 1.3 2.2 2.6 3.2 3.9l-.4.3.4-.3 3.1 4v.2l.3.4 1 1.4-.8.6.8-.6.8 1.1.2.2h.3l.3.4c.6.9 1.1 1.7 1.5 2.6l1 1.6.4-.2-.4.3.4-.3 1.3 1.7-.3.2.3-.2.3.4h.1-.1.1l.4.8.1.4 1.1 1.8 1.3 2c.4-.1.7.1.7.1l.2.1.4.4.4.5.8 1.2.7 1-.1.1.1-.1-.1.1v.1l.4.5c.8.9 1.1 1.7 1.4 2.2.2.5.4.8.8 1l.5.3v.6l.8.9-.7.7.7-.7.6.7-.3.3.2.3.5.8.1.2.2.2.1.1.1.1v.1c.6.7 1.2 1.8 1.7 2.7l.7 1.2.1.1.1.1.3.2 1 .6-.4.5.7 1.1.8 1.1.3-.1.4.7-.9.5.9-.5.3.6.1-.1.1.1.5.8 2.7 4.2.3-.2h-.2l.2-.2c.7.8 1.4 2 2.1 3.2.7 1.2 1.4 2.5 2.2 3.6h.1l.1.2.1-.1.6.9 2.5 3.7a14 14 0 011.4 2.7l.3-.2-.3.2.3-.2 2.3 4 1.3 2.1-.8.5.8-.5 1.2 1.9.1.1.1.2.1.3 1.5 2.9.2.1.8.8.7.8-.2.1.6.9 1 1.5.4.8.1.1.1.1.1.1.1.1-.1.1.1-.1 1.7 2.8-.4.5.6-.3 1.8 3.2 1.9 3.3-.9.5.9-.5 1.9 3.1.3.5-.1.2.1.3.7 1.5 1 1.8.3-.1.2.3h.1l.1.1c.3.2.6.6.9 1.4l.2.3v.1l.1.6v.1l.4-.1.3.9.3 1.2 3.2 5.3c1 1.7 2 3.3 3.1 4.8l.1.1.1.2-.2.1.2-.1.1.3v.3l.9 1.5c.4.7.8 1.3 1.3 1.8l.1-.1c1.1 1.2 1.6 2 2.1 2.7l.8 1.2-.1.1.1-.1 1.4 1.6-.1.1 2.5 1.4h-.1l1.2 1.1-.1.2.5.4-.3.1.3.2.7.5-.1.2.1-.2.3.2.3.2-.1.2.1-.2.7.4-.1.2.1-.2.5.4c.1.1.4.3.5.7h-.1.1l.2.5.2.2.7.7 1 1.1h.6l.3.1.4.4.3.4.5.9-.2.1.2-.1.4.7-.2.1.2-.1-.2.1.2.3h-.1.1c.5.8.5 1.6.5 1.9h-1 1v.2l.1.1-.7.7.7-.7.7.6-.4.5.2.4.4 1-.5.2v2h.1-.1.1l.1.1.2.2.1.1.2.3.4.5.4-.2-.4.2.4-.2.8 2 .3-.1.4.7.5.3.2.3.5.8-.6.4.6-.4v.2a29 29 0 002.3 3.8c.7.9 1.5 1.8 2 2.8l-.4.2.4-.2.5 1 .1.3.1.2.1.3v.4l.2.2.5.7.1.2v.2l-1 .1 1-.1.1.8v.1l.7-.1-.6.2.6-.2.5 1.1.2.1.1.1.1.1.1.1.2.4c1.3 2.6 2.3 4.2 3.2 5.7l1.9 3.2 1.2-.8-.5 2 .1.1.1-.1.3-.2-.1.6h.2l-.2.1.2-.1.5 1.1h.1l-.1.1.1-.1 3.7 7 .2-.1-.2.1.2-.1 1.2 2.6h.3l.4.9.9 1.6 1.7 3.1.2-.2.5 1.1.5 1h.1l-.1.1.1-.1 1.3 2.6.3.6h.1v.2-.2l.5.1.2.4 2.3 4.7.2.3.2.3v-.1l.2.3.1-.1-.1.1.1-.1.4.8.5.8c2.3 3.6 4.1 7.2 5.9 10.7 1.8 3.5 3.6 7 5.9 10.5h.1l-.2.1.2-.1 2 4.5.6.7 1.1 1.4-.8.5.8-.5-.9.8.3.6.2-.1c.3-.2.4-.5.4-.6v-.3-.1l.5.9.7 1.3.2.5.3-.1c1.3 2.1 2.3 4 3.2 6 1 2 1.9 4 3.2 6.2l-.1.1.1-.1-.1.1 1.3 2.7.9 1.8.3.5.2.1.2.3-.9.4.9-.4 1.5 3.7 1.1 2.6.5-.1 1.3 2.7.3.6h.1l.3 1v.5a46.5 46.5 0 002.7 6.2h.1l.5.2.2.1.1.2.7 1.2.9 1.8.7 1.5-.2.1.2-.1-.2.1.4.9h.1c.8 1.3 1.1 2.3 1.3 3.1.3.8.5 1.3 1 1.8l.3.3v.7l.2.4.5.8-.8.4.2.3.9-.5 1 1.7-.9.5.9-.5.4.7-.6.5-.1.1-.3.2h-.4v-1 1l-.1.1-.5.3-1.5 1-.6.4-.5-.8.6.8-.5.3-.5-.9.5.9-.4.2-.1.2-.1.1-.1.1-.1.1-.1.1-3.5 2.5-1.6 1.1-.4.3-.3.4-.1-.1.1.1-.6.8-.4-.3-1.8 1.3-1.8 1.3.1.3-.6.4-.5-.8.5.8-.9.6.1.1-.1.1-1.1.8-.5.3.4.2v.1l.2.4v.6h-.7.7v.2l-.1.2v.1l.1.3.1.2.1.2.2.5 2.1-.8-2 2.5v.9l-.3.1.3-.1-.3.1.3-.1.1.4.8-.9-.1 2.3.1.1h-.1.1l.1.2V305.6l.1.5h-.2.2l.4 1h.2v-.3l.7 1.1.2-.1.3 1 .2.3h-.1.1l.1.2.5-.2.3.9.2.6.7.6 1.1 1.2.5.6.4.6-.3.2.3-.2.8.9.1-1.3 1.5 2.3-.4.2.4-.2.4.6.6.1-.1.2.1-.2 2.4.8-.5.3.7.5 1.3.8v.2l.2.1.6.4.2-.2.7.5-.1.1.1-.1.3.3.2.1-.2-.9 1.7 1.4.1-.1.3.4.1.1.4.2-.1.3.1.1v.1l.3.2.2.1.4-.2H191.9l.3.1.5.2.3.2V322.5v-.1c.5.1.9.3 1.1.5l1.1-.6.1 1h1l-.2.7.2.1.6.2.5.3 1.8-1.1-.2 1.5.7.4c.3 0 .6.1.8.3l1.2.4v-.3l1 .1.3.1-.3-.8 2.1 1.3.5.1 1.7.4 1.1.5.2-.3-.2.3.2-.3 1.4.5.9.2.3.1.1-.1.6.2.1.1.8.2.3-.1.1.2-.1-.2 1.3-.3v.4h.2l-.1-.5.7.4h.2v.1-.1l1.3.2-.6-.5 3.3.8h.2l-.1-.1h.7l.9-.1.1.3.7.1.1-.1.5-.2h.2v-.8l1.4.9.2.1h.6l.2-.3.3.2.9-.1c.8-.1 1.3-.1 1.9-.3l.4-.2.4.2-.1.2.1-.2.2.2H229.2l.6-.2c.7-.2 1.1-.3 1.7-.2l1 .1 1.5-1.5-.1.9h.2l.1.2.6-.2v.2l.7-.1c.7-.1 1.2-.1 1.6.4zm-14.4 3.3l.1-.2-.1.2zm-9.5 1zm-90.9-103.7s0 .1 0 0zm33.2 51.5c0-.1 0-.1 0 0l-.7.2h.1l.2-.1.1.1h.1v.1-.1l.2.1v-.3zM99.9 177.5zm6.6-23.6l-.5-.3.5.3-.2-.4.2.4zm0-4.4l.3.3.3.3-.3-.3-.1-.4.1.4-.3-.3zm-11.6-11.4zm-18.6 39.2l.3.5-.3-.5zm-2.4-28.2h-.2.2zm-17.2-28.2l.1-.2-.1.2zm3 56.7l.1-.2-.1.2zm-54-34.1zm86-21.7l-.2.1.2-.1zM59.4 72.1zM14.9 9.2l.2-.2.1-.1-.3.1v.2zm84.4 123.1l-.9-.5.9.5zm10.8 5.7zM184 273.5l-.7.4.1.3.2-.1.4-.4v-.2zm-11.7 21zm21.8 29.2l.3.6-.3-.6zm12.1 4.2zm16.4 4l-.3-.5v.4-.4l.3.5zm-39.4-45.1l-.1-.2.1.2zm-6.1-18.4h.6l-.1-.3-.5.3zm7.4 14.9zm17.4 46.2l.1-.2-.1.2zm17.2-.3l-.2.4v.1h.3v-.1.1-.1l-.1-.4zm-48.8-28.5zm-.5 8.2zm52.8 22.3zm-29.6-7.5zm-23.3-30.3zm-14.9-12.9l.7-.3-.7.3zm14.7 28.5c.1 0 .1 0 0 0zm.3-.1h-.3.3zm3.3 4.9zm.1 0zm33.9 17.7v-.4.4zm.4-.2zm-.2.5l.2-.4-.2.4zm15.3-.5v-.1.1zm4.6.2v-.3.3zm-31.7-6.8l.5.1-.5-.1zm-.3-.1zm-.1-.4zm-1.5-.6v-.2l-.1.3.1-.1zm-10-5.7zm-1.6 0l-.1-.2.1.2zm-6.7-6.1zm0-.8l-.4.2.1.2.2-.1.1-.2v-.1zm-4.8-12.7c0-.1 0-.1 0 0zm0-.3l-.1.1h.1v-.1zm7.6-6.3l-.2-.1.2.1zm-.6-.7zm8.9-10.4l-.1.1.1-.1zm-2.4-7.1l-.5.3-.2.1.2-.1.5-.3zm-38.2-72.1l-.4.2-.2.1.2-.1.4-.2zm-1.2-.4zM127 178v-.1h-.1l.1.1zm-18.9-29.6l.1-.2v-.1l-.3-.1h-.3l.3.3.2.1zM46.4 52l-.4-.1.4.1zM57 67.3c.1 0 .1 0 0 0 .1-.1 0 0 0 0zm2.6 4.8l.2-.1-.2.1zM42.8 41.8l-.2.1.2-.1zM31.9 31.1h.3l-.2-.4-.2.1-.1.2.1-.1-.1.1h.1l.1.1zm77.8 107.6l.1-.2-.4.1v.1h.3l.5-.3-.5.3zm19.3 34.4zm-21.5-25.6zM93 139.1l.1.1-.1-.1zm-29.1-7zm12.9 36.5zM55 112.9zm8.9 19.2zm12.7 36.3zm1.4 5.5zm0-.2zm12.3-35.9h-.2.2zM63 124.5zm-.3-1.7l.2-.2-.3.1.1.1zm-.6-.3zm-5.3-10.8v-.2.2zM47 92.2zm-2.4 6.5zM54.9 113v-.2.2zm0 0zm9.2 19.2c0 .1 0 0 0 0zm14 41.7zm14.7-35l-.2-.3.2.3zm16.8-.1h-.1v.1l.1-.1zm-1.5 9.2zm-3.8 12l-.2.1.2-.1zm-.2.1zm-2 18.2zm-.1-.5zm-1.1-.5zm.6 11.5zm-.7-11.2zm2.2.4zm6.7-27.9zm-26.7.4h-.3l.3.2v-.2zm-.1.5l.2-.3-.2.3c-.1 0-.1 0 0 0zm-9.1-5.8l-.2.2.2-.1v-.1zm-5.6-11.3h-.4l.2.3.2-.3zm-5.3-11.4zm-10.1-18.9zm.4-.8l-.4.1.1.2.1-.1.1-.1.1-.1zm-5.3-9zM25.6 54.5zM42.9 94l.2-.1-.2.1zm20.9 38.4l.3-.1-.3.1zm2 4.6l-.3.3.3-.3zm.1.4zm7.8 11.5v.1h.1v-.1h.1-.1-.1c.1 0 0 0 0 0zm1.9 3.9zm0 0l.1-.1-.1.1zm.3 24.2l.1.1-.1-.1zm2.4-2.6l-.2-.4.2.4zm31.6-24.2zm16.8 27.4c0 .1 0 .1 0 0zm-25.8-49.1l-.1.2.1-.2zm0 0h-.3l.1.1.2-.1zm-3.1 4.2zm-5.7 2.8zm-10.3 16.2l-.3.2.6.1.2-.3h-.5zm-3.4.5l-.1-.1c0 .1 0 .2.1.1 0 .1 0 .1 0 0l-.1.1.1-.1zm-2.6-4.7l-.3.1.3-.1zm-2-2.4l.3-.2H73.3h-.1l.1.1.5-.1v.2l-.3.2.1.1.2-.3zM53 103.6zm.3-1.1l-.1-.4-.4.4v.1l.5.1c-.1-.1 0-.1 0-.2zm-3-6.1H50h.3zm-2-2.7l-.4.1.4-.1zm0-.1l-.3-.1.3.1-.3.1.3-.1zm.1-.1zM28.9 56.7l-.4.5.4-.5zM12.7 5.8zm.6.4zm1.5 2.6h.1l.3-.1.3-.4-.4-.4-.4.5.1.4zm.1.4l.1-.1-.1.1zm13.7 18.9zm18 23.3l-.3.2-.2.3h.7l-.2-.5zm-.5.9H46h.1zm3.7 3.1zm.3 1.9v.1-.1zm6.5 9.9zm.4.4v.2l.3-.1-.3.2.3-.1-.3-.2c0 .1 0 .1 0 0zm15.2 22.3l.1-.1-.1.1zm9.2 15.2l.5.1-.5-.1zm.9.5l.2-.1v.1-.1l-.2.1zm-.1.2zM98 127.9zM58.7 63.3c0-.1 0-.1 0 0l-.6.2.6-.2-.6.2.4.5.2-.5v-.2zm-20.5-30h-.1a1 1 0 00-.5.1l-.1.1.3.4.4-.5v-.1zM5.4 14.1zM8.3 20zm10.4 95.6zm-.8.2l.3.1-.3-.1zm-9.1 24.6zm-6.9 29.1zm0 0zm2.1 6l.1.1-.1-.1zm-2.1-6.3l-.4.1-.2.2h.6v-.3zm36.6 110.4zm.7-1.6c.1.1 0 0 0 0zm17.7-44.6l.6.1-.6-.1zM5.2 157.6zm10.7-29.7l.2.1-.2-.1zm14.2-34.2zm12.4.5l.2-.1-.2.1zm.4-.2l.2-.1-.2.1zm.2 9.8l.3.1-.3-.1zm.1 0l.5.2-.5-.2zm8.3 68.1zm-10.3-2.4zm12.9-56.6l.4-.3h-.3.3l-.4.3zm7.5 16.7l.3.3-.3-.3zm.8 1.4zm1.3 1.1h.2-.2zm0 .4zm1.7 5l.4-.1-.4.1zm3 4.9zm0 0zm7.6 34.7c.1 0 .1 0 0 0zm.3.1zm30.2-27.7zm-3.4 13.1l.3.1-.3-.1zm1.2 9v.1h.1l-.1-.1zm-4 5.9l.3.1-.3-.1zm.2 1.2l-.1.1.1-.1zm.6 11.7h.1l-.1-.4v.4zm1.9-12.1s.1 0 0 0c.1 0 .1 0 0 0zm5.3-7.7l-.6.4.6-.4zm-.6.4zm0 0zm-.1 0l-.3-.6.3.6zm52.6 63.2l.4-.1.1-.1-.1-.2-.4.4zm16.2 34.6l.4.1-.1-.2-.3.1zm-6.7 24.5zm0-.4v-.3.3zm-2.6 2.1v.1-.1zm-.6.5zm0 0l-.2-.6.2.6zm-19.6-24.2zm54.5 58.2l.2-.1-.2.1zm33.1-1.9zm-6.5 1.1l-.1.1h.2l-.1-.1zm-5.3.3c-.1 0-.1 0 0 0zm-9.2-.8zm-7.5-.9l-.3.2.3-.2-.2.3h.4l-.2-.3zm-9.2-2.5zm-2.9-1.4l.1.1-.1-.1zm-6.6-3zm-1-.3l.4.4-.4-.4zm-6.9-5l-.3.3.3-.3zm-4.1-3.3zm-.2-1.5l-.4.5v.1l.6-.1v-.1l-.2-.4zm0 0zm-2.9-5.2l-.2.1.2-.1zm-1.5-1.1l.7-.3-.7.3zm7.5-12.6l-.1-.5-.2-.3-.3.2.6.6zm5.5-3.7zm.5-13.5c-.1-.1-.4-.1-.8 0l.2.4.9-.2-.3-.2zm-.1-.7zM145 201.4l.2.3.7-.3.1-.2h-.1c-.3-.1-.6-.1-.9.2zm-34.8-63.5zm-12.2-10l.1.8h-.5l-.7.1-.3-.6v-.1l-.2-.2.1-.1-.1.1.1-.1-.1.1-.4-.5-.1-.2-.3.1-.5-.1-.3-.2-.1-.1-.2-.2-.6-.8.3-.2-1.1-1.3v-.1c-.3-.3-.5-.7-.8-1.4h.1-.1.1l-.4-.2-.3-.3.3-.4-.3.4-.1-.1-.1-.1.3-.2-.3.2a8.2 8.2 0 01-1.5-2.5l-.2-.6.2.1.6-.1-.3-.5h-.1l-.4.4-.1-.3-.5.1-1.7-3.1-.6.2.5-.3-.5.3-.8-1.7-.1-.6-.1-.6.2-.1.3-.1-.3.1-.4-.7.7-.4-.7.4a12 12 0 01-.8-1.6l-.2.1.2-.1-.2.1v-.1l-.4-.7-.4-.7.1.1.1.1-.1-.4-.3.1c-.5-1-.6-1.6-.7-2l-.3-.2-.1-.1-.1-.1-.1-.1-.2-.3-.2-.3-.2-.2.1.1.2.1h.1l-.1-.3.3-.1-.3.1.2-.1-.1-.3-.1-.2-.5-.1h-.2v.1l-.4-.2-.2-.1-.2-.2.3-.3-.3.3-.1-.1-.1-.1-1.9-3.9-1.7-3.2-.2.1-.2-.4-.5.3c-.4-.6-.7-1-.8-1.5l-.1-.5v-.1l-.2-.4-.2-.2-.6.1c-.7-1.1-1-1.8-1.1-2.4l-.1-.9-1-1v-.1l.4-.3-.4.3-.8-1.1-.2.1-.3-.5-.3-.2.1-.1-.1.1a3 3 0 01-.8-.8l-.6-.9-.7-1.2-.3.2-.6-1-.9-1.4.3-.2-.3.2-.1-.3v-.1-.4l-.8-1.4-.3-.6.3-.4-.9-1.6-.3.2-.2-.3-.2-.1c-.2-.2-.4-.4-.4-.6l-.5-1 .5-.2a46 46 0 00-1.5-2.3l-1.3.4.9-.5.3-.1-.3.1-.9.5c-.3-.5-.5-1-.4-1.5v-.1H60l-.4-.2-.2-.2-.1-.1-.1-.2h.1-.1l-1-2-.4.2-1.2-2.1.3-.2-.3.2.3-.2-.3-.3-.1-.1-.1-.1-.1-.2.2-.1-.2.1-.2-.4-.1-.4h-.1l-.8-1.5-1.1-.2.6-.3-.1-.1-.1-.2h.1-.1L53.3 63l.1-.1-.1.1.1-.1c-.7-.9-1.2-1.8-1.6-2.6l-1.1-1.7-.2.1.1-.1-.1.1-.3-.5-.1-.4-.5-1 .4-.2v-.1l-.5.5-.5-1.1-.1-.2h-.1l-.3.2.3-.2-.3.2-.5-.6-.3-.3-.1-.1.1.1.3.1.6-.5-.4-.4-1 .6-.7-1.3-.8-.1.2-1-.3-.6-.7-1.3-.6-1.3-.1-.2-.4-.7-.1-.1-.1-.2-.2-.1-.5-.4-.4-.5-.1.1-.4-.6h-.3v-.3l-1.2-.6.6-.5-.6-.1c-.1-.4-.3-.6-.6-1.1l-.2.1.2-.1-.2.1-.6-1-.1-.4-.5-.7.4-.4-.4.4.4-.4-.1-.4v-.3-.1l-.1-.1v-.1c-.4 0-.7-.2-.8-.3l-.3-.3-.5.2-1.9-2.6-1.8-2.2-.1-.1v-.1l-.6-1.2-.7-1-.3-.3-1.6-1.5h.1l-1.7-2 .5-.4-.5.4.5-.5-.1-.2-.1-.1-.1.2-.2-.1v.2s0 .1 0 0l-.1-.3h-.1v-.1.1l-.9-.3.2-.7-.2-.3-1.3-1.5-1.5-1.8c-.4-.6-.9-1.3-1-1.9l.7-.1-.7.1.6-.2-1.2-1.5-1-1.3-.1.1-1-1.1.1-.1-.1.1c-.8-.9-1.6-2.1-2.2-3.2l-.1-.3v.7l-.8-1.4a3 3 0 01-.5-.7l-.9-1-.7-.4.2-.8.2.1-.1.1v-.1l-.4-.4c-.2-.2-.5-.5-.8-1.1l.1-.1-.2-.2h-.1l-.6-.3-.4-.3.7-.7-.7.7-.1-.1-.1-.1-.5-.9c.1-.2.1-.2-.1-.3l-.7-.5-.5-.5-.5-.4-.1.1c-.3-.3-.7-.5-1-.6h-.9l-.4-.9.4.9c-.2.2-.4.3-.5.6h-.1.1l-.2 1.1-.4.1v.2h.1-.2.1l.2.4.1.2v.2h-.1.1V9l-.1.4-.1.1.1.1-.2.2.3-.1.4 1.1.5 1.4.6 2.5.8 1.2.6.4-.3.2.7 1.7.7 1.6.1.2.2.2-.7.7.7-.7 1.1 1.2-.5.1c.4.8.5 1.4.5 1.9l.3.6c.6 1.5.9 2.8 1.2 3.9l.7 2.5.3.2.1.2.2.4.3 1.2-.4.1.4-.1-.4.2.2.6.7-.3.6 1.4v.2l.3.8-.3.1.3-.1-.3.1.1.2.2.1.2.1.3.4-.3.2.3-.2v.2l.3 1 .2-.1.4.9.3.7.3.7v.1l.3.6h.2v.5l.1.5v.2l.3.9.6 1.3-.2.1v.1h.3-.3.3c0 .6.1 1 .4 1.6l1.1 2.1h.2c.2.8.5 1.7 1 2.7l.3-.1c.1.5.5 1.1.8 1.9l.5 1.2v.1l.1.1.3.2.3.4.3.6.1.2V55.2l.1.2.1.3.2-.1-.2.1.2-.1.5.9.4.1v.4l.2-.7h.2l.1.1h.1l.3.3.3.4.1.1.1.1.3.4-.8.5.8-.5.8 1.1.6.8-.8.6.8-.6a22 22 0 012.1 3.7h.1a268.6 268.6 0 007.8 15.5l-.4.2.4-.2-.4.2.7 1.6.2-.1-.2.1.2-.1.5.8-.1.1.1-.1.1.1v.1l-.1.1.1-.1a78.8 78.8 0 001 2.8v.6l-.2.4.3.2.1.2.5.7a58.5 58.5 0 012.2 4.7l.2.1.3.2.5.5 1.6-1.6-.7 3.1.1.2-.2.1.2-.1.1.1v.1l-.4.1.4-.1.6 1.2.6-.9.4 2.1.2.4.1.2.1.2.2.6.4 1.1h.2l.1.6.2-.6.5 1.1.2-.1.2 1.1.1.3v.1l.5-.2.2 1.2-.6.1.6-.1.1.8.5.8c.7 1.1 1 2.2 1.2 3.1l.4 1.2.7-1 .4 2.6.1.8.5.4 1.6 1.8h-.6l.3.9c.2.5.3.9.6 1.3l-.1.1.1.2.2.6h.3l.3.8.1.3.2.4.5-.8.4 2.1h.2l-.1.6.2.4-.3.1v.2l.1.2.1.2.4.1.1.1h.1v.1l.2.2.2.3.2.5.1.3-.1.1.1-.1-.1.1-.1.1.1-.1c.3.4.4.8.4 1.1l1.2.3-.3.6.7.6-.7.4.1.1.3.5.2.6.3.1 1.9.4-1.2.7.2.7c.2.2.3.5.3.7l.5 1.1.2-.1.6.8.1.3.5-.8.3 2.4.2.4-.2.1.2-.1a7.1 7.1 0 011.1 2.6l.4-.1c.1.4.2.8.5 1.3l.4.8.1.3h.2l.2.7.3.7.3.2 1 .9-.3.2.1.1.4-.5v1.1l.5 1.1.5 1.1.9 1.6.1-.2.3.6.6.7-.2.2.2.6h.1l.4.4.1.1.7-.3-.2 1.7H77h.2v.2l.3.4.4.1-.1.4.5.7 1.1 1.4-.2.2.2-.2.3.3v.5h-.2.2l-.1.3v.1l.1.1.4.4c.3.3.5.5.6.8v.1l.1-.2.3-.6h.1-.1l.5-.8-.4-.3.5-.8.4.3-.4-.3 1-1.6h-.1l.2-.8-.1-.1.1.1-.1-.1.1-.2.1-.2c.6-1.8 1.5-3.4 2.5-4.8l.3.2-.3-.2 1.6-2.6-1.2.2 2.2-2.3.8-.8.6-.6v-.1c0-.3.1-.6.4-1.1l1.5-2.5.1.7.6-.6.6-.5.7-.5.3.4-.3-.4 3.1-1.7.1.2-.1-.2.1.2.4-.2a3 3 0 011.3-.3l.6-.1.4-.1.1-.3h.6l1 .1-.9-.1-.1-.1-.4-.3-.1-.2-.1-.3-.1-.3c0-.2 0-.4.2-.7.3-.3.6-.4.8-.4l.2-.2-2.2.2-.2-.8zm-7-10.7l.1.3.4-.3h-.1-.4zm-10.1-18l-.9-.5.9.5zM70.8 81.8zm-8.2-12.6zm0 0zM48.3 49.8zM26.9 18.1l-.1 1 .1-1zM16.6 5.7l-.2.3.3.4-.1-.7zM5.2 4zm2.3 15.6h.2-.2zm-.3.4l.2.1.8-.1-.3-.4-.4.1-.3.3zm12.1 29.6l.1-.1-.1.1zm6.6 44.6zm0 0zm-6.5 14.9l.4.2.2-.3c-.3-.1-.5 0-.6.1.1 0 0 0 0 0zm-1.4 6.8l.2.1v-.1H18zM2.7 175zm.1.2l.6.2.5-.2-.3-.5-.8.3-.1.1.1.1zM30.1 198c.1.1.1.1 0 0l.5-.6h-.1l-.2.3.2-.3-.2.3-.2-.1c-.1.3 0 .4 0 .4zm9.3 5.2l.2-.4-.2.4zm5.6.5zm10.5 17.1h.2-.2zm-16.3 50.3l.2.1-.2-.1zm-23.1 58.3zm29.6-67.3l.5.9-.5-.9zm11.9-28.5zm0-3zm.9-4.6zm-10.4-22.2zm-22.2-12.3c0-.1 0-.1 0 0l-.4.4h.1l.4.1v-.2l-.1-.3zM5.8 157.6l-.1-.1-.5-.1v.1l.6.1zm3.9-13.7l-.3-.1.3.1zm1-1.4l-.1-1 .1 1zm5.3-12.8l-.7-.2.7.2zm0-.1l-.1-.2c-.1-.1-.2-.3-.5-.4l-.1.3.7.3zm.3-1.5l-.4-.1.2.1c0-.1.1 0 .2 0zm10.3-61.4zm15.9 27.5l.2-.1-.2.1zm-9 50.4zm14.2-40.5l.7-.3v-.3l-.3-.7-.4 1.3zm6.1 9l-.1.1.1-.1zm2.2 5.5zm3.6 7.8l.1-.4-.1.1v.3zm2.8 4.6v.3-.3zm-.2.7l.1-.1-.1.1zm.1.1l.1-.2-.1.2.1-.2-.1.2c0-.1 0 0 0 0zm.4.1c0-.1 0-.1 0 0v-.2l-.3.1h.1l.2.1zm.9.7l.1-.1-.1.1zm2.5 5.9s-.1 0 0 0c-.1 0-.1 0 0 0zm.5.4l-.2-.3H66l.1.1.5.2zm.7 1.2h.2-.2l.2-.1-.2.1zm.9 2.3v-.1l-.1.1c0-.1 0-.1.1 0-.1 0-.1 0 0 0zm0 0l.2-.1-.2.1zm5.1 6.5l.3-.2-.3.2zm.6 1v-.1h-.2l.2.1zm1.6 3c0 .1 0 .1 0 0zm2.1 3.7l.2-.1-.2.1zm-2.4 20.1zm.2.2l.6.2-.3-.1-.3-.1zm1.2.9l.1.2-.1-.2zm5-12.7c.1 0 .1 0 0 0 .1 0 .1 0 0 0zm1.4-5.6zm12-21.4zm7.8-1.2v.1-.1c-.1-.1 0 0 0 0zm4 6.6l.1-.2-.1.2zm0 0zm.6 4zm-1.9 6.6l.4-.1-.4.1zM104 168h-.3.3zm.2 3.2zm-4.4 6.2h.2-.2zm.2.2l-.1-.1.1.1zm.5.3zm.8 12.5h-.1.1zm2.6-12.8c.2-.1.2-.3.3-.5h-.2l-.1.2-.2-.1v-.1.1h-.1v-.1h-.1l.1.1v.6h.1l.1-.6v.5l.1-.1zm1.1-.4zm2.7-6.2l.7-.4-.7.4zm.2-11.2l-.4-.3.4.3-.4-.3h-.1l-.1.5h.2c.3 0 .4-.2.4-.2zm20.7 20.4l.1-.1-.1.1zM141 201zm13 22.2c.1 0 .1 0 0 0zm6.1 11.6l.7-.4.1-.1-.2-.3-.6.3-.1.2.1.3zm0 .1l.7-.5-.7.4v.1zm0 0l.7-.4.1-.1-.1.1-.7.4zm12.2 24.3zm3.2 29.7zm-5.4 4l-.3-.2.1.7v.1l.4-.2-.2-.4zm-.8-.3zm0 0zm-2.3 2.3v.1-.1zm-.7-.1l.3.7.6-.3v-.1l-.1-.1-.5-.5-.1.1c-.1-.1-.2 0-.2.2zm-2.5-.1l.1.3.1-.3h-.2zm-21.2-36.2l-.2.1.2-.1zm-8.3-8.3zm-7.7-11.3zm-1.4-3zm-4.3-7.4l.2-.3-.2.3zm-11.3-23.3l.1-.1-.1.1zm.5 5.8c.1 0 .1 0 0 0v-.2l-.3.2h.3zm16.8 30.9zm2.6 4.6c0-.1 0-.1 0 0zm4.6 8.6l.5-.4-.5.4zm1.8.9zm16 24.6c.1 0 .1 0 0 0 .1 0 .1 0 0 0zm2.2 5.2v.1l.6-.2v-.1l-.3-.4-.1.1c-.2.1-.2.4-.2.5zm8.4 11.5zm17.7 23l.2-.4-.2.4zm7.4 5.6l-.1-.2.1.2zm3.2 1.5zm3.2.9l-.3-.4.1.2.2.2zm5.7 1.5zm.4.4l-.1.1.1-.1zm.4-.1l-.1-.2-.1.3.2-.1zm10.4 1.7v-.2h-.1l-.1.2h.2zm1.7.5zm.1.2c0-.1 0-.1 0 0 0-.1 0-.1 0 0zm0 0s.1 0 0 0c.1-.1 0-.1 0 0zm.2.1zm10.6-.9l-.1-.1h-.1l-.1.2h.1l.2-.1zm3.8-.1s-.1 0 0 0c-.1 0 0 0 0 0zm0-.1v-.2.2zm4.3-.4c0-.1 0 0 0 0zm10.4-18.4v.1-.1zm-51.8-9.2s0 .1 0 0l.2-.2-.2.2zm0-.1s0-.1 0 0c0 0-.1 0 0 0zm30.9-66.9l1.3.8.2-1.5-1-.2-.5.9zm11.5 76.4zM103.1 164.7l-.5-.1.7.3-.2-.2c0 .1 0 0 0 0zm.4.1l-.4-.1.4.1zM303.1 62.1l-.1.2.1-.2zM202.3 217.6h-.1.1zm259.5 169h.4-.4v-.4h-.5.5-.6l-.2-.2-.6-.2-.6.2-.2.3-.1.3V387.2l-.1.6-.1.6h.1-.1.1-.1l-.1.6-.1.3-.1.3h.2-.2l-.2 1.3-.3 1.2-.5 2.3 2-1.3-.5-.8.5.8.6-.7.3-.6.4-1.6.1-1.5.3.2v-.5h.3l.1-1v-.5-.4l-.3.1zM50.7 208.5l.6-.8-.6.8zm150.9 8.1zm-1.5-5.3c0 .1 0 .1 0 0zm.1-.2l-.1.1.1-.1zM25.7 304.7v.2l.1-.2h-.1zm176.1-141.6c.1 0 .1 0 0 0zm-2.8 47l-.2.1.2-.1zM59.5 226.5l-1-.2 1 .2zm264-53.8V173l-.3.7-2.2 6.4c0 .4 0 1.2-.3 2.6l-.2.9h-.2l-.1.3-.8 2.7-1-.3 1 .3c-.5 1.7-1 3.7-1.6 5.2V192.4h-.1.1v.2c-2.4 7.5-6.2 18.3-8.7 27.2l-1-.3 1 .3-.1.4-.2.1-.1.2-.4.9-1.2 3.2-1.3 3.9.3.1a5 5 0 00-.3 1.2v.6c0 .5-.2 1.1-.7 2.6h.1-.1.1c-.2.6-.3 1.1-.5 1.3l-.4.4-.4 1.2.3.3-.3.6-.8-.4.8.4-1.1 2.4c-2.5 8.5-4.9 15.6-7 23.1v.2l-.1.2-.3.3h-.1l-1.4 3.9-1.5 4.6.1.1h-.2.2c-.9 3.1-1.5 4.7-2.1 6.4l-.6-.2.6.2a195 195 0 00-2.8 7l-1-.4-1-.1.6-.1-.6.1-.1-.7-.1-.4.2-.3.2.2-.2-.2 1-2.2.3-.7-.2-.1.2.1-.2-.1.2-.7-.2-.3c-.1-.2 0-.4 0-.4l.1-.4.1-.4.7-1.9.4.1 1-3.3.7-2 .2-.6.3.1.2-.7-.1-.3v-.2-.5l.1-.7.4.1-.4-.1c.9-3.1 1.3-4.1 1.7-4.9l.9-1.9v.1l.4.4.2-.5h.1l-.3-.1-.3-.1h-.1c0-.1 0-.1 0 0h.1v-.1l-.5-.2.5.2-.5-.2 2.3-6.8-.5-.3c1.1-3.4 1.4-3.5 2.2-5.2l.2.1.7.3-.7-.3 1.8-5.4h-.2l.4-1.5.5-1.7v-.2V239.9l.1-.4-.3-.1c.6-1.9 1.1-2.6 1.5-3.4l.3-1-.1-.3v-.2-.1l.1-.2.2-.6.4-1.5v-.2.2l.1.3.3.3v-.3h.4-.4v-.2l.1-.2.1-.3-.6-.5.2-.5.3-.9-.2-.4v-.3-.2l.1-.4h.1-.1v-.2a216 216 0 012.9-8.1l2.4-7-.2-.1.2.1-.2-.1.4-1.1-.6-.2.9-2.7.3-.6.2-.4.2-.5.2-.5.2-.8-.3-.1c.7-2.5 1.2-3.5 1.6-4.3.4-.7.7-.9 1.2-2.1l.6-3 .7.1-.7-.1.7-2.5-.2-.1.2.1-.2-.1.7-2.2-.2-.1c.1-1 .5-2.4 1-3.7a71 71 0 001.1-3.6h-.3l.4-1.3.9-3.1h.1-.1l.1-.4v-.1l.2-.2.2-.2 1.2-3.6.4.1-.4-.1.2-.5.5-.2h.1l1.4-4.4-.4-.1.4.1-.4-.1.3-1.3v-.4l.2-.8.6.2-.6-.2.4-1.3.5.4.1-.2.8.3h.1l-1-.3a147 147 0 001.7-6.3l-1.2-.5c.3-1 .6-1.7.9-2l.4-.4h.1l.3-1.3-.3-.5v-.3-.5h.1-.1l1.4-4.5v-.2l-.4-.1 1.1-4.6.4.1v-.1l.1-.9v-.4-.1h.3-.3v-.2l.3-1.3.1-.2.1-.2-.2-.1.9-4.1.2-.7h-.1.1-.1v-.6h.1-.1l.6-3.2h.1-.1.1c.2-2.1.6-4 .9-5.8l.4-2.6.1-1.5h-.2.2-.2l.2-1.5.3-2.1s0-.1 0 0v-.1l1 .1-.9.1.1.1c.1.1.3.3.8.3l.1-.6v-.2l-1.1-.1.3-2.4.1-.9h-.5v-1.4l-.1-1.5c0-.1 0-.1 0 0v.1l.1.2.5.3h.4l-.1-.5-1.1-.1h.8-.8l.1-1.2.1-2.4v-.1l-.1-.1h.1-.1l-.3-.5.2-.5.1-.3v-4.8h1-1l-.1-2.6v-.7h-.1.1-.1l-.2-1.7v-.2l-.2-.9v-.1c-.2-.1-.3-.3-.3-.4l-.2-.6-.3-1.2h-.1l-.2-.9-.2-.7-.1-.4-.3-.3-.6-1 .4-.2-.1-.4-.1-.3-.4.1.4-.1-.4.1-.4-1.7-.3-1-.2.1-.6-1.8-.1-.5v-.2l-.1-.2-.9-1.9.6-.3-.6.3.6-.3v-.2-.2l-.3-.9-.4-.9-.2-.1.1-.1-.1.1-.5-.3-.3-.4-.2-.3-.5.2.5-.3-.5.3-.7-1.3-.9-1.3.2-.2-.2.2-2-2.6-.5-.6-.5-.6.4-.4-.4.4-1-1.1.6-.5-.6.5-.8-.9.7-.7-.7.7-.6-.7-.1-.1-.1-.1-.6-.8a11 11 0 01-1-1.1l-1.1-1.1-.9-.8-.1-.1-.5-.3-2.4-1.7-.1.1v-.1.1l-2.5-1.6.2-.3-.2.3a60 60 0 00-2.6-1.5l.1-.2.1-.2-.2.2-.6-.5.2-.3-.2.3-.3-.2-.1-.1-.7-.1-.5-.1-.2-.4-.3-.2-1.1-.6-1.7-.7.3-.8v-.1l-.4.9-.9-.4-1-.3-1.1-.3-1-.3-2.1-.6.1-.3-.1.3.1-.3-.1.3-.9-.3-.9-.2-1.5-.6.3-.6-.3.6.2-.6-4.1-.6-3.8-.2.1.1-2.2.2V55v.2l-7.2.6-1.3.2c-.4.3-.9.4-1.3.6l-.8.2-.8.2v-.1.1c-1.1.3-2.2.6-3 1.1l-.3-.4.3.4-.4.2-.4-.1a.8.8 0 01-.4-.2l-.3.1-.7.3-.5-.9.5.9-.9.5-.9.4-1.4.6-.1-.2.1.2-.1-.2-.2.1-1.1.6-.2.3-.5.4a2 2 0 00-.6.4h-.2l-.4-.9.4.9-1.3.6-.8.4-.8.6-.7-.7.5.6-.5-.6.7.7c-.6.5-1.3 1.1-3.5 2.5v.1l-.1-.1.1.1c-1.9 1.2-4 2.9-6 4.8l-.7-.7.1.1.6.6-5.7 5.8-.3-.3.3.3-.3-.2-1.1 1.1.2.1-.5.7-.1.1-.1.1-1.3 1.2-.7.6-.2.1h-.6v.2l-.1.2-.5.7-.3-.2.3.2-3.5 3.9a60.5 60.5 0 01-3.8 3.7 76.5 76.5 0 01-4.6 5.9l-2.3 2.7-.6.8v.2l-.1.2-.7 1.3-.3-.4-.2.2.1.1-.1-.1.1.1a14.7 14.7 0 01-3 3.3l-1 .9.2.2a87.5 87.5 0 01-5.1 5.9c-1.2 1.4-2.5 2.8-3.8 4.5v.1l-.1.4-.1.1-.4.5-1.5 1.8-.4-.3-1 1.3.6.4-.6-.4.6.4-1.5 2.1-1 1.2-.5.6-.3-.2.3.2-.3-.2-.6.9v.4l-.1.2-.3.5-.1-.1.1.1-1.4 1.6.2.1-1 1.4-1.7 2.6c-.4.6-.8 1.2-1.3 1.6l-.1.2v.1l.2.1-.4.6-.3.2c-.9 1.1-2.1 3-2.9 4.4l.1.1c-1.1 1-1.7 2-2.4 3.2l-2.2 3.8.1.1-.2-.1.2.1c-.8 1.2-2.1 2.8-3.2 4.8l.3.2-.3-.2.3.2c-.7.9-1.4 2.3-2.3 3.8l-1.7 2.8v.4l-.1.3-.9 1.7-.9-.5.8.6-1.1 1.6.2.1a20.2 20.2 0 01-2 3.5l.3.2-3 5.1-2.9 5.2-.2.3-.3.1c-.1.1-.4.2-.7.1-.2 0-.3-.1-.5-.3l-.2-.3-.1-.4v-.2-.2-.1.1l.1.4.3.3.5.2h.3l-.2-.3h-.1l-.8-.5v-.1l-.4-.3.1-.1-.4-.2 1-1.9h-.1.1-.1l.2-.3v-.1-.2-.2l.1-.2.1-.4.3-.7-.4-.2 1.2-2 .2.1-.2-.1.5-.7-.3-.2.8-1.4-.1-.2.1-.5.1-.4.6-1.2c.3-.6.7-1.1.9-1.7l.9.5-.9-.5.8-1.5.9.5h-.1l-.8-.4 1.3-2.7.9.4h-.1l-.8-.4 1-2.3.9.4-.9-.4 1.1-2.1.8-1.3.2-.4.3-.3.2-.1.4-.1.1-.3.1-.5.5-1 .9.5-.9-.5.1-.1.1-.1 1-.9.2-.3-.5-.5.5.4-.5-.4 1.2-1.7v-.1-.2-.1l.1-.1.1-.2.3-.6h.1-.1l1.7-2.5.8.6-.8-.6 1.4-2.1 2.2-3.5.8.5-.8-.5c1.3-2 2.5-4.1 4.6-7l-.1-.1 1.1-1.5-.1-.1 1.2-1.6 2.2-2.9 2.6-3.5 1-1.3-.2-.2 2.7-3.1-.2-.3a37 37 0 002.9-3.4l2-2.6.7.6-.8-.6 1.4-1.7-.2-.1.8-.9 1.1-1.3-.1-.1.1.1-.1-.1 1.4-1.6.7.7-.7-.7 1.5-1.6.9-1-.1-.1h.2-.2l-.1-.5.3-.3 5.3-5.7.1-.2.3-.4.4-.6h-.1l.1-.1-.1-.1.5-.5.5-.4.9-1.1 3-3.5 3-3.3.4.4.4.3-.7-.7 6.1-6.3c4.1-4.1 8.3-8 12.9-12.2v-.1c2-1.4 4.1-2.7 6.3-3.9l1.2-1 .8-.6.5-.4.2.2-.2-.2.7-.4.5.9.1.1-.1-.1-.5-.9.7.9.6-.3-.2-.3c-.3-.4-.7-.3-.8-.3-.2 0-.3.1-.2 0l.1-.1 1.5-.7c.6-.3 1.3-.7 2-.9l.9-.4-.1-.3 2.4-1.1 2.4-.9c1.6-.5 3.2-1 4.9-1.3l1.2-.3.1.4-.1-.4 1.2-.2.1.4-.1-.3 1.3-.2 1.3-.2.7-.1v.2-.2l.7-.1 1.4-.2 1.4-.1 1.5-.1v.2c1.5-.1 3.1 0 4.6.1l-.1.7.1-.7 3.1.3 1 .1h.3l.3-.1h.3l.7.1.4.1.4.1 1.4.4-.1.4.1-.4 1.5.4 1.4.5 1.4.5v.1-.1l1.5.6 1.2.4.2-.4-.2.5.2-.5.5.2 2.6 1.1-.1.3.1-.3.5.2-.1.3.1-.3.5.2-.2.3.2-.3.7.4-.1.3.2-.3-.2.4.2-.4 1.2.8.2.2c.1 0 .2.1.2.3l1.7 1.1.5.3.6.4 1.2.8 1.2.8 1.2.9-.6.8.6-.8 1.2 1-.7.8.7-.8.8.7h.9l.2.1.2.1-.2.3.2-.3-.2.3.2-.3c.3.2.9.6 1.6 1.3l1 1-.1.1.1-.1 1.1 1.1 1.7 1.8-.1.1 1.9.5-.1.1.1.2-.7.7.7-.7.4.5-.8.6.8-.6.4.5.1-.1-.1.1.1-.1 1 1.1.8 1.1-.8.6.8-.6 1.1 1.8-.9.5.9-.5.9 1.5-.8.6.8-.6 1.2 1.4.2.2v.3l-1 .1 1-.1.1.6.8 1.2-.8.6.9-.5.9 1.5.4.6-.2.3.1.2.6 1.5-.9.4.9-.4.7 1.7-.9.3.9-.3.2.8v.1l.1.1.1.1.1.1.1.2v.1l.1.2 1 2.9.4 1.7.4 1.6-1 .2 1-.2.6 2.8.2 1v.1h.1-.1.1l.3.6.3.7-.3.3c.3 2.5.7 5.2.8 7.5l.3.2v.6h-1 1v1.7h.1l.1 1.2-.1.9v1.7h-.1.1l-.1 1.7-.1 3.3h-.3.3l-.2 3.2-1-.1 1 .1v.4h.3c0 2-.4 4.7-.8 7.4l-.4-.1.4.1-.7 4.3h-.2.2l-.6 4h.1-.1.1l-.4 1.7h.2l-.2 1.2-.4 2.1-.4 2.2-.9-.2h-.1l1 .2-.4 2.2-1-.2 1 .2-.5 2.1c-.5 2.3-1.1 4.4-1.7 5.8l.4.1-2.6 9.1c-1.1 3.2-2 6.4-2.9 9.4zm-106-80.4l-.4-.5v.1l.4.4zm85.8 142.6zm27.7-94.6l.3-.2.1-.1-.5-.1v.5l.1-.1zm-22.2-75.7l.3-.3-.3.3zm20.4 22.6l-.2.1.2-.1zm.1 0zm.2 10.3l.3-.8-.3.8zm3.4 9zm-76.7-46.6l-.1.1.1-.1zm-38.8 32.2l.2.2-.2-.2zm-42.5 65.2zm-9 17.5l.4.3-.4-.3zm98.2-117.1l.1.2-.1-.2zm20.2-3.3zm12.6 3.9zm12 6.3l.2-.1.1-.1-.1-.1-.2.3zm.4.9l.5-.5-.5.5zm21.4 42.8h-.4l-.3.1.5.2h.1l.1-.3zm-1 .3h.2-.2zm.8 16.7zm-12.9 67.1l-.6-.1.6.1zm15-95.4l-.6.3h-.1.1l.6-.3zm-.1 0l-.2-.1-.5.1v.2l.7-.2zm-2.2-6.9zm-3.2-8.6l.8.6-.8-.6zm-6.3-11l-.5.5h-.1.1l.5-.5zm-.9.2l.2.2.7-.4c-.2-.1-.6-.1-.9.2zm-.4-1.2l-.3.3.1-.1.2-.2zm0 0l-.2.2-.1.1.1-.1.2-.2zm-11.3-8.6zm-45.3-6.5zm-7.6 3.5zm-33.1 28.5l.1.1-.1-.1zm-30.7 39.1c0 .1 0 .1 0 0zm-8.8 13.9zM166 175.2c0-.1 0-.1 0 0l.2-.1-.4-.2.2.3zm30.2-50.2c0-.1 0-.1 0 0zm23.6-30.8c-.1 0-.1 0 0 0zM231.9 81c-.1-.1-.1-.1 0 0zm26.3-21.3l-.3-.8-.3.2c.1.5.4.6.6.6zm.2.1l-.5-.8h-.1l.4.8h.2zm.1 0l-.3-.7.3.7zm1-1.3zm2.6-1.1v-.1.1zm38.9 3.3l-.5.3.5-.3zm2.1 1.4l.1-.2-.3-.2.1.5v.1l.1-.2zm.1 0zm4.9 3.4l.3-.4-.3.4zm0 0h.8l-.4-.4-.4.4zm5.7 3.3zm12.6 76.8l.3.1v-.2c-.2-.1-.3 0-.3.1zm-.1 0l.7.3v-.1l-.4-.1.4.1-.4-.1-.3-.1zm-2.6 9.4l.4.2-.4-.2zm0 .1zm-7 25.1l.2.1-.2-.1zm-14.2 48.2l.3.1-.3-.1zm.3 7.9zm14.9-43.9zM2.7 175zm260.7-33.2zM71.7 177.4l.2-.2-.2.2zM24.2 59.7l-.3-.1.3.1zm-.1 0l.7.2-.7-.2zm-.9 1.9l1 .1-1-.1zm269.7 199.2l.1.2.1-.2h-.2zM257 102.5v.1-.1zm-63.2 95.4l1.8-.7v-.1l.3-.1-.3.1-.2-1-.1-.3.1-.1c0-.4.2-.8.6-1.1l.2-.2-.2-.7-.1-.1v-.2-1l-.6.3.6-1.4v-.1l-1.3-1.1 1.5-.4v-.1l-.2-.4-.9.5.8-2.4h.1-.1v-1a8 8 0 01-.2-1.7v-.1l-.1-.1.1-.2.1-1.9.4.4.2-.6.3-.6-2.2-1.7 2.1.2v-.2l-1.8-2.1 1.9.4.2-.2a4 4 0 01.7-1.7l.1-.3-.1-.3.1-.6.2-.4h-.2v-.4l.1-.3.2-.3v-.2l.1-.2.1-.2h-.1.1-.1l.1-.4v-.1-.1l-.9-.3-1.2-.3 2.3-.7.1-.1v-.1-.1-.1l.7.1-.2-.3-1.5.4 1.4-2.1.1-.1.1-.1.1-.2v-.2h.2l.1-.2-.2-.2h-.1v-.1l-.1-.1.1.1-.1-.1c-.1.1-.1.1 0 0l.1-.4v-.7-.1l-1.1.2 1.3-2 1.2-1.9.8.5-.8-.5.4-.6.6.1.3.1 1.5-.5-.5 1.6.2.2.3.4.1.3V164.6l-.2-.3h-.1.1-.1.1l-.1.2v.1l-.1.2.4.2h.1l.3.2v.1l.2.5v.8l-.1.2-.6-.4.6.4c-.1.1-.1.2 0 .4l.1.2.1.3v.7l2.2-.1-2.7 1.8V170.4l-.1.1-.5-.5.4.2c-.3.6-.3.9-.4 1.3l1.1-.3-1 1.7-.2.6-.1-.1.1.1-.2.4-.2.5-.3 1.1.2.1-.3.4.5-.4-.3 1.2h.2l-.5.9-.1.4h-.1.1l.5.1-.5 1.1-.4.7v.8h-.1.1v.9l-.2.9h-.2.2l-.2.8-.2.7-.3 1.1 1.1-.6-1 2.5-.4-.2.4.2-.3.7.3.6.7 2.3-.5-.3-.1.8v1.5h-.2v.8l.2.1v.8h-.1.1V195l.7-.6-.4 2.2.2.1-.3.6.1.5h-.3l-.1.2v.4l.4.2.1.1h.1v.1l.1.3.1.3.1.5V200.2l-.2.1c.2.4.2.9.1 1.1l1.1.6-.8.6.6.8-.8.2v.1l.1.6v.6l2 .9-1.3.5v.8l.2.6.3 1.3.2-.1-.2.2.2-.2.4.8v.2l.6-.8v2.6l.2.3.7 1.5.2 1.1h.4l-.4.1.4-.1.4 1.3-.3.1.3-.1.3.7-.4.2.4-.2.2.4h.1l.1.5.4.7.3.2-.1.2.1-.2 1 .8.1-.1.1.9.1.1.7 1.1.1-.9 1.3 3.1.2.2v-.2l.4.7.7.6-.2.2.3.5h.1l.5.3.1.1.6-.5.2 1.7v.2l.4.3h.4v.4l.6.6 1.5 1.1.4.2.1.4v.2l.1.1.5.3c.6.3 1 .7 1.2 1.1l.3.4.3.3h2.2l-.8.6.2.1-.1.2.5.3-.2.2.5.4c.2.2.5.6.4 1.2l-1-.2-.5.9-1-.7-.1.1-.2-.3-.1-.1v.3l-.8-.6-.1.7-.3-.4-.4.3-.1-1h-.5l-.3-.1-.2-.2-.2-.2c-.1-.1 0 0 0 0l.1-.1.1-.2.1-.2-.1.1-.1-.1h-.1l-.2-.2-.1-.1-.1-.1-.2-.2h-.1l-.1.5-1.2-1.4-.1.7-1.4-1.5-.4-.6-1.3-1.6.2-.2-.2.2-.3-.6-.2-.1h-.3l-.3-.1.3-1-.3 1-.3-.1-.2-.3-.5-.8-.1.2-.2-.4-.3-.2v.3l-.7-.8-.2-.2-.6-.7-.2-.2-.4-.7-.3-.2h.2v-.1l-.7-1-.7-.4-.2-.3-.3.2-.6-.9.2-.2.2-.1-.2.1-.1-.1-.1.1h.1l-.2.2-.3-.5-.1-.1v-.1l.3-.1-.3.1-.1-.4.1-.4-.1-.2.3-.1-.3.1-.2-.6-.1-.1-.2-.2v-.1l-.7 1.6-.7-2.9.4-.1.1.1.5.3h.1l-.3-.4h-.2.2-.2-.1-.1l.1.1-.4.1v-.4l-.3-.2v-.5-.2l-.4.6-.3-1.4-.1-.3-.2-.7h.1-.1v-.2l-.3-.1-.1-.6-.1-.6h.1c-.2-.3-.2-.7-.2-.9l-.3-.5-.1-.2h-.1v-.2l-.1-.2v-.5l-.2-.1-.2-.2h-.1.1-.1l-.1-.2-2 1.3.8-1.7h-1.5l2.2-1.7v-.2-.3l.1-.4-.2-.2-.7 1.5-.2-1.5-1 .1.7-.7-1.7-.6 1.8-.5.1-1 .3-.4v-.1l-.1-.3-.5-.1-.2-.9-.2-.6-.2-.6v-.1-.2l.1-.2-.2-.7-.8-1.2h.4l-.1-.3-1.4-.7zm2.1 0l.1-.2-.1.2c0-.1 0-.1 0 0 0-.1 0-.1 0 0zm6.2-34.6l.2.1.3.1-.3-.1-.2-.1zm1.4 2l-.1.1.1.1v-.2zm7 58.4l-.4.1.2.2.3-.2-.1-.1zm-10.3-12.3v-.2l-.1.1.1-.1v-.1h-.1l.1-.1-.1.1h-.1l-.2.2.1-.1-.1.1h.1l-.2.4.2-.4.3.1c-.1 0 0 0 0 0zm-1.6-3.5zm1.9-6.9zm2-32.4zm0 .2zm-2.2 42.1zm0 0zm0 0zm.2.1c0 .1 0 0 0 0zm-.2.1h.3-.3zm-.6-21.3l-.2-.3.2.3zm-1.1-15zm.1 33.6zm1.5 2.4l.1.1-.1-.1zm4.3 2.3l-.3-.1.3.1h-.4l-.1.1.2.3.3-.4zm-2.5-7zm-1.7-25.7zm2.6-12.4l.3.1-.3-.1.2.1-.2-.1zm-1.1-4.8v-.1h-.1-.1.1l.1.1zm-.1-.2zm-3.1 7.8zm0 4c0 .1 0 .1 0 0zm-.3 33.4l.4.2-.4-.2zm1.8 2.7h.2-.2zm-.4.8c.1 0 .1 0 0 0 .1 0 .1 0 0 0zm2.2 4.4l-.3.2.3-.2zm.1.4zm2.8 5.2zm6.3 6h.1v-.1l-.1.1zm2.7 3.5c.1-.1.1-.1 0 0 0-.1 0 0 0 0zm-12.6-29.8h-.3l.1.1.2-.1zm.1-.1zm-.5-21.2h.1l.2-.1-.3-.2-.1.3h.1zm.6-.7h-.5.5l-.6.1v.1l.4.3.1-.1.1-.4zm1-6zm-.5-10.3h.1-.1l-.1-.1.1.1-.1-.1.1.1c-.1.1-.1 0 0 0-.1 0 0 0 0 0l.2.1-.2-.1zm.4.1l-.3-.2.3.2zm-6.1 37.8h.1l-.1-.2v.2zm.9 3.2h.2-.2l.2-.4-.1.1-.1.3zm1.7 6.1l.1-.1.1-.1-.2.2.2-.2-.2.1c-.1 0-.1 0 0 .1-.1-.1 0 0 0 0zm.1 0l.3-.1-.3.1zm.2.1s.1 0 0 0c.1 0 .1 0 0 0v-.2l-.3.1.3.1zm2.4 6.2h.1-.1l.4-.1-.4.1zm1.4 1l.4.2-.4-.2zm.7 1.8l.1-.1v-.1l-.1.2.1-.2-.1.2c-.1-.1-.1-.1 0 0zm.6 1.6h.1-.1zm0 .2c.1-.1.1-.1 0-.1v.1c0-.1 0 0 0 0zm.1 0h-.1v.1l.1-.1zm7.1 7.4v-.1l-.2.1c.1-.1.2-.1.2 0zm2.5 2.6v-.1.1c-.1 0 0 0 0 0zm.1 0c-.1 0-.1 0 0 0-.1 0-.1 0 0 0zm3.1 3l.1-.1-.1.1zm.5.3zm-1.1-4.8c-.1 0-.1 0 0 0-.1 0-.1 0 0 0zm-3.7-3.9l-.3.2.3-.2zm-4.1-6.1l-.1.1.1-.1zm-3.8-5.4zm-4.6-19.5zm-.2-1l-.1.6.1-.6zm.2-8.1h-.3.3zm1.1-4.6zm1.3-7.6l-.2-.1.2.1zm.3-3.5l-.4-.2.4.2zm-.2-6.8l-.1.2.2-.1-.1-.1zm-.1-.1l-.6-.2-.3.1.2.1c.1 0 .3-.1.4 0h.3zm-3.3 4.6l-.2-.2.2.2zm-.4 2.5l.2.1-.2-.1zM24.2 59.7l.2.1-.2-.1zm242.7 44.8zm-3.4 37.2c.1.1.1 0 0 0 .1 0 0 0 0 0zM204.1 15.6l-.4.9.4-.9zm-92.2 194.1zM327.1 79.6l-.9.5.9-.5zm-215.2 130c-.1 0-.1 0 0 0zm155.2-105.2l-.1.1.1-.1zm3.5 9.4l-.3-.3.3.3zM167 294.9l-.5-.5.5.5zm196.2-105.2l.2.3-.2-.3zm38.4-90.1l-.2.6.2-.6zm-1.9-3l.3-.9-.3.9zM48.3 93.5zm351.6 2.1c0 .1 0 .1 0 0-.1 0-.1 0 0 0-.1 0-.1 0 0 0l-.2 1 .2-1zM204.4 78.9l-.9-.3.9.3zM183.5 309c0-.1 0-.1 0 0 0-.1 0 0 0 0zm32.6-173.4l1.3-2-.2-.3v-.1l-.1-.1h.1-.1v-.1-.3-.3l.1-.3.1-.2v.2l.1.3v.1l.2-.3-.6-.6.1-.1.2-.2-.1-.8.2-.5.1-.2.1-.1.5.5-.5-.5c.3-.3.4-.6.5-1l.1-.3.1-.4.4-.9.8.6-.8-.6-1.7-.3 2.9-1.3v-.1l.1-.2.1-.2v-.1l.1-.1h-.1l1.4-1.7.2-.3h-1.1l1.8-1.5.6-.6.1.1-.1-.1.4-.4.6-.6.7-.7.4.3-.4-.3.4-.4-.1-.2 1-.7.1.1v-.3l-.9.2 1.4-1.4-.1-.1.7-.5.4-.4.6-.5-.2-.5.7-.5 1.3-.9h-.1l.6-.7v-.1.1-.1l.1-.1.1-.1a14 14 0 011.8-1.7l.9-.7.1.2-.1-.2.9-.6.2.2-.2-.2a25 25 0 001.7-1.2l.4.4-.4-.4.2-.2-1.2-.2 2.8-1.3.2.4-.2-.4.8-.4.6-.2.5-.8 1.9-2v.6c.5-.4 1.1-.6 1.6-.9.8-.4 1.5-.7 2.2-1.2l.1.2-.1-.2.1.1.2-.2.9-.4.4.9-.4-.9.2-.1.2-.1v-.3l.7-.2h.1l-.1-.1 1.5-.6-.8-.4 3.1-.5h.2l.4-.1.1.1h.2l.2.1.7-.2.8-.2.4-.6.5-.2.4-.1 1.5-.3.1.2.2-.1 1.1-.1v.4-.4l.7.1h.1l.8-.7.4.6.2-.1 1.1-.3.1.6.4.1h.5l.9.1-.1.4.1-.4.9.3-.2.4.2-.4.5.2h.1l1.6-.5-.2 1.1.4.2.4.2.2-.3.7.6-.2.2.2-.2.2.2v-.1l.6.5c.8.8 1.4 1.4 1.9 2.2l.3-.2c.3.2.6.6.8 1l-.2.1.2-.1.5 1.2.1.2.7-1.1.1 2.9.3.9c.2.8.4 1.7.4 2.6 0 .5 0 1.2-.2 1.7l.4.1-.2 2.3-.2 2.2.1.1-.1.5v.1l-.3 1.6.1.5.1 1.2h-.3l-.1.9v.2l.3-.1-.3.4v.2a29 29 0 01-.9 3.4l-.7 2.9.3-.2-.4 1-.1.6h-.2l-.6 1.5.1.3v.5l-.1.4v.1l.4.2-1 1-.3.3-.3 1.2v.1h-.1l-.5 1.5-.8 2.7-.1.3-.2.2-.4.2-.3.5-.2.9h-.1.1c-.2.9-.5 1.4-.9 1.8l-.3-.2.3.2c-.3.4-.6.7-.9 1.4l.1 2.1-.4-.5-.4.6-.2-.1-.3.6-.2-.2-.1.2-.5.8-.4.4c-.2.1-.4.3-.8.3h-1.6l.7-1.5 1.1-2-.2.1.6-1.4-.6.1.4-.5-.2-.2.6-.3.3-.3-.1-.1v-.6l.1-.2.1-.2.2-.2c.1-.1 0-.1 0 0l.2.1-.2-.1.2.1h.1-.1.1l.1-.2h-.1l.3-.6v-.1l.1-.1.2-.3v-.1-.2l-.4.1 1.1-2.1-.6.2.9-2.2.7-1.1.1-.1-.1.1.9-2.3.3.1-.3-.1.5-.8v-.2-.1l.1-.2v-.1.2l.1.2.1-.4h.2l-.2-.1-.3-.3-.1-.2-.1-.3v-.2l.1-.2.4.2-.4-.2.6-1.3h-.1l.4-1.3-.3.3.2-1.6h-.1.1-.1c0-.4.1-.7.3-1l.1-.5h.3-.3c.1-.4.1-.7.3-1l.6-.7.1-.1v-.4h.3-.3v-.5l-.2-.3v-.1c-.2-.3-.2-.6-.2-.9l.1-.7v-.1h-.3l.1-1h.3-.3l.1-.8h.3-.3v-.2l.3.1-.3-.1.2-.3.3-.3.1-.4.2-.7h.3l-.3-.3-.2-.6v-.1l-1.2 1.2.7-3.3.2-.6v-.1l-.2-.4.1-.4.1-.3-.3.4v-.8h-.1v-1h.1v-.9h.1-.1v-.5l-.3-.2-.1-.5v-.3l-.1-.3h.1l-.2-.6-.2-.8-.1-.3-.2-.1-.1.1-.1-.1-.3-.7-.1-.2h-.1l-.5-.1-.1-.1v-.1l.2-.3-.3.3.5-.6-.5.6.5-.8h-.1l-.4.4-.1-.1.1.1-2.1 1.3.5-2-1.7-.4-.2.5-.3-.6-1.3 1.1.2-1.3h-.1l.1-.2-.1.2c-.3-.1-.6-.1-.8-.4l-.3-.4-.2-.2-.4.2-.1.5v-.5.5h-.5l-.7.1-.7.2-.7.1h-.2l-.2-.1v-.2h-.1l.1-.3-.1.3v.1h-.1-.2l-.8.4-1.2.8v-.3l-.5.2-.1-.2.1.2-.1-.2-.5 1.6-.9-1.2-.4.2-1.1.6h-.1l-.1.1c-.4.1-.9.2-1.5 0l.2-.5-.2.5-.4-.2-.2.1-.9.6c-.4.3-.9.5-1.4.6l.5.2-1.4.4-.4.2-.1.1-.4 1.3-.9-.8-.4.3-.1.2-.3.3-.2-.2.2.2.8.2-2.5 1.2-.1-.1.1.1c-.4.2-.7.5-1.2 1l-.7.7-.7.8-.3.3-1.8 1.7.1-.7-.7.5-.9.5-.1.3.2 1.9-1-.9-.2.2-.3.3-.1.1-.1 2.4-.9-1-.1.1-.4.2v.1c-.6.8-1.3 1.1-1.8 1.4l-.6.4-.1.4-.3.4-.6.4.2.2-.3.4-.2.2-.3.2-.2.2-.1-.1-.1.2-.1.2-.1.1-.3.3.1.1-.1-.1.1.1-.3.4-.2.3-.2.3.5.5.5.4h-1.5l-.4.2-.1.1-.3.6-.5-.3.2.4-.3-.3.3.3-.1.1h1.4l-2.2 1.9.3 1.2.1.1c-.5.4-.7.5-.8.9l-.2-.1.2.4-.1.2-.3.5-.1.2-.1.3-.2.5-.1.1 1.1-.1-1.9 1.9-2.1 2.1-.4.4-.6-.2-.3-.2-2.1.6zm1.4-1.9l.6.4-.2-.2h-.1l-.3-.2zm13.5-20.1l.1.1-.1-.1zm28.1-16.2l.6.8.1-.1-.1.1-.6-.8zm11.3 33.6l.3.1-.3-.1zm-2.6 7.7l-.2.2h-.1.1-.1l.3.1h-.4.4v-.1c.1-.1.1-.2 0-.2zm.7-33zm-2.9-2.6h-.1.1zm3 2.1v-.1.1zm-25.9 1.6zm26.1-2zm-3.8-3.2zm.1 0zm3 2.1zm2 8zm.8 3.3zm-42.6 5.7zm14.3-13.9h.1-.1zm.3.1zm22.6-4h.2-.2zm0 .2l.4-.1.3-.1-.3.1-.3-.1.3.1-.4.1zm3.3 1.7zm-.6 26.3l-.2.1.1.1.1-.2zm-2.3 5.2zm5.5-9.1l-.1-.1h-.3l.4.1zm1.7-18.7h-.2v.1l.2-.1zm.3-.4l-.4-.1.4.1h-.4l.2.4.2-.4zm-20.2-5.1zm7.9-1c0 .1 0 .1 0 0zm6.3 2.3c.1 0 .1 0 0 0zm1.9 1c0-.1 0-.1 0 0zm.3 6.5l.4.1-.4-.1zm.4 4.1h.4-.4zm-2.1 15.3l.1.1-.1-.1zm-2 5.1zm5.3-9.3l.3.1-.3-.4-.2-.1-.1.2h.1l.2.2h-.3v.1l.3-.1c.1 0 .1 0 0 0zm-3.9-26.4zm-.2-.6zm-2.2-1.3l.2.6-.2-.6zm-7.1-.8l-.1-.2v.3l.1-.1zm-27.1 16l.4-.2-.4.2zm-11.2 13.7zm-1.8 3.5zm7-5.3zm14.7-15.8zm3-2.4zm10-4l.2-.1-.2.1zm.9 0c.1 0 .1 0 0 0zm4.1-.9zm3.7-.6l-.3-.3.1.1.2.2zm4.2 1.1v-.2l-.3-.3.2-.2-.2.2-.5-.5-.2.1 1 .9zm1.6.7zm.1.6c0 .1 0 .1 0 0 0 .1 0 .1 0 0l.2-.2-.2.1v.1zm0 .1s.1 0 0 0l.2-.3-.1.1.1-.1-.2.3zm.1 0zm.3-.1c.1-.1 0-.1 0-.2l-.3.2h.3zm1.1 1l-.1.2.1-.2zm-.1.2zm.1 0zm1.8 7.7l-.5-.1.2.3.5.3h.1v-.2l.2.2-.2-.2v-.3h-.3l-.2-.3-.3-.2v.4l.5.1zm-.1 2.9l.1-.3-.4-.1v.1l.1.2.2.1zm-.6 2l.2.1-.2-.1zm-.2 0h.4-.4zm-.2.3h.1v-.2l-.1.2zm0 .3zm-1.2 11.5zm-3.4 9.6l.2.1-.2-.1zm-1 1.8zm-.4-.1zm7.9-13zm-3.5-28.4c-.1.1-.1.1 0 0zm-4.3-1.9l-.1.4.1-.4zm-33.9 15.7l.5.4-.5-.4.6.4.4-.2-.2-.2-.3-.1-.3.1h-.2zm-3.4 3.5zm-2.8 3.5l.4.3-.4-.3zm-2.8 4l.3.3-.3-.3zm-2.7 6zm-.3 2.2l.2.1-.2-.1zm0 .2l-.1-.2.1.2zm-17.3 196.8zm0 0zM82.5 105.5zm100.9 203.6zm91.1-86.8l-.1.2.3.1-.1.3.1-.3-.1.3.1-.3.5.3.5.2.6.2.2-.2.6.2.9.3h.1l3.1-.4h.8l.2.1h.1l.3-.1.3-.2.4-.2.4-.2h.1v-.3l.1-.3.3-.4.3-.3.1.1-.1-.1.6-.6.1.1-.1-.1.4-.5.2.1-.2-.1.2.1.1-.2h.1-.1l.6-.9.5-.5.2-.2v-.1l-.1-.9.6-.1.1-.4 1 .2-1-.2.2-1 .5.1.3-.6v-.1-.1-.1l.3-1 .6.2-.6-.2.6.2-.6-.2.4-1.1.3-.8-.1-.2-.4-1.3h.8l.2-.7.1-.7-.3-.1.3-.9 1 .3-1-.3.1-.4h-.1.1-.1l.2-.9.6-3.5h-.3.3-.3c0-.9.2-1.9.4-2.9v-.1l-.6.7.9-3.5v-1.1h.2-.2l.2-3.3.4-2.2-.4-.1c.4-1.9.5-4.4.6-6.7v-.1l.1-.3v-.2l.2-2.6-.2-.8-.1-1.1h.2v-.5-1.4l.1-.6-.1.1.1-.2v-.2h.1-.1c.2-3 .8-7.2.7-10.6v-.7l.4-.2v-.1l.2-1.1.2-1.5-.3-.1v-.1-.1c-.2-.4-.2-.8-.1-1.4v-.3-.1l.1-.2-.3-.1.4-1 .6.2-.6-.2.3-.8.1-4.5v-4.5l.1-.2.3-.4.2-1.2.1-1.6h-.1.1-.1a7 7 0 01.2-2.7l.4-2.6h.1-.1.1l-.6-2.3.3.2.2-1.3h.3v-.6l.2.1v-.8l.1-1.2.1-.6c.1-.2.2-.5.5-.7l1.7-1.2-.1 2.1a28 28 0 01-.3 4v.4l-.1.2-.2.3c-.1.1-.4.4-.9.4h-.1l.5.3-.5.7.5-.7.3.2-.3.4.3-.4.4.2.5-.5-.1.7h.1l-.1.2-.2 1.2.3.3.1.4v.4l-.1.4v.3h-.4V145l-.1.6v.1l-.1.4.1.1.1.3-.5.1.5-.1v.2l.3-.3-.4 3.3h-.3.3v.2l.6-.8-.3 3.2-.3 1.5-.2.4-.2.4-.2-.1.2.1-.2-.1-.1.8.6-.7-.3 3.2h-.3.3l-.4 1.4.1.1.1.2V160.4l-.1-.2-.1.4h-.2v.2l.5.2.3.3.1.2.1.3-.4.1.4-.1v.4l-.5 3 .2-.2-.3 3.2h-.2.2v.2h.6-.6.6c0 .6 0 1-.2 1.4l-.2.4v.4l.3.1a4 4 0 01-.5 2.2l-.4.4.2.9V175.4h.2v.3l.1.1c.2.4.2.7.2 1v.9l-.1.7h.4v2.3h-.3.3v.2l-.1.3-.1.2-.2.3-.1 1-.1.7-.4.1-.1 1.1h.3l-.1-.1.1.1h.1-.1.1v.1l.1.2.1.5v.3l-.4-.1.4.1-.2 1-.6-.1-.1 1.6 1.3.5c-.1.4-.2.8-.5 1.1l.1.2.1.3v.2l-.1.2-.3 1.6h.2l.4-.4-.3 1.6-.1.6-.2 1.4h-.1.1l-.2 1.3.1.2.1.3v.3l-.2 1.2h-.1.1-.1c0 .9-.2 1.7-.3 2.3l-.2 1.4h.2l-.1.5-.2.4-.2.7-.3-.1.5.1-.5-.1.5.1v.1l-.3.8.1.1.1.1h.2l-.1.6v.3l-.1-.2h-.9v.4l1.1.3-1-.3 1 .3-.3.9.7.7-1.2.6-.2.4-.4 1.1-.5 1.1-.2.6.1.1.1.6-.1.6h.1l-.1.4.4.3-.3.2.5 1.3-.8-.2.1.1-.4.8.2.1a2 2 0 01-.5.9l-.2.2-.1.5-.5-.1-.5.4-.2.1.1.6-.1.4.4.3-.4-.3.4.3-1.2 2.3-.3-.2.3.2-.7 1.1-.6.8-.1.1h-.1l-.1-.1.1.1-.8.6-.6-.8.6.8-.7.5-.2.3-1.3 1.5-.1-.3-.3.2-.5.3-1.3.7-.3-.6-.2.1.1.1-.2.3h0l-.7 1-.6-.6h-.3l-1.7.3-.1-.6.1.6-2.1.1c-.6-.1-1.4-.3-1.9-.7l.4-.5-.4.5-.9-.8-.3-.1-1.1-.4v.2l-1.2-.5c-1-.4-1.9-1.1-2.7-1.9l-.1-.1h-.1v.8l-1-1.4-.2-.2-.4-.4-.1-.1h-.1l-1-.3.3-.9-.2-.2-.7-.9.2-.2-.2.2-.2-.2-.3-.2-.3-.3.2-.2-.2.2-.1-.2-.1-.2-.3-.6-.1-.1.1-.1-.1.1-.6-.6-.6-1.2h-.1.1-.1l-1.3-2.6a28 28 0 01-1.5-3l.4-.3v-.1l-.1.1.1-.1-.1.1-.3-.3-.2-.2-.1-.3-.1-.7v-.7-.1l-.4-1-.2-1.2-.2-1.9a3 3 0 01-.4-.8l-.9-.7.6-.2-.1-.3-.2-.8-.1-.4-.3-.9-.1-.1-1.2-1.4.8-.1v-1.3l-.1-.4c-.2-1.3-.2-2.3-.1-3.2h.2-.2v-1.7l-.2-.2-.1-.2-.1-.4.1-1h.3-.3.4v-.1-.3l-.7.1-.1-.8v-.6-.1-.6h.3-.3.3l-.1-.2-.2-.4v-.2h.3-.3l.1-.8h-.2.2-.2v-.8l-.1-.5v-.3l-.1-.6-.3-.1v-.1h-.2l.4-.5v-.1l.1-.5.1-.1v-.6l-.1-1.1h.4l-.2-.1v-.2l-.2-.2.2.1-.2-.1.2-.5-1.1 1.3.8-3.7h.2-.2c.1-.7.3-1.4.2-2.2l-.3-.1.1-1.5.1-1-.1-.3v-.5-.5l-1 1 1-3.6.4.1-.4-.1.6-2.3.6-2.2.2-.5.5-.1.1.3-.1-.3h.4l1.9-2.3-.5 3.6v.1l.5.1-.5-.1.5.1-.1.5.1.3.1.2V167.3l.4.1v.1l-.3.9h.1l.1.1h.1v.1l.2.3.1.4v.7h-.7.7v.2l-.7-.2.7.2a5 5 0 00-.1 2.1l.2.9.1 1h-.3.3v.3l1.3-.9-1.5 3.4-.3-.1.3.1v.1l.1.3v.5h-.1.1v.2c-.2 1.5-.2 2.5-.1 3.4v.5l.7-.9-.3 2.9v1.3h-.4.4v4.1l2-1.3-1.6 3.3v.2l.1.9.2 1.4.3-.1v1.7h.1v1.6l.5.2v.7l.1 1.4.1 1.2.1.1h.1l.2.6h.1-.1.1v.4l.1.3h-.1.1c.4 1.1.6 2.2.8 3.2h-.1.1-.1.1l.3 1.6.3 1.5-.3.1.3-.1 1 3.3.3-1.1 1 3.3.7 2.1.1.1.9.7 2.1 2.3h-.1l.1.1 1.1 1c-.6 1.3.2 1.8 1.2 2.2l-.1.2.1-.2zm12.2-2.1c.1 0 0 0 0 0zm8.3-11.8l.2.4-.2-.4zm-1.8 2.6l-.1.1.5.2-.1-.1c0-.1-.1-.2-.3-.2zm-35.8-37.9zm32.9 42.2zm4-47.4h.4-.4zm-7.3 52.6zm-17.9-1.3zm-11-53.7zm-.9 4.8zm9.8 50zm18.8 5.4zm.1.1zm7.7-14.5l-.5-.1h-.1.1l.5.1zm1.8-62.1l-.5.1.5-.1zm-.5.1l.2.2.1.1h.2l.1-.3h-.6zm-.6 18.7l.3.1v-.1h-.3zm-3.6 43.7l.3-.1-.3.1zm-3.9 8.8v.1l.1-.1h-.1zm-24.7-18.8c-.1 0-.1 0 0 0zm-.2-.6c-.1 0-.1 0 0 0l-.1.2.1-.2zm.1-1.8l.3-.3-.6.2v.2l.3-.1zm-3.9-33.8l-.1-.3.1.3zm8.1 55.4zm.7-.6l-.6.5.6-.5zm0 0zm12.5 7.7zm2.8.6v-.5.5zm-.1-.6zm12.9-19.6zm1.8-17.5l-.3-.1.3.1zm-.4-2.5l-.3-.2v.2h.3zm.2-27.7h-.1.1zm-.2-.1zm.3-.4v.2l.2-.2h-.2zm-6.5 51.8l.8-.2-.8.2zm-3.5 8.5l-.1-.1.1.1.1.2v-.2h-.1l.1.1-.1-.1zm-3.6 3.7zm-8.3-.5zm-12.7-22.1l.5-.4-.8.1.3.3zm-.4-1.7zm-.3-8l-.3-.2.3.2zm-.8-13.4h.2-.2zm-.1-3.8h-.5.5zm-.4-7.1l-.2-.2v.2l.3.1-.1-.1zm-2.1-2.7l.1.3-.1-.3zm-.5 2.8zm-1.1 2.1zm-.4 2.5l.9.1-.9-.1zm6.8 42.1zm2.2 4.3l.2-.3v.1l-.2.2zm1.5 2.1l.4-.3.1-.2-.1.2-.4.3zm15.3 7.6l.3-.3-.3.3zm1.6-.6l-.1-.2.1.2zm5.7-3.7zm4.9-12zm1.3-3.5c0 .1 0 .1 0 0 0 .1 0 0 0 0zm.4-2.7l-.9-.1.9.1zm-1.1-2.1zm1.4-15.7l.8.6v-.1a1 1 0 00-.6-.5h-.2zm.4-3.7h.3-.3zm.9-4.3zm-.7-19.7h-.2v.1l.2-.1zm.4-.4l-.1.1.1-.1c0 .1 0 .1 0 0zm.1 0zm.4-13.6h.5-.5zm-1.9-8.5l.2.1v-.1h-.2zm-1.7 41.1zm-1.5 16.9l.6.2v-.6l-.3.2c-.2 0-.3.1-.3.2zm-4.1 22.3v-.2.2zm-2.2 1.9l.1.1-.1-.1zm-1.2 1.4l.1.1-.1-.1zM183.7 309zm48.6 3.7zM201.1 15.2l.1-.9-.1.9zM72 177.4v.5l-.2.4-.2.2-.1.1h-.1.7l.4-.2.3-.3.1-.5-.1-.5-.2-.2-.5.5c-.1-.1-.1-.1-.1 0zm94.7 116.7l.3.8-.3-.8zm55.3 29.6v.2-.2zm.1.1zm20.1-18zm-125.3-238a8 8 0 01.6-2.2l.3-.6.3-1.6.3.7.2-.3.1.1-.1-.1.1-.1.1-.1.1-.1.8-.9.5.6-.5-.6.4-.4.6.8-.6-.8.4-.3.4-.3.6.8-.1-.2.1.2-.6-.8.5-.3 1.3-.7-.1-.2.9-.3.5.9-.3-.9 1.2-.2h.4l1.6-.5c.6-.1 1.3-.3 2-.3l.4-.1H129.6c1.7-.1 3.5 0 5.2.1l2.6.3 2.3.2v.3h1.1l1.8.1c.6 0 1 0 1.2-.2l.4.9-.4-.9c.3-.1.6-.4.9-.8l.7-.8.1-.2h.1-.1.1a46 46 0 002.3-3.7l2.2-3.3.2.1 3-4.4.6-.9h.1-.1.1l.4-.7.4-.6h.2l.9-1.3.9-1.2-.2-.3.8-.5v.1-.1l.3-.2.2-.3.8-1.2c.6-.8 1.3-1.9 2-2.6l.1-.1.1-.1.1-.1.1-.1.1-.1.1-.3.6-.8.3-.3.1-.1-.1-.3.6-.5 1-.9v-.1l.1-.4.4-.2.5.9-.5-.9c.5-.3.7-.6 1.1-1.1.4-.5.9-1.2 1.8-2h.1l.2-.2.3-.3-.1-.1.1.1-.1-.1.9-.9 1.1-1 .9-.7.2-.1.2-.1h.5l2-1.8.6.8-.6-.8 1.1-.9.7-.6.1-.1.1-.2.4-.4.2-.1.1-.1.5-.3 2-1.3.2.3.5-.3 1.3-.9 2.6-1.7.3-.2h.2l.4-.2.4.9-.1-.3.1.3-.4-.9.6-.3.8-.4 1.7-.8.5-.2v-.1.1-.1l2.7-1 2.6-.8.1.3-.1-.3c1.7-.5 3.6-.8 5.8-.6v.2-.2.2h.5l1.3.1.6.1.3.1-.2.1c-.1 0-.4.2-.6.5l-.1.3.7.1.1-.1v.1-.1l.1-.9-.1.9.4-.9-.3 1-.1.1.1-.1.3-1 .8.3.6.4.7.4.4.2-.4.9.4-.9.5.2 1 .5-.2.4.2-.4c.6.4 1.2.8 1.8 1.4 1.2 1.4 2.1 2.9 2.9 4.5l-.4.2.4-.2.9 2.4.6 2.4-.9.2.9-.2c.7 3.3.6 6.6.1 9.8h-.1.1l-.1.7v.7h-.1l-.1.9-.1-.1v.1l-.2 3.9v.5l-.4.3v.4l-.2 2.2h-.1l-.1.8h-.5.5l-.1 1.2-.2-.1-.3 2.4-.2 1.4v.7l-.2.1-.1 2.2h-.2l-.4 3.1-.4 2.9h-.1l-.1.9h-.1.1-.1l-.8 4.3a50 50 0 00-.9 4.9h-.1.1l-.1.3v.1l-.1.2-.1.1-.1.1-.1.8-.4.1-.1.1.1.6v.2l-.1.2-.2.6v.1l.1.2V74.7l-.1.8-.3-.1.3.1-.8 2.5-.9-.3.9.3c-.3.9-.6 1.8-.8 3.2l-.9.8.5.1v.2l-.2.7-.1.3-.3.4-.1.5h-.2l-.2 1.6v.1l-.3-.1-.2.5-.1.2-.1.1-.1.2-.1.1-.2 1-.3-.1v.1l-.3-.1.3.1-1.5-.1.1-.1-.1.1h-.5l.1.2-.3.2-.2-.3.1-.4 1 .2-1-.2.5-3.1.5-3.1h.3l.1-.6.3-1.6.2.1-.2-.1h.2l.1-.8v-.2l.7.1-.7-.1.1-.6.1-.4.1-.2.1-.1.3-1.5.4-2.2h.2c.3-1.1.4-2.1.5-2.9h.1-.1.1l.6-2.3c.2-.6.2-1.2.2-1.8h.2-.2l.3-1.5.1-1.1v-.2-.9h.2l.1-.8.3-1.6.2-.9h.2-.2.2l.1-1.1v-.2l.1-.4.1-.2.1-.2.1-.3h-.2l.1-1.2.2-1.4.5.1.1-.7-.3-.1h.3-.3l.1-1.2.1-.4v-.1l.2-.3.3-2.8h.2-.2c.1-1.2.1-2.5.4-4.1h.2-.2.2l-.1-.5c-.1-.5-.1-1.1.1-2.1h-.4l.6-1.4.9.4v.6-.6l-.9-.4.1-.2.1-.3a9 9 0 00.2-1.8l.3-1.9h-.2l.2-.4.4-1.5-.1-2.6h.2-.2l-.1-2.7h.5-.5v-.3l-.2-.2-.1-.3-.1-.3-.2-.8h.1-.1v-.8h.1-.1.1l-.2-.5h-.3l.3-.1-.3.1-.6-1.8c-.2-.6-.5-1.2-.9-1.7a7 7 0 00-2.3-2.5v-.1l-.6-.4-.5-.3-.7-.5-.2-.1-.2-.1.3-.6-.3.6h-.1l-.2-.1H200.2l.1-1-.1 1h-.2l-.4-.1-.4-.2-.1-.1h-.3.1l.1-.1-.2-.4v.1-.1.5-.1.1h-1.2l-.6-.1h-.1l-.1.1-.1-.1.1.1-.4.5-.6-.1c-.3-.1-.7 0-1.3.2l-.8.2c-.2 0-.5.1-.8 0l-.4.2-1.8.8-.9.3-.9.3-.1-.2.1.2-1.7.6-1.2.5-1.2.6-.6.3.3.3-.4-.3.4.3-.8.7-.9.6-.1-.2.1.2-1 .6-1 .6-1.7 1-.2-.4.2.4-.4.3-.1.5-.7.1h-.2l-.3.3.1-.2V27h-.1v-.2l-.1.1-.2.1.3.4-.3-.4.3.4-1.9 1.3h.1l-2.1 1.4V30v.1l-.3.2-.1.1-.3.3-.5.6-.9 1-.2.2-.9.8-1.2 1.1-.2-.2.2.2-1.2 1.2-.1-.1.1.1-1.1 1.2-.3-.2.3.2-.3-.2-.2.2-.3.2-.4.1-.1.2-.1.2v.1l-.1.3-.1.2.3.3-.3-.3.3.3-.7.7-.1.4-.6.9-.2-.1-.8 1.1-.2-.1.1-.3-.3-.1.4.4-1.1.6v.2h-.2l-.5.7-.1-.1.1.1-.1-.1-.4.5-.4.3-.3.1-.1.1v.1l-.1.1-.5.7-.1.3-.7 1.3-.8 1.3-.4.7V49l-.6.2-.9 1.4-.7-.4.7.4-.7-.4v0l-.3-.2-.4.4.5.4h.2l.3-.1.1-.1-.4.5-.5.6-.3-.2.3.2-.3-.2-.2.4-.6 1.1-.4-.2v.1l.3.2-.5.9-.5.9-.1-.1-1.2 1.7c-.4.8-.9 1.7-1.6 2.6l.1.1-.9 1.4h-.1.1l-.1.1-.1.1-.1-.1.1.1-.2.2-.1-.1.1.1-.1-.1-.1.2-.1-.1.1.1.7.4-1.1.1c-.4.5-.9 1.1-1.5 1.5l-.1-.1-.1.1-.2-.2.2.2-1 .5h-.2v-.2.2h-1.1v.3c-1.1.1-2.1 0-2.9-.1v-.3.3-.3h-.1l-2.4-.2h-.2l.1-.4-.1.4-.2-.1-.3-.2-.2-.2h-.1l-.3.1a3 3 0 01-1.4.1l-.1-1-2.8-.2.1.4-1.2.1v-.5.5h-.6l-.2-.1h-.5v-.3.3-.3l-1.4.1-.1-1 .1 1-.4.1-.1.3-.6.1-1.3.3h-.1v.1l-.2.2-.1.1-.2.1-.1-.2.1.2-1.3.5-1 .5-.1-.2-.8.6-.6.6-.6.6-.1-.1.1.1-.2.2-.2.5-.2-.1-.4 1-.4-.1.4.1-.3 1.2v.2l.2.3-.2.2.2-.2.5.7-.4.3.4-.3.7 1-.2.2.2.2.3.2h.1l.4.2 1.2.8-.3.4.3-.4-.2.4.4.2v.2l1.2.6-.3.7.3-.7 2.2 1 2.1.9 2 .8h.2l.2.1.1.1.2.3v.1l.2.1h0l.1.5.3.1-.2.5.2-.5.2.1.1.1.1-.2h.2l-.1-.1-.1-.1.3.1.4.2.3.1h.1l.1.1.1.1.1.1.1.1v.1l.2.1c.4.1.9.1 2 .5v.2l.3.1-.1-.1h-.1l.8.3.8.3-.1.1h.1l-.1.1.1-.1.3.2.1.1v.1l.1.3V81.4l-.1.4-.2.9-.2.9h.1c-.1.9.1 1.1-.3 3l-.4-.1.4.1h-.4l-.6 3.6h-.4v.2l-.4-.2-.1.5.4-.2.1-.1v.8c0 .6 0 1.2-.4 2.8l-.3-.1.3.1v.2l-.1.4-.2.4-.2.2h.2l-.1 1.5-.3 1.7h.3-.3.3l-.1 1v.4l-.1.3-.3.4v.1h-.1-.1v.3l-.1 1.1.1.5-.4.4-.3.3-1.5 1.4c.1-.1.4-.2.7-.1l.6.3h.1-.1.1v.1l.1.3v.4l-.1.5-.5 5.5-1-.1-.9.5-.2-.7v-.7l.1-1.6.1-1.1-.2.2.1-1h-.2l.1-1.5-.3.2 1-3.3h-.1l.3-3.8c.1-1 .1-1.9.5-3.6h.1l.4-2.4.3-1.9-.1-.3v-.2h.2-.2v-.2l1.4-5.9.5.8-.6-.1.6.1-.6-.2.4-1.5.2-.6.4.1-.4-.1v-.1l-.4-.1.2-.4-.2.4-.7-.3-1.3-.3.1-.7-.1.7-.8-.2v-.4h-.4l-.5-.1h-.1l-.3-.1.2-.3-.2.3-1.4-.7-.2-.1-.4-.2.1-.2-2-.9-1.6-.7-.4-.1-.3.1-.4-.2-1.6-.9-1.7-1-1.8-1.3a9.8 9.8 0 01-1.7-1.8l.6-.4-.6.4c-.4-.7-.8-1.5-1-2.4a7.6 7.6 0 01-.2-2.9zm39.7-20.5l-.2.5.8.2-.3-.4-.3-.3zm.6 1.1s0-.1 0 0l-.2-.1.2.1zm-20.8 33.8zm-.2-.1zm.1.3zm-1.7 7.8l-.3.2.3.1v-.3zm4-8.4h.1-.1zm32.3-53.6c.1.1.1.1 0 0zm2.9-.3l.2.2-.2-.2zm0 0l-.3.3.6.1-.3-.4zm.4.3zm-.7 0zm-19 22.5zm1.8-2.7zm-12.7 15.8zm0-.1l-.1-.4.1.4zm0 0v-.4l-.1-.1.1.5zm1.8-.4v.2-.2zM157.1 48h-.4.4zm42.7-31.3zm-2.7-.1zm13.6 21.6h.2-.2zm-1.8-9.1l.3-.1-.3.1zm-7 48.5zm-.9 3.3zm9.6-42.2c.3.1.5 0 .7-.1l-.4-.4h-.2l-.1.5zm-1.5-9.8h-.2.2zm-.6.3h.1-.1zm-40.2 1.1zm-3.7 4.1zm-9.1 11.7zm-31.9 15.1zm8.9 20c.1 0 .1 0 0 0zm3.8 2.2zm-.4 11.3h-.1.1zm2.8-12.8s0 .1 0 0zm-6.8-3.9zm-5.3-1.8zM144 63.6l-.1-.1h-.1-.1v-.1.4h.1l.2-.2zm9.1-10.4v.2h.1l-.1-.2zm2-3l-.2-.1h-.1l.1.1h.2zm23.3-24.5h.4-.4zm20.4-8.2v-.9.9zm.1-.3l-.1.3.1-.3zm.3.2l.1-.1c.2-.1.3-.4.4-.7l-.6-.1-.1.3.2.6zm3.6.6zm6.2 10.9h.1-.1zm-.9 12.6zm-1.9 29.6zm-7.7-56.7v.5h.1v-.1l-.1-.4zm-.1-.1v.5l.1.2-.1-.2v-.5zm-12.7 3.9zm-18.1 11.4zm0 0zm-.5.6l.8.5-.1-.1c-.2-.2-.2-.4-.2-.5l.6.3-.1-.1-.6-.2v.1h-.4c.1-.1.1-.1 0 0zm-4.6 5.8l.9-.5-.9.5zm.1.5l.1.1-.1-.1zm-4.8 5l.6.6.3-.4-.3-.2-.5-.1-.1.1zm-.1 0l.5.7-.5-.7zm-13 18.3l.1.6.1-.1.2-.4-.4-.2v.1zm-3.9.2l-.1.7.1-.7zm-6.1-.2v.3-.3zM123 61.4l.4-.1-.4.1zm-1 .8zm-3.3 1.7l.3.3-.3-.3zm315.5 192.3l-1 3.2 2.6-2.2-.6-.8-1-.2zm-330.5-91h.1l-.5-.2.4.2zm10.2-9.2v.1l.1.1.9-.5-1 .3zm61.4 3.6l.1-.1-.9-.5.8.6zM15.4 335.1l.3-.8-1.8-.8-.3.6-.2.1-.2.2-.1.1-.1.2-.4.9a107 107 0 00-4.3 10.6l.9.3.7.7.5-.8.5-1.1 1.2-3-.2-.1.2.1-.2-.1.2.1 1.4-3.5.1.4.2-.4.2.1-.2-.1.2.1 1.6-3.6-.2-.2zm-7 11.1l1.7 1-.7-.7-1-.3zM461.6 384l.8 2.6-2.4-1.8-.4-.3.2-.3-.2.3-.6-.4.2-.7.2.1-.2-.1v-.1-.2-.7-.2l-.2-.1-.4-.3-.2-.3v-.2-.3l-.1-.9.4-.1-.3-1.6v-.1l-.1-1.5h.1l-.3-.4-.2-.4v-.2c-.4-1.6-.5-2.2-.5-2.8v-.9h-.5l.5-.1-.5.1-.3-1.8-.3-1.6h-.6l-.3-1.9v-.6-.6h.2l-.2-.8-.4-1.7-.2.1v-.1l-.3-.8-.2-.7.1.1.1.1-.1-.4h-.3c-.3-1.1-.2-1.6-.2-2l-.2-.2-.1-.1-.1-.1v-.1l-.1-.3-.1-.4-.1-.3.1.1.2.1h.1v-.3h.3-.3l.3-.1-.1-.3.3-.1-.3.1v-.2l-.4-.1h-.3v0l-.4-.2-.1-.1-.1-.2-.1-.1v-.1l-1.1-4.2c-.3-1.1-.6-2.3-1.1-3.4h-.2l.2-.1-.2.1-.1-.4-.6.2.6-.3-.6.3c-.3-.7-.5-1.1-.5-1.6v-.5-.1l-.1-.3-.1-.3-.3.1.3-.1-.3.1a5.2 5.2 0 01-.7-2.5l.1-.9-.8-1.1.4-.3-.4.3v-.2l.4-.2-.4.2-.6-1.2-.3.1.2-.1-.2.1-.2-.5-.2-.2-.7-.9a3 3 0 01-.4-1l-.6-1.2-.3.2-.5-1-.7-1.4.3-.1-.3.1-.1-.3v-.2l.1-.4-.6-1.4.4-.2-.4.2-.2-.6.3-.3-.2-.3-.6-1.3-.3.1-.2-.3-.2-.2-.4-.6.6-.2-.6.2-.4-1 .6-.2-1.2-2.4-1.3.3c-.2-.5-.4-1.1-.3-1.5v-.1h-.1l-.4-.2-.2-.2-.1-.1-.1-.2h.1-.1l-.8-2.1-.4.2.4-.2-.4.2-1.1-2.1.3-.2-.3.2.3-.2-.2-.2-.1-.1-.1-.1-.1-.2-.2-.4-.1-.4h-.2l-.7-1.4-1.4-.3.8-.3-.1-.1-.1-.2-.8-1.4.1-.1-.1.1.1-.1c-.7-.9-1.1-1.8-1.5-2.5-.3-.7-.6-1.2-1-1.6l-.2.1-.3-.5-.1-.4-.5-.9.4-.2v-.1l-.5.3.5-.3-.5.3-.5-1-.1-.2h-.2l-.3.2-.4-.5-.3-.3-.1-.1.1.1.3.1.6-.5-.4-.4-1 .6.9-.5.1-.1-.1.1-.9.5-.7-1.3-.8-.1.2-1-.3-.6-.3-.6-.4-.7-.6-1.3-.1-.2-.4-.7-.1-.1-.1-.1h-.2l-.5-.3-.5-.5-.1.1-.4-.6-.3.1v-.3l-1.3-.6.6-.5-.4.1-.6-1-.2.1-.6-1-.1-.4-.6-.6.4-.4-.4.4.4-.4-.1-.4v-.3-.1l-.1-.1c-.4 0-.6-.2-.8-.3l-.3-.2-.4.3-2.1-2.4-1.9-2-.1-.2-.7-1.1-.7-.9-.3-.2v-.1.1l-1.7-1.4h.1l-1.9-1.7.4-.5-.1-.2v.2l-.3-.1v.2s0 .1 0 0l-.1-.2h-.1l-1-.2.1-.7-.3-.3-1.4-1.3-1.7-1.5c-.5-.5-1-1.1-1.2-1.7l.6-.2-.6.2.5-.3-1.4-1.3-1.1-1.1v.1l-1.1-.9-2.7-2.7-.2-.2.1.6-.9-1-.1-.1-.7-.6c-.5-.4-.7-.7-1-.8l.1-.4-.1.4-.8-.2.1-.8h.2-.2v-.1l-.5-.3c-.3-.2-.6-.4-1-.9l.1-.2-.2-.2h-.1l-.6-.2-.4-.3.6-.8-.6.8-.1-.1-.1-.1-.7-.7-.3-.1-.9-.4-1.2-1-.1.1.1-.1-.1.1-1.4-1.1-1.6-1.1-3.4-2.2.2-.3-.2.3.2-.4-.4-.3-.1.1v-.2.2l-.4-.1-.2-.1-.2-.1.1-.1-.1.1-.7-.6-.5-.6-.1-.3-.2-.1c-.6-.3-1.5-.9-2.3-1.6l-1.9-1.7a7 7 0 01-1.3-.5h-.7l.2-.3-1.5-.9-1.5-.9-.2-.1h-.3l-1.8-.2.4-.5c-.8-.4-1.2-.8-1.5-1.1l-.5-.3.1-.2-.1.2c-1.4-.7-2.4-1.6-3.3-2.3-.7-.5-1.3-1-2.1-1.4h-.4l-.2-.1-.4-.2-1-.7.2-.4-.5-.3-.3.6-1.3-.7-.2-.2-.7-.5.2-.3-.2.3.2-.3-.2-.1h-.4l-.5-.1.1-.3-.1.3h-.2l-.8-.6-.1.2-.8-.5-.7-.3-.7-.3h-.1l-.6-.2-.1.1-.1-.1v-.1l-.2-.2-.4-.3-.1-.2-.8-.5-1.3-.6.1-.2-.1-.1-.2.2.2-.2-.2.2c-.4-.5-.7-.7-1.3-1-.5-.2-1.3-.5-2.1-1l-.2.1c-.7-.5-1.4-1.1-2.4-1.6l-.2.2-1.8-1.1.3-.5-.3.5-1.1-.7-.1-.1h-.1l-.3-.1-.5-.2-.6-.3.4-.6-.4.6-.1-.1-.1-.1-.5-.4-.2.2-1.4-.9-.4-.3-.3.2-2.4-1.8.6-.8-.6.8-2.4-1.9.6-.8-.6.8-.4-.3v-.5l.1-.5.4-.4.3-.1H326.7l-.3.1-.3.4-.1.5h.3l1.2-1.2-.3.4.3-.4h.1l.3-.4-.3.4.3-.4.7.5h.1l.5.1.3.1.5.2v.1-.1l.2-.3-.2.3.2-.3 1.1 1 .2-.3.3.2h.5l.3.1.7.3h.2l-.4.5.4-.5c1 .7 1.9 1.1 2.7 1.4.8.3 1.7.5 2.4.9l.7.5.2.2.1.1.2.3.1.2.6.2-.5.9.5-.9.3.1.1.3.2.3h.1l.5-.3.1.1.2.1.2.2h.2l.2.1.2.1.3.2v.1-.1l4 2.3 1.6.8-.3-.5 3.3 1.9 2.4 1.5c.8.5 1.7 1.1 2.6 1.5l.2-.2-.2-1.8 2.2 3-.2.2.2-.2.1.1.3.3 1.1.7 2 1.1.1-.3 1 .7-.3.4.3-.4.6.5.1-.1 1.8 1.3.2.1.5-.3.5.4 3 2.2.3.1.2.1v-.1l.4.2.1-.1-.1.1.1-.1.5.4.5.3 2 1.2-.6.8.6-.8 1.8 1.3-.1.1.1-.1 3.5 2.7 3.4 2.6-.4.5.4-.5c1.1.9 2.3 1.7 3.6 2.4l-.1.2.3-.2-.3.3.3-.3 2.5 2.5.4.2 1.3.6-.1.2.1-.2-.1.2.3.2 1.7 1.2-.2.2.2-.2 2.1 1.6-.7.8.6-.7 1.8 1.6 1.8 1.7-.2.2.2-.2 1.9 1.7-.1.1.1-.1-.1.1.4.3 1.3 1.2-.7.7.7-.7 1 1 .2.2h.3l.3.3 1.9 2.3-.1.1.1-.1 1.2 1.5.4-.3-.3.3.3-.3 1.5 1.5.4.4h.1l.5.8.1.4 1.3 1.6 1.5 1.8h.7l.2.1.4.4.4.4.9 1.1.8.9-.1.1.5.5-.1.1.1-.1c.8.8 1.2 1.6 1.5 2.1.3.5.4.7.8.9l.6.3v.6l.9.8-.7.7.8.6-.8-.6.7-.7.7.6-.3.4.2.3.6.8.1.2.2.1.1.1.1.1.1.1c.7.7 1.3 1.8 1.8 2.6l-.6.4.6-.4.7 1.1.1.1.1.1.3.2 1 .6-.4.5.8 1.1.8 1.1.3-.1.4.7.3.6.1-.1.1.1.5.8 2.7 4.2.3-.2c.7.8 1.4 2 2.1 3.2l1.1 1.9 1.1 1.7h.1l-.1.1.1-.1.1.2.1-.1.6.9 2.3 3.8-.8.4.9-.5.5.9-.9.4.9-.4.4.9-.9.3.8-.3.3.9.4-.1-.4.1.4-.1c.5 1.3 1.3 2.6 2 4.2l2.1 4.2.1.1.1.2.1.3 1.2 3 .2.1.7.9.6.9-.2.1.5.9-.8.4.8-.4.8 1.6-.9.4.9-.4.3.8.1.1v.1l.1.1v.1h-.1.1l2.5 6.4 2.7 6.8.3.6-.3.3v.3l.4 1.6.6 1.9h.3l.1.3.1.1c.3.3.5.7.7 1.5l.1.4V358.2h.4l.1.9-.9.1.9-.1.1 1.2 1 2.9-.2.1.2-.1.5 1.5.4 1.4.8 2.8-.2.1.2-.1-.2.1.2-.1.8 2.7-.3.1.3-.1.1.2v.5l-.1.3.3 1.7.5 2.3h.1c.5 1.6.5 2.6.6 3.5h-.6.6l.1 3.7-1.3.2zm-53-99.4l.4-.5-.4.5zm14.9 11.1l-.1.3.1-.3zm-3.7-3.3l-.1.1.1-.1zm-.4-.2zm-11.3-9.4l.4-.1-.2-.3-.2.2-.2.2.1-.1-.1.1h.2zm1.1 1.1zm24.7 33.6l-.1.1.1-.1zm25.8 54l-.4.2.4-.2zm-24-57.9l-.6.1.6-.1-.6.2.4.5.2-.4v-.3zM414.3 285l.4-.5v-.1h-.1a1 1 0 00-.5.1l-.1.1.3.4zm-39-31.9zm13.7 10.2zm-60.3-39.1zm59.6 39.6h.2l.2-.1.2-.4-.4-.3-.2.6c-.1 0-.1.1 0 .2zm20.9 20.1zm14.3 18.1l-.2.3h.8l-.2-.4-.4.1zm10.3 15.4l-.1.2.1-.2zm0 .5v.2l.3-.1-.3-.1zm2.1 4.1l.2-.1-.2.1zm.2.4l.2-.1-.2.1zm17.8 35.6zm5.8 13.5l-.4-.2v.3l.4-.1zm-6.4-18c-.1 0-.1 0 0 0zm-.5-2.6l.8.6-.8-.6zm-13.5-31.2c-.1 0-.1 0 0 0zm-.1 0c.1 0 0 0 0 0zm-13.5-19.5zm-8.6-11.9h.4-.4zm-2.2-3.6l-.4.4h-.1.1l.4-.4zm-13.2-14l.1 1-.1-1zm-10.4-9.1l-.3.4-.3.1.3-.1.3-.4zm-1.9-1.2l-.1.4.4.3-.3-.7zm-.1-.2l-.2.3v.2-.2l.2-.3zm-14.9-11.1zm-4.9-3.2l-.1.1.1-.1zm-.2-.4a1 1 0 00-.5.6l.5.2.3-.3v-.5h-.3zm-27.4-15.4c0 .1 0 .1 0 0zm-7.1-2.7zm-2.7-1.7zm-3.3-1.6zm-3.4.5l.4-.2-.4.2zm0 0l-.3.2.2-.2h-.3v.1c0 .1.1.1 0 .1l.4-.2zm20.6 13zm20.1 10.5zm16.9 11.1zm5.4 4.9l.1-.1.1-.2-.3.1.1.2zm0 0l.1-.1-.1.1zm33.8 34.6zm5.1 8.9c-.1.1 0 .1 0 0zm4.2 7.2c.1 0 .1 0 0 0zm1.9 3.2l.2-.2-.2.2zm2.4 4.5zm2.4 2h-.4.4zm8.5 16.5l.1-.1-.1.1zm0 .1l.1-.1-.1.1zm6.6 16.4l-.4-.1.4.1zm.4.1zm0 .4h.2-.2zm-.1.1c-.1 0-.1.1 0 0zm4.5 14.8l-.1-.5-.6.3.4-.3-.4.3.2.2h.5zm-236-49s.1-.1 0 0c.1-.1.1 0 0 0zM265.9 103zm-93.5 51.4l.9.4-.9-.4zM167 294.9zm13.5-154l.8.6-.8-.6zm261.2 86.7v.1c.1-.1.1-.1 0-.1zm-219.6 96.3zm216.2-76.1l-.4-.2h-.2l-.4-.1-.1.3-.1.1-.2.2-.1.2-.1.2-.2.6-2.3 7.2 1 .3.6.8.5-.7.3-.8.7-2.1.6-2.2.2.3.1-.5.2.1.7-2 .2-.5-.4-.1.4.1-.4-.1.2-.6-.8-.5zm-75.4-57.7l-.6-.2-.3-.3-.1-.1v.1l.1.2.1.2.3.3.7.2.6-.2-.3-.4-.5.2zm75.2-46.2l-1 .3 1-.3z" fill="#fff"/></svg>
