<svg xmlns="http://www.w3.org/2000/svg" width="30px" height="30px" viewBox="0 0 30 30">
    <path fill="#0D4869" d="M18.3,7.6h-6.7c-2.3,0-4.1,1.8-4.1,4.1v6.7c0,2.3,1.8,4.1,4.1,4.1h6.7c2.3,0,4.1-1.8,4.1-4.1v-6.7
      C22.4,9.4,20.6,7.6,18.3,7.6z M20.9,18.3c0,1.4-1.2,2.6-2.6,2.6h-6.7c-1.4,0-2.6-1.2-2.6-2.6v-6.7c0-1.4,1.2-2.6,2.6-2.6h6.7
      c1.4,0,2.6,1.2,2.6,2.6V18.3z M17.4,12.6c-0.5-0.5-1.2-0.9-1.9-1c-0.7-0.1-1.4,0-2.1,0.3c-0.6,0.3-1.2,0.9-1.5,1.5
      c-0.3,0.6-0.4,1.4-0.3,2.1c0.1,0.7,0.4,1.4,1,1.9c0.5,0.5,1.2,0.8,1.9,1c0.2,0,0.4,0,0.6,0c0.5,0,1-0.1,1.5-0.4
      c0.6-0.3,1.2-0.8,1.5-1.5c0.3-0.6,0.5-1.4,0.3-2.1C18.3,13.7,18,13.1,17.4,12.6z M16.7,15.9c-0.2,0.4-0.5,0.6-0.8,0.8
      c-0.4,0.2-0.8,0.2-1.2,0.2c-0.4-0.1-0.8-0.2-1.1-0.5c-0.3-0.3-0.5-0.6-0.5-1c-0.1-0.4,0-0.8,0.2-1.2s0.5-0.7,0.8-0.8
      c0.3-0.1,0.6-0.2,0.9-0.2c0.1,0,0.2,0,0.3,0c0.4,0.1,0.8,0.3,1.1,0.5c0.3,0.3,0.5,0.7,0.5,1.1C17,15.1,16.9,15.5,16.7,15.9z
      M19.4,11.3c0,0.4-0.3,0.8-0.8,0.8s-0.8-0.3-0.8-0.8s0.3-0.8,0.7-0.8h0C19.1,10.6,19.4,10.9,19.4,11.3z"></path>
</svg>
