<svg width="51" height="37" viewBox="0 0 51 37" fill="none" xmlns="http://www.w3.org/2000/svg">
<g clip-path="url(#clip0)">
<path d="M46.4224 14.8018C46.3756 14.5667 46.2587 14.3604 46.0717 14.1812C45.8229 13.9429 45.5206 13.8229 45.1682 13.8229C44.8142 13.8229 44.5136 13.9429 44.2648 14.1812C44.0777 14.3604 43.9608 14.5683 43.9141 14.8018H46.4224ZM46.1502 15.9279C46.2203 15.9279 46.2804 15.9519 46.3305 15.9999C46.3806 16.0479 46.4057 16.1055 46.4057 16.1726C46.4057 16.2398 46.3807 16.2974 46.3322 16.347C46.0016 16.6221 45.6141 16.7597 45.1666 16.7597C44.6722 16.7597 44.2514 16.5933 43.9024 16.2574C43.5533 15.9231 43.378 15.52 43.378 15.0466C43.378 14.5731 43.5517 14.17 43.9024 13.8357C44.2514 13.5014 44.6739 13.3335 45.1666 13.3335C45.6609 13.3335 46.0817 13.5014 46.4307 13.8357C46.7798 14.17 46.9551 14.5747 46.9551 15.0466C46.9551 15.1138 46.9301 15.1713 46.88 15.2193C46.8299 15.2673 46.7698 15.2913 46.6996 15.2913H43.9124C43.9592 15.5264 44.076 15.7328 44.2631 15.9119C44.5119 16.1502 44.8142 16.2702 45.1666 16.2702C45.4855 16.2702 45.7611 16.1742 45.9899 15.9791C46.0383 15.9455 46.0917 15.9279 46.1502 15.9279Z" fill="white"/>
<path d="M23.1343 12.462C23.1343 12.3948 23.1593 12.3372 23.2094 12.2893C23.2595 12.2413 23.3196 12.2173 23.3898 12.2173C23.4599 12.2173 23.52 12.2413 23.5701 12.2893C23.6202 12.3372 23.6453 12.3948 23.6453 12.462V16.2705H26.2004C26.2705 16.2705 26.3307 16.2945 26.3808 16.3424C26.4309 16.3904 26.4559 16.448 26.4559 16.5152C26.4559 16.5824 26.4309 16.6399 26.3808 16.6879C26.3307 16.7359 26.2705 16.7599 26.2004 16.7599H23.3898C23.3196 16.7599 23.2595 16.7359 23.2094 16.6879C23.1593 16.6399 23.1343 16.5824 23.1343 16.5152V12.462Z" fill="white"/>
<path d="M29.869 16.5149C29.869 16.5821 29.8439 16.6397 29.7938 16.6877C29.7437 16.7357 29.6836 16.7597 29.6135 16.7597C29.5433 16.7597 29.4832 16.7357 29.4331 16.6877C29.383 16.6397 29.358 16.5821 29.358 16.5149V16.3166C29.039 16.6125 28.6549 16.7597 28.209 16.7597C27.7514 16.7597 27.3607 16.6045 27.035 16.2926C26.7094 15.9823 26.5474 15.6064 26.5474 15.1681V13.5782C26.5474 13.511 26.5724 13.4535 26.6225 13.4055C26.6726 13.3575 26.7327 13.3335 26.8029 13.3335C26.873 13.3335 26.9331 13.3575 26.9832 13.4055C27.0333 13.4535 27.0584 13.511 27.0584 13.5782V15.1681C27.0584 15.472 27.1703 15.7312 27.3957 15.9471C27.6212 16.163 27.8917 16.2702 28.209 16.2702C28.5263 16.2702 28.7969 16.163 29.0223 15.9471C29.2461 15.7312 29.3596 15.472 29.3596 15.1681V13.5782C29.3596 13.511 29.3847 13.4535 29.4348 13.4055C29.4849 13.3575 29.545 13.3335 29.6152 13.3335C29.6853 13.3335 29.7454 13.3575 29.7955 13.4055C29.8456 13.4535 29.8707 13.511 29.8707 13.5782V16.5149H29.869Z" fill="white"/>
<path d="M30.6307 16.5149C30.6307 16.5821 30.6057 16.6397 30.5556 16.6877C30.5055 16.7357 30.4453 16.7597 30.3752 16.7597C30.3051 16.7597 30.2449 16.7357 30.1948 16.6877C30.1447 16.6397 30.1197 16.5821 30.1197 16.5149V13.5782C30.1197 13.511 30.1447 13.4535 30.1948 13.4055C30.2449 13.3575 30.3051 13.3335 30.3752 13.3335C30.4453 13.3335 30.5055 13.3575 30.5556 13.4055C30.6057 13.4535 30.6307 13.511 30.6307 13.5782V13.6422C30.8845 13.4359 31.1818 13.3335 31.5242 13.3335C31.9116 13.3335 32.2423 13.4647 32.5178 13.7286C32.5746 13.783 32.628 13.8421 32.6748 13.9029C32.7215 13.8421 32.7733 13.783 32.8318 13.7286C33.1056 13.4663 33.438 13.3335 33.8254 13.3335C34.2128 13.3335 34.5435 13.4647 34.8191 13.7286C35.0929 13.9909 35.2315 14.3092 35.2315 14.6803V16.5149C35.2315 16.5821 35.2065 16.6397 35.1564 16.6877C35.1063 16.7357 35.0462 16.7597 34.976 16.7597C34.9059 16.7597 34.8458 16.7357 34.7957 16.6877C34.7456 16.6397 34.7205 16.5821 34.7205 16.5149V14.6803C34.7205 14.4436 34.6337 14.242 34.4583 14.0741C34.2847 13.9077 34.0726 13.8229 33.8254 13.8229C33.5782 13.8229 33.3678 13.9061 33.1925 14.0741C33.0188 14.242 32.9303 14.4436 32.9303 14.6803V16.5149C32.9303 16.5821 32.9052 16.6397 32.8551 16.6877C32.805 16.7357 32.7449 16.7597 32.6748 16.7597C32.6046 16.7597 32.5445 16.7357 32.4944 16.6877C32.4443 16.6397 32.4193 16.5821 32.4193 16.5149V14.6803C32.4193 14.4436 32.3324 14.242 32.1571 14.0741C31.9834 13.9077 31.7713 13.8229 31.5242 13.8229C31.277 13.8229 31.0666 13.9061 30.8912 14.0741C30.7175 14.242 30.629 14.4436 30.629 14.6803V16.5149H30.6307Z" fill="white"/>
<path d="M35.7321 13.5785C35.7321 13.5113 35.7572 13.4537 35.8073 13.4057C35.8574 13.3578 35.9175 13.3338 35.9876 13.3338C36.0578 13.3338 36.1179 13.3578 36.168 13.4057C36.2181 13.4537 36.2431 13.5113 36.2431 13.5785V16.5152C36.2431 16.5824 36.2181 16.64 36.168 16.6879C36.1179 16.7359 36.0578 16.7599 35.9876 16.7599C35.9175 16.7599 35.8574 16.7359 35.8073 16.6879C35.7572 16.64 35.7321 16.5824 35.7321 16.5152V13.5785ZM36.3083 12.5996C36.3083 12.6828 36.2765 12.7547 36.2148 12.8155C36.1513 12.8763 36.0762 12.9051 35.9893 12.9051C35.9025 12.9051 35.8273 12.8747 35.7639 12.8155C35.7004 12.7547 35.6703 12.6828 35.6703 12.5996C35.6703 12.5164 35.7021 12.4444 35.7639 12.3837C35.8273 12.3229 35.9025 12.2925 35.9893 12.2925C36.0762 12.2925 36.1513 12.3229 36.2148 12.3837C36.2765 12.4444 36.3083 12.5164 36.3083 12.5996Z" fill="white"/>
<path d="M37.7701 12.1102C37.7701 12.043 37.7952 11.9854 37.8453 11.9375C37.8954 11.8895 37.9555 11.8655 38.0257 11.8655C38.0958 11.8655 38.1559 11.8895 38.2077 11.9359L38.9842 12.6796C39.0277 12.726 39.0477 12.782 39.0477 12.8444C39.0477 12.9116 39.0226 12.9691 38.9725 13.0171C38.9224 13.0651 38.8623 13.0891 38.7922 13.0891C38.7237 13.0891 38.6653 13.0683 38.6168 13.0251L37.8403 12.2814C37.7952 12.2334 37.7701 12.1758 37.7701 12.1102ZM39.7925 14.8022C39.7458 14.5671 39.6289 14.3607 39.4418 14.1816C39.193 13.9432 38.8907 13.8233 38.5383 13.8233C38.1843 13.8233 37.8837 13.9432 37.6349 14.1816C37.4478 14.3607 37.3309 14.5687 37.2842 14.8022H39.7925ZM39.5203 15.9282C39.5904 15.9282 39.6506 15.9522 39.7007 16.0002C39.7508 16.0482 39.7758 16.1058 39.7758 16.173C39.7758 16.2402 39.7508 16.2977 39.7023 16.3473C39.3717 16.6224 38.9842 16.76 38.5367 16.76C38.0424 16.76 37.6215 16.5936 37.2725 16.2577C36.9235 15.9234 36.7481 15.5204 36.7481 15.0469C36.7481 14.5735 36.9218 14.1704 37.2725 13.8361C37.6215 13.5018 38.044 13.3338 38.5367 13.3338C39.031 13.3338 39.4518 13.5018 39.8009 13.8361C40.1499 14.1704 40.3252 14.5751 40.3252 15.0469C40.3252 15.1141 40.3002 15.1717 40.2501 15.2197C40.2 15.2676 40.1399 15.2916 40.0697 15.2916H37.2825C37.3293 15.5268 37.4462 15.7331 37.6332 15.9123C37.882 16.1506 38.1843 16.2705 38.5367 16.2705C38.8556 16.2705 39.1312 16.1746 39.36 15.9794C39.4084 15.9458 39.4619 15.9282 39.5203 15.9282Z" fill="white"/>
<path d="M40.574 13.5782C40.574 13.511 40.5991 13.4535 40.6492 13.4055C40.6993 13.3575 40.7594 13.3335 40.8295 13.3335C40.8997 13.3335 40.9598 13.3575 41.0099 13.4055C41.06 13.4535 41.0851 13.511 41.0851 13.5782V13.8469C41.4424 13.5046 41.8683 13.3335 42.3626 13.3335C42.6114 13.3335 42.8402 13.3751 43.049 13.4551C43.0874 13.4695 43.1224 13.4902 43.1542 13.519C43.2026 13.5686 43.2277 13.6262 43.2277 13.6934C43.2277 13.7606 43.2026 13.8181 43.1525 13.8661C43.1024 13.9141 43.0423 13.9381 42.9721 13.9381C42.9321 13.9381 42.8937 13.9301 42.8603 13.9141C42.7083 13.8533 42.543 13.8229 42.3626 13.8229C42.0086 13.8229 41.708 13.9429 41.4591 14.1812C41.2103 14.4196 41.0851 14.7091 41.0851 15.0466V16.5149C41.0851 16.5821 41.06 16.6397 41.0099 16.6877C40.9598 16.7357 40.8997 16.7597 40.8295 16.7597C40.7594 16.7597 40.6993 16.7357 40.6492 16.6877C40.5991 16.6397 40.574 16.5821 40.574 16.5149V13.5782Z" fill="white"/>
<path d="M29.0494 19.2872C28.9008 19.2345 28.7956 19.1785 28.7372 19.1209C28.6203 19.0105 28.5635 18.8778 28.5635 18.7226C28.5635 18.5675 28.6236 18.4315 28.7455 18.3147C28.981 18.0844 29.2899 17.9692 29.669 17.9692C30.0798 17.9692 30.4322 18.1276 30.7261 18.4427C30.7528 18.4731 30.7645 18.5099 30.7629 18.5531C30.7629 18.6042 30.7428 18.649 30.7044 18.6858C30.666 18.7226 30.6192 18.7418 30.5658 18.7418C30.5124 18.7418 30.4689 18.7258 30.4355 18.6922C30.4021 18.6586 30.3788 18.6362 30.3637 18.6218C30.1717 18.4379 29.9396 18.3467 29.669 18.3467C29.3968 18.3467 29.1797 18.4283 29.0177 18.5915C28.9776 18.6362 28.9593 18.6906 28.9593 18.7546C28.9643 18.8282 29.0044 18.8794 29.0795 18.905L30.2886 19.2888C30.4372 19.3416 30.5424 19.3976 30.6009 19.4552C30.7178 19.5656 30.7745 19.6983 30.7745 19.8535C30.7745 20.0086 30.7144 20.1446 30.5925 20.2613C30.357 20.4917 30.0481 20.6068 29.669 20.6068C29.2565 20.6068 28.9042 20.4485 28.6119 20.1334C28.5869 20.0998 28.5752 20.063 28.5752 20.023C28.5752 19.9718 28.5935 19.927 28.6336 19.8903C28.672 19.8535 28.7188 19.8343 28.7722 19.8343C28.8257 19.8343 28.8691 19.8503 28.9025 19.8839C28.9359 19.9175 28.9593 19.9398 28.9743 19.9542C29.1663 20.1382 29.3985 20.2294 29.669 20.2294C29.9412 20.2294 30.1583 20.1478 30.3203 19.9846C30.3604 19.9398 30.3788 19.8855 30.3788 19.8215C30.3737 19.7479 30.3337 19.6983 30.2585 19.6711L29.0494 19.2872Z" fill="white"/>
<path d="M33.523 20.4181C33.523 20.4693 33.5047 20.5141 33.4646 20.5509C33.4262 20.5876 33.3794 20.6068 33.326 20.6068C33.2725 20.6068 33.2258 20.5892 33.1874 20.5509C33.149 20.5141 33.1306 20.4693 33.1306 20.4181V20.2645C32.8851 20.4917 32.5895 20.6052 32.2455 20.6052C31.8931 20.6052 31.5925 20.4853 31.342 20.247C31.0915 20.007 30.968 19.7191 30.968 19.3816V18.158C30.968 18.1068 30.988 18.062 31.0264 18.0252C31.0648 17.9884 31.1116 17.9692 31.165 17.9692C31.2185 17.9692 31.2652 17.9884 31.3036 18.0252C31.342 18.062 31.3621 18.1068 31.3621 18.158V19.3816C31.3621 19.6151 31.4489 19.8151 31.6209 19.9814C31.7946 20.1478 32.0017 20.2294 32.2472 20.2294C32.491 20.2294 32.6997 20.1462 32.8734 19.9814C33.0454 19.8151 33.1323 19.6167 33.1323 19.3816V18.158C33.1323 18.1068 33.1506 18.062 33.189 18.0252C33.2275 17.9884 33.2742 17.9692 33.3277 17.9692C33.3811 17.9692 33.4279 17.9884 33.4663 18.0252C33.5047 18.062 33.5247 18.1068 33.5247 18.158V20.4181H33.523Z" fill="white"/>
<path d="M33.7136 18.158C33.7136 18.1068 33.732 18.062 33.7721 18.0252C33.8105 17.9884 33.8572 17.9692 33.9107 17.9692C33.9641 17.9692 34.0109 17.9884 34.0493 18.0252C34.0877 18.062 34.1077 18.1068 34.1077 18.158V18.3643C34.3833 18.1004 34.7106 17.9692 35.0914 17.9692C35.2834 17.9692 35.4588 18.0012 35.6191 18.0636C35.6491 18.0748 35.6759 18.0908 35.7009 18.1132C35.7393 18.1516 35.7577 18.1964 35.7577 18.2476C35.7577 18.2987 35.7393 18.3435 35.6992 18.3803C35.6608 18.4171 35.6141 18.4363 35.5606 18.4363C35.5289 18.4363 35.5005 18.4299 35.4738 18.4171C35.3569 18.3707 35.23 18.3467 35.0897 18.3467C34.8175 18.3467 34.5854 18.4379 34.395 18.6218C34.2029 18.8058 34.1077 19.0281 34.1077 19.2872V20.4165C34.1077 20.4677 34.0894 20.5125 34.0493 20.5493C34.0109 20.586 33.9641 20.6052 33.9107 20.6052C33.8572 20.6052 33.8105 20.5876 33.7721 20.5493C33.7337 20.5125 33.7136 20.4677 33.7136 20.4165V18.158Z" fill="white"/>
<path d="M37.1456 17.2989C37.1456 17.2477 37.1656 17.2029 37.204 17.1661C37.2424 17.1293 37.2892 17.1101 37.3426 17.1101C37.3961 17.1101 37.4428 17.1293 37.4812 17.1661C37.5197 17.2029 37.5397 17.2477 37.5397 17.2989V20.2292H37.7368C37.7902 20.2292 37.837 20.2484 37.8754 20.2851C37.9138 20.3219 37.9338 20.3667 37.9338 20.4179C37.9338 20.4691 37.9154 20.5139 37.8754 20.5507C37.837 20.5874 37.7902 20.6066 37.7368 20.6066H37.3443C37.2909 20.6066 37.2441 20.589 37.2057 20.5507C37.1673 20.5139 37.1472 20.4691 37.1472 20.4179V17.2989H37.1456Z" fill="white"/>
<path d="M39.4984 18.3467C39.2262 18.3467 38.9941 18.4379 38.8037 18.6218C38.6116 18.8058 38.5164 19.0281 38.5164 19.2872C38.5164 19.548 38.6116 19.7703 38.8037 19.9526C38.9957 20.1366 39.2279 20.2278 39.4984 20.2278C39.7706 20.2278 40.0027 20.1366 40.1931 19.9526C40.3852 19.7687 40.4804 19.548 40.4804 19.2872C40.4804 19.0265 40.3852 18.8042 40.1931 18.6218C40.0027 18.4379 39.7706 18.3467 39.4984 18.3467ZM40.482 20.2102C40.2065 20.4741 39.8792 20.6052 39.4984 20.6052C39.1176 20.6052 38.7937 20.4773 38.5248 20.2198C38.2559 19.9622 38.1223 19.6519 38.1223 19.2872C38.1223 18.9225 38.2559 18.6122 38.5248 18.3547C38.7937 18.0972 39.1176 17.9692 39.4984 17.9692C39.8792 17.9692 40.2031 18.0988 40.472 18.3547C40.7409 18.6122 40.8745 18.9225 40.8745 19.2872V20.4165C40.8745 20.4677 40.8561 20.5125 40.8177 20.5493C40.7793 20.586 40.7325 20.6052 40.6791 20.6052C40.6256 20.6052 40.5789 20.5876 40.5405 20.5493C40.5021 20.5125 40.482 20.4677 40.482 20.4165V20.2102Z" fill="white"/>
<path d="M20.8849 27.7311C20.1501 26.9025 19.8262 25.9412 19.9163 24.8488C20.0132 23.7627 20.4942 22.8686 21.3592 22.1632C22.1358 21.525 23.0292 21.2051 24.0379 21.2051C25.2336 21.2051 26.2774 21.6753 27.1708 22.6174C27.3211 22.7886 27.4564 22.9661 27.5733 23.1501C27.6551 23.2748 27.6968 23.4172 27.6968 23.574C27.6968 23.7915 27.6167 23.977 27.4547 24.1322C27.2927 24.2873 27.099 24.3641 26.8719 24.3641C26.6114 24.3641 26.4176 24.2857 26.2941 24.1274C26.1705 23.969 26.0436 23.8091 25.9133 23.6443C25.4657 23.1437 24.9063 22.867 24.2333 22.8158C23.5536 22.763 22.9524 22.9485 22.4297 23.374C21.907 23.7979 21.6181 24.3337 21.5646 24.9783C21.5095 25.6293 21.7049 26.2052 22.1525 26.7058C22.5165 27.0417 23.1077 27.3104 23.9243 27.5152C25.3605 27.8175 26.4527 28.3773 27.2009 29.1931C27.9774 30.0744 28.3648 31.0757 28.3648 32.1937C28.3648 32.3457 28.3582 32.4961 28.3448 32.648C28.2346 33.9516 27.6618 35.0233 26.623 35.8662C25.6962 36.6228 24.6408 37.0019 23.4601 37.0019C21.9821 37.0019 20.7113 36.4421 19.6475 35.324C19.5039 35.172 19.3719 35.0121 19.2567 34.8409C19.1465 34.7034 19.0914 34.545 19.0914 34.3675C19.0914 34.15 19.1715 33.9644 19.3335 33.8093C19.4955 33.6541 19.6892 33.5773 19.9163 33.5773C20.2119 33.5773 20.4457 33.6989 20.6177 33.942C20.6996 34.0668 20.7964 34.1851 20.9067 34.2971C21.4912 34.9689 22.2393 35.34 23.1528 35.412C24.0596 35.4776 24.8595 35.2296 25.5542 34.6666C26.249 34.1036 26.6331 33.3886 26.7082 32.52C26.7834 31.6451 26.5295 30.8757 25.9467 30.2103C25.4373 29.6649 24.6441 29.257 23.5653 28.9867C22.5199 28.8076 21.6264 28.3901 20.8849 27.7311Z" fill="white"/>
<path d="M29.9947 21.2068H39.8877C40.1148 21.2068 40.3086 21.2852 40.4705 21.4387C40.6325 21.5939 40.7127 21.7794 40.7127 21.9969C40.7127 22.2145 40.6325 22.4 40.4705 22.5552C40.3086 22.7103 40.1148 22.7871 39.8877 22.7871H30.818V28.315H37.4128C37.6399 28.315 37.8336 28.3934 37.9956 28.547C38.1576 28.7021 38.2378 28.8877 38.2378 29.1052C38.2378 29.3227 38.1576 29.5083 37.9956 29.6634C37.8336 29.8186 37.6399 29.8954 37.4128 29.8954H30.818V35.4233H39.8877C40.1148 35.4233 40.3086 35.5017 40.4705 35.6552C40.6325 35.8104 40.7127 35.9959 40.7127 36.2134C40.7127 36.431 40.6325 36.6165 40.4705 36.7717C40.3086 36.9268 40.1148 37.0036 39.8877 37.0036H29.9947C29.7675 37.0036 29.5738 36.9268 29.4118 36.7717C29.2498 36.6165 29.1697 36.431 29.1697 36.2134V22.0001C29.1697 21.7826 29.2498 21.5971 29.4118 21.4419C29.5738 21.2852 29.7692 21.2068 29.9947 21.2068Z" fill="white"/>
<path d="M43.1673 22.7855V29.8922H45.6406C46.6643 29.8922 47.5394 29.5451 48.2642 28.8509C48.989 28.1567 49.3513 27.3201 49.3513 26.338C49.3513 25.3575 48.989 24.521 48.2642 23.8252C47.5394 23.131 46.6643 22.7839 45.6406 22.7839H43.1673V22.7855ZM42.3424 21.2068H45.6406C47.1169 21.2068 48.3794 21.709 49.4282 22.7119C50.4753 23.7148 50.9996 24.9241 50.9996 26.3396C50.9996 27.7552 50.4753 28.9644 49.4282 29.9673C48.3811 30.9718 47.1186 31.4725 45.6406 31.4725H43.1673V36.2103C43.1673 36.4278 43.0872 36.6133 42.9252 36.7685C42.7632 36.9236 42.5695 37.0004 42.3424 37.0004C42.1153 37.0004 41.9215 36.9236 41.7595 36.7685C41.5976 36.6133 41.5174 36.4278 41.5174 36.2103V21.9969C41.5174 21.7794 41.5976 21.5939 41.7595 21.4387C41.9215 21.2852 42.1153 21.2068 42.3424 21.2068Z" fill="white"/>
<path d="M12.8441 35.8653H8.81775C8.62069 35.8653 8.46204 35.7132 8.46204 35.5242C8.46204 35.3352 8.62069 35.1831 8.81775 35.1831H12.8441C13.0412 35.1831 13.1998 35.3352 13.1998 35.5242C13.2015 35.7132 13.0412 35.8653 12.8441 35.8653Z" fill="#FFD336"/>
<path d="M11.7331 37.0009H9.9295C9.73244 37.0009 9.57379 36.8487 9.57379 36.6597C9.57379 36.4707 9.73244 36.3186 9.9295 36.3186H11.7348C11.9318 36.3186 12.0905 36.4707 12.0905 36.6597C12.0888 36.8471 11.9302 37.0009 11.7331 37.0009Z" fill="#FFD336"/>
<path d="M12.8441 34.7345H8.81775C8.62069 34.7345 8.46204 34.5824 8.46204 34.3934C8.46204 34.2044 8.62069 34.0522 8.81775 34.0522H12.8441C13.0412 34.0522 13.1998 34.2044 13.1998 34.3934C13.2015 34.5807 13.0412 34.7345 12.8441 34.7345Z" fill="#FFD336"/>
<path d="M15.4438 13.9877C15.4271 13.9446 15.412 13.8998 15.3953 13.855C15.3786 13.8102 15.3603 13.7654 15.3369 13.7238C15.382 13.7126 15.4287 13.6982 15.4688 13.6678C15.4939 13.6486 15.5106 13.6231 15.5206 13.5959C15.5306 13.5687 15.5339 13.5431 15.539 13.5159C15.5289 13.5415 15.5189 13.5671 15.5039 13.5879C15.4905 13.6103 15.4705 13.6262 15.4488 13.6374C15.4037 13.6582 15.3519 13.6598 15.2951 13.6614C15.2801 13.6422 15.2634 13.623 15.25 13.6055C15.2217 13.5703 15.1999 13.5319 15.2016 13.4967C15.2016 13.4743 15.2083 13.4519 15.2133 13.4311C15.22 13.4055 15.2283 13.3799 15.24 13.3543C15.2434 13.3479 15.2467 13.3415 15.2517 13.3367C15.2567 13.3319 15.2617 13.3255 15.2684 13.3207C15.2784 13.3095 15.2901 13.2983 15.3001 13.2872C15.3202 13.2648 15.3402 13.2408 15.3586 13.2152C15.3953 13.1656 15.4271 13.1128 15.4521 13.0568C15.4638 13.0328 15.4738 13.0072 15.4822 12.9816L15.4137 12.9561C15.3753 13.092 15.2884 13.2264 15.1832 13.3303C15.0797 13.4343 14.9561 13.5207 14.8275 13.5991C14.7624 13.639 14.6973 13.6774 14.6355 13.7222C14.5987 13.7494 14.567 13.7782 14.537 13.8118C14.5169 13.799 14.4902 13.7958 14.4685 13.7974C14.4468 13.799 14.4267 13.8054 14.4084 13.8134C14.3733 13.831 14.3432 13.855 14.3115 13.8758C14.3466 13.8598 14.38 13.8406 14.415 13.8294C14.4484 13.8182 14.4885 13.8214 14.5102 13.8406C14.4985 13.855 14.4869 13.8694 14.4752 13.8854C14.3867 14.0069 14.3299 14.1445 14.2531 14.2709C14.3366 14.1477 14.3983 14.0117 14.4902 13.895C14.5353 13.8358 14.5904 13.7862 14.6505 13.743C14.7123 13.7014 14.7791 13.6646 14.8442 13.6278C14.9494 13.5687 15.053 13.5031 15.1465 13.4279C15.1398 13.4487 15.1348 13.4711 15.1365 13.4967C15.1382 13.5255 15.1465 13.5527 15.1599 13.5767C15.1732 13.6007 15.1899 13.6199 15.205 13.639C15.2384 13.6758 15.2701 13.7062 15.2951 13.7462C15.3202 13.7846 15.3402 13.8262 15.3586 13.8678C15.377 13.911 15.3953 13.9541 15.4154 13.9973C15.4354 14.0405 15.4588 14.0821 15.4838 14.1221C15.5339 14.2037 15.5941 14.2788 15.6609 14.346C15.5974 14.2741 15.544 14.1973 15.4989 14.1141C15.4805 14.0725 15.4605 14.0309 15.4438 13.9877Z" fill="#FFD336"/>
<path d="M15.6026 12.1562C15.793 12.113 15.985 12.0826 16.1804 12.0666C16.3625 12.0506 16.5478 12.0474 16.7282 12.017C16.9085 11.9866 17.0889 11.9275 17.2292 11.8139C16.9152 11.9067 16.5896 11.9627 16.2623 11.9818C16.3391 11.9051 16.4326 11.8459 16.5144 11.7723C16.5946 11.6987 16.6647 11.606 16.6747 11.5004C16.5662 11.6268 16.4443 11.7435 16.314 11.8491C16.2456 11.9035 16.1737 11.9563 16.0869 11.9786C16.0134 11.9978 15.9349 11.9946 15.8581 11.9994C15.7813 12.0058 15.7011 12.0234 15.6494 12.0778C15.7496 11.9818 15.7312 11.8219 15.6761 11.6971C15.621 11.5724 15.5341 11.4588 15.5108 11.326C15.4941 11.2269 15.5124 11.1245 15.5375 11.0269C15.5859 10.835 15.656 10.6479 15.7446 10.4703C15.7145 10.4463 15.6727 10.4815 15.651 10.5151C15.4874 10.7742 15.4156 11.0845 15.4506 11.3852C15.1935 11.2189 14.9363 11.0541 14.6774 10.8894C14.6657 11.0029 14.8611 11.0413 14.8828 11.1533C14.7826 11.1261 14.6724 11.1389 14.5806 11.1885C14.7927 11.1853 15.0081 11.2237 15.1951 11.318C15.3822 11.4124 15.5391 11.5676 15.6143 11.7579C15.6343 11.8059 15.6477 11.8603 15.631 11.9099C15.6043 11.9946 15.5124 12.0682 15.4607 12.1418C15.3939 12.2346 15.4072 12.3289 15.4373 12.4377C15.4673 12.5465 15.5024 12.6648 15.4573 12.7688L15.7112 12.9128C15.5675 12.732 15.5174 12.4873 15.5792 12.2682C15.945 12.5049 16.309 12.7432 16.6898 12.9575C16.7048 12.9671 16.7365 12.9799 16.7482 12.9751C16.7616 12.9687 16.7065 12.9048 16.6948 12.8968C16.5027 12.7656 16.2923 12.6616 16.1053 12.5257C16.0218 12.4649 15.9333 12.4009 15.8414 12.3497C15.7629 12.3049 15.6828 12.2698 15.6176 12.209C15.6059 12.1946 15.5842 12.1594 15.6026 12.1562Z" fill="#FFD336"/>
<path d="M7.65857 8.6618C7.56839 8.63461 7.47988 8.59462 7.3897 8.55943L7.1225 8.44906L7.38135 8.57543C7.46819 8.61701 7.55336 8.6618 7.64521 8.69539C7.69197 8.71298 7.7404 8.72578 7.78883 8.73378C7.83893 8.74178 7.88736 8.74338 7.93578 8.74657L8.24139 8.76577C8.28648 8.82015 8.33658 8.87134 8.39169 8.91772C8.46684 8.9833 8.547 9.04248 8.62883 9.09847C8.78915 9.21203 8.95281 9.3208 9.07472 9.45996L9.24506 9.47755C9.10311 9.29681 8.83925 9.14006 8.67559 9.03449C8.59376 8.9817 8.51193 8.92732 8.43678 8.86814C8.36163 8.80896 8.29316 8.74178 8.23304 8.6666C8.17292 8.59302 8.11781 8.51304 8.0627 8.43307C8.00926 8.35309 7.95415 8.27312 7.90238 8.19154C7.87733 8.14995 7.85061 8.10997 7.82723 8.06838C7.80553 8.02679 7.78549 7.98201 7.76545 7.93882C7.72537 7.85244 7.68195 7.76287 7.61014 7.69409C7.67694 7.76607 7.71702 7.85564 7.75209 7.94362C7.77046 7.9884 7.78715 8.03319 7.80886 8.07638C7.83057 8.11956 7.85563 8.16115 7.87901 8.20434C7.92743 8.28911 7.97753 8.37069 8.02763 8.45386C8.07606 8.53384 8.12616 8.61381 8.18294 8.69059L7.93745 8.69379C7.84226 8.69539 7.74875 8.69219 7.65857 8.6618Z" fill="#FFD336"/>
<path d="M5.59282 12.8301C5.60618 12.8157 5.62455 12.8077 5.64125 12.8061C5.64125 12.8061 5.73143 12.8061 5.77485 12.8221C5.82495 12.8413 5.87338 12.8653 5.92515 12.8877C5.95187 12.899 5.97859 12.9102 6.00531 12.9182C6.0337 12.9262 6.06209 12.9342 6.09048 12.9406C6.14726 12.9534 6.20571 12.9566 6.26249 12.9582C6.37772 12.9614 6.4896 12.9502 6.59982 12.9454C6.65493 12.9422 6.70837 12.9422 6.76181 12.9438C6.81525 12.947 6.82861 12.9422 6.87871 12.9534L6.97223 12.8685C6.91378 12.8573 6.8236 12.8461 6.76515 12.8445C6.7067 12.8445 6.64992 12.8477 6.59314 12.8525C6.48125 12.8621 6.37103 12.8765 6.26416 12.8781C6.15561 12.8797 6.05207 12.8653 5.95187 12.8253C5.90177 12.8061 5.85 12.7836 5.79656 12.7644C5.74312 12.7452 5.68467 12.7324 5.62622 12.7292C5.51099 12.7196 5.3991 12.734 5.29055 12.734C5.18033 12.7356 5.07011 12.726 4.95822 12.7212C4.84633 12.718 4.73277 12.7196 4.62422 12.7452C4.51567 12.7692 4.41046 12.8173 4.33197 12.8941C4.4138 12.8205 4.51901 12.7772 4.62756 12.758C4.73611 12.7372 4.848 12.7388 4.95822 12.7468C5.06844 12.7548 5.17866 12.7692 5.29222 12.7724C5.3824 12.7756 5.47091 12.7708 5.55775 12.7756C5.5327 12.8029 5.516 12.8365 5.51099 12.8685C5.50097 12.923 5.50598 12.9774 5.52769 13.0287C5.53771 13.0543 5.55441 13.0767 5.57612 13.0959C5.59783 13.1152 5.62455 13.1248 5.64626 13.1344C5.69302 13.152 5.72809 13.1936 5.7331 13.2449C5.73477 13.1952 5.70304 13.144 5.65461 13.12C5.63123 13.1071 5.60952 13.0959 5.59449 13.0783C5.57946 13.0607 5.56777 13.0399 5.56109 13.0191C5.54773 12.9758 5.5494 12.9262 5.56276 12.8829C5.56777 12.8621 5.57946 12.8445 5.59282 12.8301Z" fill="#FFD336"/>
<path d="M4.6721 15.047C4.84578 15.0374 5.01946 15.0118 5.1898 14.9687C5.27497 14.9479 5.35847 14.9223 5.4403 14.8919C5.52213 14.8631 5.60229 14.8327 5.68245 14.8135C5.72253 14.8039 5.76428 14.7959 5.80102 14.7943C5.83943 14.7927 5.88118 14.7959 5.91959 14.8023C5.99808 14.8167 6.06655 14.8311 6.125 14.8743L6.22687 14.8199C6.14337 14.7639 6.02647 14.7223 5.93462 14.7111C5.88786 14.7063 5.8411 14.7031 5.79434 14.7079C5.74591 14.7127 5.70249 14.7239 5.65907 14.7367C5.57223 14.7623 5.49374 14.7975 5.41358 14.8311C5.33509 14.8631 5.25493 14.8935 5.1731 14.9175C5.00944 14.9671 4.84077 15.0022 4.66876 15.0198C4.49675 15.0374 4.32307 15.0374 4.15106 15.023C4.32307 15.047 4.49842 15.0566 4.6721 15.047Z" fill="white"/>
<path d="M8.94259 15.066C9.05949 15.0196 9.20812 15.0212 9.3484 14.9732C9.37846 14.9636 9.40852 14.9524 9.43858 14.9396C9.52375 14.9156 9.61894 14.922 9.71079 14.9444C9.80264 14.9684 9.89449 15.002 9.97632 15.0452C10.0281 15.0724 10.0748 15.1076 10.1216 15.1444C10.0565 15.1876 9.98634 15.2259 9.91286 15.2547C9.87111 15.2707 9.82769 15.2851 9.78427 15.2947C9.68574 15.1924 9.56884 15.0948 9.41854 15.05C9.33838 15.0244 9.2482 15.0196 9.1647 15.034C9.0812 15.0468 9.02776 15.0596 8.95261 15.0836L8.89249 15.09L8.94259 15.066ZM9.45528 15.3011C9.38013 15.2851 9.31333 15.2499 9.23317 15.2163C9.16971 15.1908 9.0979 15.1684 9.01941 15.1732C9.07452 15.1524 9.12963 15.1348 9.18474 15.1236C9.25655 15.1092 9.32836 15.1076 9.3985 15.1252C9.51707 15.154 9.62228 15.2227 9.71747 15.3075C9.62896 15.3219 9.53878 15.3203 9.45528 15.3011ZM22.9956 7.96413C22.7418 7.14038 22.3911 6.33742 21.9335 5.59205C21.0334 4.0917 19.7525 2.79129 18.2261 1.83798C16.7064 0.871868 14.9362 0.272049 13.1192 0.0721096C11.309 -0.123032 9.43691 0.0785076 7.73017 0.70232C6.02511 1.32773 4.48871 2.33703 3.26627 3.60864C2.04217 4.88026 1.12868 6.4062 0.577581 8.03771C-0.519606 11.3039 -0.0503368 15.034 1.94197 17.9451C2.43462 18.6713 3.01744 19.3447 3.67375 19.9493L4.16974 20.3876C4.32839 20.5219 4.48036 20.6643 4.62565 20.8115C4.91456 21.109 5.18343 21.4241 5.41556 21.7616C5.64769 22.1007 5.8531 22.4542 6.02678 22.8237C6.19545 23.1947 6.33406 23.577 6.44762 23.9657C6.55282 24.3576 6.6263 24.7543 6.67139 25.1557C6.7098 25.5604 6.7098 25.9523 6.70479 26.3858L6.68308 28.9306C6.68141 29.1321 6.6764 29.3769 6.70479 29.612C6.72984 29.8487 6.77827 30.0823 6.84841 30.3094C6.98702 30.7653 7.21247 31.1971 7.5114 31.5778C8.10926 32.3376 8.9977 32.883 9.97298 33.0782C10.464 33.1773 10.9616 33.1853 11.4409 33.1309C11.9252 33.075 12.4145 32.9486 12.8604 32.7231C13.308 32.5007 13.7071 32.1872 14.021 31.8193C14.3367 31.4514 14.5772 31.0388 14.7542 30.6133C15.1132 29.7608 15.2401 28.8682 15.2769 27.9933C15.3103 27.1152 15.2435 26.245 15.1082 25.3877C14.9629 24.5287 14.7776 23.6842 14.4235 22.8492C14.2415 22.443 14.0344 22.0623 13.844 21.6896C13.6503 21.3153 13.4766 20.933 13.3113 20.5459C12.9823 19.7718 12.7134 18.9736 12.498 18.1595C12.3627 17.6268 12.2458 17.0894 12.1523 16.5471C12.0755 16.1009 12.0755 15.6482 12.154 15.2019C12.2241 14.8101 12.3193 14.423 12.3911 14.1895C12.5398 13.7112 12.8621 13.2697 13.3263 13.0426C13.5067 12.9546 13.7037 12.9002 13.9041 12.8635C14.6323 12.7323 15.4255 12.8571 16.02 13.2809C16.0835 13.3257 16.1186 13.3801 16.1737 13.4329C16.2221 13.4793 16.2705 13.5273 16.3023 13.5864C16.3991 13.7656 16.3139 13.9783 16.2972 14.1799C16.2889 14.279 16.2972 14.3782 16.3056 14.4774C16.3373 14.8517 16.339 15.1284 16.3724 15.5027C16.3724 15.5027 16.3574 15.6162 16.3156 15.709C16.2739 15.8018 16.2655 15.9089 16.2739 16.0081C16.2789 16.0545 16.2972 16.0945 16.3173 16.1377C16.344 16.192 16.3691 16.2464 16.3958 16.3008C16.3991 16.3088 16.4058 16.3168 16.4141 16.3136C16.4192 16.312 16.4208 16.304 16.4208 16.2976C16.4225 16.1601 16.3023 16.0353 16.3256 15.8993C16.3323 15.8625 16.3507 15.8274 16.364 15.7922C16.3791 15.7554 16.3891 15.717 16.3941 15.677C16.3974 15.6546 16.3991 15.6322 16.4125 15.613C16.4141 15.6098 16.4158 15.6082 16.4192 15.6066C16.4258 15.605 16.4325 15.613 16.4359 15.6194C16.4559 15.6562 16.4826 15.6882 16.511 15.7202C16.6262 15.8561 16.7431 15.9921 16.8801 16.1089C16.9202 16.1425 16.9602 16.1745 17.002 16.2048C17.0821 16.2624 17.1773 16.3152 17.2775 16.3056C17.2458 16.2864 17.2141 16.2656 17.1823 16.2464C17.0805 16.1825 16.9769 16.1169 16.8901 16.0353C16.84 15.9873 16.7949 15.9345 16.7498 15.8817C16.6763 15.7954 16.6029 15.7074 16.5294 15.621C16.4776 15.5602 16.4475 15.4835 16.4442 15.4051C16.4325 15.1396 16.4258 14.9908 16.4141 14.7125C16.4108 14.6165 16.4058 14.5206 16.4125 14.423C16.4141 14.3974 16.4175 14.3718 16.4192 14.3462C16.5127 14.519 16.6262 14.6293 16.7498 14.7733C16.8133 14.8469 16.8751 14.9204 16.9318 14.9972C16.9886 15.074 17.0387 15.1572 17.1005 15.2339C17.1306 15.2723 17.164 15.3107 17.2007 15.3443C17.2375 15.3779 17.2792 15.4083 17.3226 15.4339C17.4095 15.4851 17.5063 15.5187 17.6049 15.5394C17.7034 15.5602 17.8036 15.5698 17.9021 15.573C17.9522 15.5746 18.0023 15.5746 18.0507 15.5746H18.1259C18.1493 15.5746 18.1777 15.5762 18.1977 15.5602C18.1777 15.5746 18.1509 15.5714 18.1259 15.5714L18.0507 15.5682C18.0006 15.5666 17.9522 15.5634 17.9021 15.5602C17.8036 15.5522 17.7051 15.5394 17.6099 15.5139C17.5147 15.4883 17.4245 15.4515 17.3443 15.4003C17.2642 15.3491 17.199 15.2803 17.1439 15.2019C17.0888 15.1252 17.0421 15.0404 16.9886 14.9588C16.9352 14.8772 16.8751 14.7989 16.8149 14.7237C16.6964 14.5733 16.5227 14.3526 16.4425 14.1863C16.4542 14.1111 16.4676 14.0375 16.4743 13.9623C16.4893 13.8088 16.4993 13.6504 16.4258 13.5129C16.4258 13.5129 16.4058 13.4569 16.4642 13.4889C16.5995 13.5608 16.7147 13.6648 16.8817 13.6216C16.9836 13.596 17.0938 13.6184 17.199 13.6056C17.4529 13.572 17.9706 13.58 17.9706 13.58C18.0591 13.58 18.1309 13.5848 18.2194 13.5944C18.3898 13.6152 18.5751 13.6504 18.6887 13.7736C18.7271 13.8152 18.7555 13.8647 18.7839 13.9143C18.8791 14.0839 18.9759 14.2598 19.0026 14.4502C19.0043 14.463 19.0077 14.479 19.021 14.4822C19.026 14.351 19.0277 14.2134 18.9726 14.0935C18.9475 14.0407 18.9125 13.9911 18.9058 13.9351C18.9576 13.9703 19.011 13.9991 19.0694 14.0231C18.9793 13.9351 18.8908 13.8472 18.8006 13.7592C18.7521 13.7128 18.7037 13.6648 18.6453 13.6312C18.5401 13.5688 18.4115 13.556 18.2879 13.5448C18.176 13.5337 18.0641 13.5241 17.9505 13.5129C17.9606 13.4969 17.989 13.4953 18.0057 13.4873C18.1292 13.4217 18.2562 13.3529 18.3346 13.2409C18.3731 13.185 18.3964 13.121 18.4165 13.057C18.4666 12.8922 18.49 12.7195 18.4866 12.5483C18.4866 12.5308 18.4783 12.5084 18.4616 12.51C18.4282 12.6907 18.3781 12.8683 18.3146 13.041C18.2912 13.105 18.2645 13.1706 18.2228 13.2249C18.1626 13.3033 18.0908 13.3705 18.0023 13.4137C17.8787 13.4745 17.7351 13.5001 17.5965 13.4825C17.4963 13.4697 17.3978 13.4377 17.2976 13.4329C17.1757 13.4281 17.0571 13.4665 16.9385 13.4905C16.82 13.5129 16.6663 13.5464 16.5711 13.4729C15.9783 13.0042 15.2986 12.6331 14.5738 12.3836C14.2816 12.2828 13.9459 12.1693 13.8357 11.8925C13.7705 11.7278 13.8039 11.5439 13.839 11.3695C13.8707 11.208 13.9075 11.04 14.0077 10.9072C14.0778 10.8145 14.1747 10.7457 14.2732 10.6817C14.502 10.533 14.7224 10.3826 14.9813 10.2914C15.1132 10.245 15.2518 10.2163 15.3888 10.1875C15.5357 10.1571 15.6827 10.1251 15.8313 10.0947C15.8931 10.0819 15.9632 10.0691 16.0167 10.1027C16.1102 10.1619 16.0785 10.2962 16.0818 10.405C16.0868 10.5793 16.2355 10.7409 16.4175 10.7665C16.339 10.7041 16.2588 10.6401 16.2054 10.5569C16.152 10.4738 16.1269 10.3666 16.167 10.277C16.2689 10.429 16.4158 10.5521 16.5878 10.6257C16.7532 10.6977 16.9369 10.7249 17.1172 10.7521C17.4045 10.7937 17.6917 10.8353 17.9789 10.8769C18.0641 10.8896 18.1509 10.9024 18.2244 10.9456C18.3196 11.0016 18.3797 11.0976 18.4415 11.1872C18.5217 11.3007 18.6169 11.4079 18.7204 11.5023C18.7371 11.4591 18.7071 11.4127 18.677 11.3775C18.5918 11.2703 18.5067 11.1616 18.4198 11.0544C18.3831 11.008 18.3447 10.96 18.2962 10.9232C18.2044 10.8545 18.0841 10.8321 17.9689 10.8161C17.6232 10.7665 17.2692 10.7457 16.9335 10.6497C16.5978 10.5537 16.2722 10.3682 16.1052 10.0739C16.0952 10.0563 16.0868 10.0371 16.0918 10.0179L16.1019 9.99872C16.4008 9.91874 16.7181 9.92994 17.0153 9.85156C17.1155 9.82597 17.2141 9.79878 17.3159 9.78758C17.7034 9.75079 18.0925 9.7316 18.4816 9.73C18.6737 9.7284 18.869 9.7316 19.0561 9.68681C19.0227 9.63403 18.9425 9.64522 18.8807 9.65322C18.7455 9.66922 18.6069 9.64042 18.4699 9.63883C18.3547 9.63883 18.2411 9.65802 18.1259 9.66762C17.847 9.69161 17.5581 9.65322 17.2909 9.7364C17.3961 9.64362 17.5063 9.54765 17.6433 9.51086C17.7084 9.49327 17.7785 9.49007 17.8437 9.47088C17.9071 9.45168 17.9656 9.41649 18.0224 9.3829C18.171 9.29173 18.3179 9.19736 18.4616 9.09979C18.4549 9.0694 18.4065 9.0758 18.3781 9.09179C18.196 9.18936 18.0307 9.32052 17.832 9.3845C17.7284 9.41809 17.6182 9.43249 17.5197 9.47727C17.4061 9.53006 17.3159 9.62123 17.2041 9.67881C17.0905 9.738 16.9602 9.75879 16.8316 9.77958C16.668 9.80517 16.5244 9.84996 16.359 9.84996L15.6693 9.90275C15.6459 9.90435 15.6359 9.87555 15.6543 9.86276C15.9081 9.70441 16.1603 9.52846 16.2872 9.26774C16.3256 9.18936 16.3524 9.10299 16.4041 9.03261C16.4693 8.94463 16.5661 8.88385 16.663 8.82627C16.7682 8.76389 16.8734 8.69991 16.9886 8.65832C17.0504 8.63593 17.1089 8.61833 17.174 8.60874C17.4212 8.57355 17.6717 8.56875 17.9205 8.56875C17.9756 8.56875 18.0324 8.56875 18.0875 8.57675C18.2228 8.59434 18.3513 8.68711 18.4465 8.79108C18.535 8.88865 18.7121 9.01501 18.8273 9.08059C18.8707 9.10619 18.9141 9.13018 18.9592 9.15577C19.0093 9.18456 19.0594 9.21335 19.1145 9.22775C19.1346 9.23255 19.1596 9.23575 19.1696 9.21975C19.1813 9.20216 19.1646 9.17816 19.1479 9.16377C19.0578 9.08539 18.9392 9.0454 18.8356 8.98622C18.7789 8.95263 18.7254 8.91424 18.672 8.87586C18.5985 8.82147 18.525 8.76709 18.4515 8.7143C18.4198 8.69191 18.3881 8.66632 18.3764 8.62953C18.3747 8.62313 18.3731 8.61513 18.3764 8.60874C18.3797 8.60074 18.3881 8.59434 18.3981 8.59114C18.4666 8.56075 18.5467 8.57835 18.6202 8.56715C18.6837 8.55755 18.7404 8.52716 18.8039 8.51596C18.8473 8.50797 18.8924 8.50957 18.9358 8.51436C19.1429 8.53516 19.3383 8.61193 19.537 8.66952C19.5905 8.68551 19.6473 8.69991 19.7007 8.68391L19.7107 8.68231C19.5754 8.58474 19.4101 8.50797 19.2465 8.47278C19.026 8.42639 18.7956 8.44239 18.5718 8.47758C18.49 8.49037 18.4065 8.50637 18.323 8.50957C18.2528 8.51276 18.1827 8.50637 18.1125 8.49997C18.0324 8.49357 17.9505 8.48557 17.8704 8.47917C17.989 8.37201 18.1092 8.26484 18.2478 8.18007C18.3864 8.09689 18.5451 8.03611 18.7071 8.03611C18.7922 8.03611 18.8807 8.0505 18.9609 8.02491C18.8523 7.98812 18.7404 7.96093 18.6252 7.95933C18.51 7.95773 18.3931 7.98492 18.3012 8.0505C18.2428 8.09369 18.196 8.14967 18.1376 8.19446C18.0841 8.23445 18.024 8.26484 17.9706 8.30323C17.9138 8.34482 17.8654 8.396 17.8069 8.43119C17.7418 8.47118 17.665 8.49197 17.5882 8.50317C17.5097 8.51436 17.4295 8.50797 17.351 8.50157C17.4796 8.3912 17.6065 8.27764 17.7301 8.16087C17.8236 8.0729 17.9155 7.98172 17.9906 7.87776C18.0441 7.80258 18.0892 7.721 18.1526 7.65222C18.2094 7.59144 18.2795 7.54506 18.3497 7.49867C18.4248 7.44909 18.4983 7.4011 18.5818 7.36431C18.6386 7.34032 18.7004 7.32752 18.7622 7.32272C18.9242 7.30673 19.0878 7.30673 19.2498 7.32112C19.3233 7.32752 19.4001 7.33712 19.4702 7.31153C19.4151 7.26194 19.335 7.25554 19.2598 7.25394C19.0828 7.24915 18.9074 7.25714 18.7321 7.27794C18.7104 7.28114 18.6787 7.27634 18.6787 7.25554C18.6787 7.24435 18.687 7.23475 18.697 7.22675C18.8306 7.10519 18.8707 6.91965 18.9542 6.76129C18.9893 6.69571 19.0327 6.63173 19.0377 6.55815C19.0377 6.54856 19.0377 6.53896 19.0327 6.53256C19.016 6.51337 18.9859 6.53576 18.9726 6.55655C18.9108 6.65253 18.8557 6.7533 18.8073 6.85566C18.7672 6.94044 18.7338 7.02841 18.6853 7.10999C18.6369 7.19156 18.5718 7.26674 18.4866 7.31153C18.4115 7.35151 18.3196 7.36911 18.2695 7.43629C18.2628 7.3931 18.3146 7.36591 18.3413 7.32912C18.3614 7.30193 18.368 7.26994 18.3797 7.23955C18.4232 7.14038 18.535 7.0844 18.5918 6.99002C18.6519 6.88925 18.6352 6.76449 18.6703 6.65413C18.702 6.55016 18.7772 6.46538 18.8273 6.36941C18.8791 6.27184 18.9058 6.16467 18.9308 6.05751C18.9358 6.03671 18.9375 6.00792 18.9158 5.99992C18.8707 6.02551 18.8557 6.0815 18.839 6.12948C18.7989 6.23985 18.7254 6.33582 18.6787 6.44459C18.6236 6.57095 18.6035 6.71011 18.5484 6.83647C18.51 6.92284 18.4549 7.00282 18.3998 7.0812C18.333 7.17717 18.2779 7.27634 18.2111 7.37231C18.2111 7.37231 18.0608 7.67302 17.9439 7.80258C17.8253 7.93534 17.7067 8.0665 17.5865 8.19766C17.5247 8.26484 17.4612 8.33362 17.3844 8.3848C17.2341 8.48397 17.0554 8.53196 16.8868 8.59914C16.6914 8.67752 16.5294 8.81347 16.3707 8.94783L16.4008 8.4024C16.4075 8.26804 16.4425 8.13688 16.4809 8.00732C16.5177 7.87936 16.5194 7.7354 16.5711 7.60904C16.6329 7.45708 16.7598 7.34032 16.865 7.21396C16.9686 7.09079 17.1155 6.76609 17.1155 6.76609C16.9903 6.88286 16.9085 7.086 16.7181 7.29873C16.7047 7.22035 16.7081 7.13878 16.7398 7.0652C16.7949 6.93404 17.3827 6.35342 17.5497 6.23185C17.4629 6.25105 16.9519 6.7261 16.7498 6.88766C16.7982 6.7341 17.321 6.31503 17.4596 6.23665C17.2592 6.31503 17.1272 6.3966 16.997 6.50537C16.9001 6.58535 16.8183 6.64133 16.7314 6.7293C16.7064 6.66692 16.7064 6.59814 16.7014 6.53096C16.6914 6.34862 16.6563 6.16787 16.6012 5.99192C16.5611 6.13908 16.6145 6.29263 16.6446 6.44139C16.6864 6.64613 16.683 6.81728 16.6596 7.02361C16.6563 7.04921 16.6496 7.078 16.6396 7.12118C16.5878 7.23955 16.5377 7.35951 16.486 7.47788C16.4475 7.3995 16.4091 7.32112 16.3724 7.24435C16.329 7.15637 16.2856 7.0652 16.2689 6.96923C16.2572 6.89405 16.2622 6.81568 16.2555 6.7405C16.2371 6.53096 16.1286 6.33262 16.1286 6.12149C16.1085 6.4094 16.1837 6.71331 16.2154 6.95643C16.172 6.96123 16.1386 6.92444 16.1119 6.89245C15.9883 6.7405 15.6793 6.43499 15.6793 6.43499C15.8079 6.67972 16.0835 6.90845 16.2338 7.14358C16.2672 7.19796 16.2972 7.25394 16.3256 7.31153C16.3574 7.37231 16.3874 7.43469 16.4041 7.50187C16.4192 7.56905 16.4175 7.63943 16.4158 7.70821C16.4141 7.77859 16.4125 7.85056 16.4041 7.92094C16.3908 8.04731 16.339 8.17846 16.3306 8.30483C16.3006 8.76549 16.182 9.31252 15.7879 9.61163C15.5641 9.78118 15.2819 9.85956 15.0063 9.93314C14.7709 9.99712 14.5354 10.0595 14.2999 10.1235C14.0912 10.1795 13.8791 10.237 13.6637 10.2306C13.0708 10.2163 12.5565 9.65642 12.6149 9.09179C12.6366 8.88705 12.7218 8.68711 12.7151 8.48077C12.7051 8.18326 12.503 7.90175 12.5498 7.60584C12.5865 7.36431 12.9973 7.04121 12.9973 7.04121C13.338 6.80288 13.5267 6.37581 13.8574 6.12468C13.8908 6.09909 13.9259 6.0751 13.9643 6.0607C14.0194 6.03991 14.0795 6.03991 14.1396 6.03991C14.4035 6.04471 14.6657 6.0799 14.9195 6.14708C14.9729 6.16147 15.0264 6.17587 15.0815 6.18547C15.1032 6.18867 15.1299 6.19027 15.1416 6.17267C15.16 6.14548 15.1216 6.11509 15.0882 6.10389C14.7709 5.99192 14.4302 5.94394 14.0929 5.96313C14.2832 5.77759 14.507 5.62084 14.7492 5.50247C14.7976 5.47848 14.8477 5.45609 14.9011 5.45449C14.9429 5.45289 14.9997 5.45449 15.008 5.4145C14.9713 5.38731 14.9195 5.3985 14.8761 5.4113C14.6573 5.47208 14.4385 5.54886 14.2565 5.68002C14.1079 5.78719 13.986 5.92794 13.839 6.03831C13.7605 6.09749 13.6737 6.14708 13.6152 6.22386C13.7071 6.0879 13.8023 5.94714 13.8975 5.81278C13.9275 5.77119 13.9559 5.7296 13.986 5.68802C14.0327 5.62244 14.0795 5.55526 14.1263 5.48968C14.178 5.4161 14.2315 5.34252 14.2966 5.28014C14.4218 5.16337 14.5939 5.085 14.674 4.93624C14.6389 4.91865 14.5872 4.94904 14.5872 4.94904C14.1346 5.15378 13.9075 5.63043 13.6353 6.03351C13.3931 6.3918 13.0909 6.71171 12.7452 6.97883C12.5865 7.10039 12.4078 7.22675 12.3611 7.4155C12.3544 7.20756 12.351 6.99962 12.3527 6.79008C12.3527 6.7405 12.3544 6.68772 12.3844 6.64613C12.4212 6.59334 12.493 6.57575 12.5481 6.54056C12.645 6.47818 12.6934 6.36461 12.7819 6.29104C12.8971 6.19666 13.0575 6.18547 13.2011 6.14388C13.4048 6.0847 13.5835 5.95354 13.6987 5.78079C13.49 5.99512 13.1794 6.12948 12.8771 6.16627C13.0524 5.92634 12.9907 5.60164 12.9239 5.31533C12.8871 5.47208 12.9506 5.63683 12.9322 5.79518C12.9072 6.01432 12.7351 6.19027 12.5915 6.35502C12.5598 6.3918 12.5114 6.4142 12.4613 6.411C12.3661 6.403 12.346 6.31663 12.336 6.24145C12.2776 5.80158 12.2358 5.35852 12.2091 4.91545C12.2024 4.81948 12.1991 4.72031 12.2241 4.62754C12.2726 4.45639 12.4162 4.32843 12.5381 4.19407C12.65 4.0709 12.7468 3.93654 12.827 3.79419C12.8253 3.7638 12.7752 3.77979 12.7569 3.80378C12.5832 4.01812 12.4095 4.23246 12.2375 4.44679C12.1172 4.16208 12.2508 3.84217 12.3828 3.56226C12.3694 3.53986 12.3327 3.53986 12.3093 3.55426C12.2876 3.57025 12.2759 3.59585 12.2675 3.62144C12.1089 4.05651 12.1256 4.52837 12.144 4.98903C12.1523 5.17457 12.159 5.36012 12.2007 5.54086C12.2074 5.56805 12.2124 5.60004 12.1957 5.62244C12.0003 5.29773 11.9185 4.91065 11.967 4.53956C11.8801 4.63873 11.8885 4.78269 11.9018 4.91225C11.9252 5.14258 11.9553 5.38891 12.1089 5.56805C11.7582 5.35372 11.4593 5.06101 11.2455 4.71871C11.1854 4.72671 11.1971 4.81468 11.2271 4.86586C11.4225 5.18577 11.7215 5.44489 12.0722 5.59844C12.1106 5.61444 12.1507 5.63203 12.1757 5.66242C12.2091 5.70241 12.2124 5.7584 12.2141 5.80958C12.2191 5.93914 12.2241 6.0687 12.2291 6.19826C12.2291 6.21426 12.2291 6.23185 12.2174 6.24305C12.1974 6.26064 12.1657 6.24305 12.144 6.22865C12.0671 6.18067 11.8851 6.19986 11.8601 6.28144C11.8567 6.29103 11.8668 6.29903 11.8768 6.29583C11.982 6.26864 12.0972 6.27664 12.1974 6.31823C12.2275 6.33102 12.2575 6.34862 12.2726 6.37741C12.2842 6.4014 12.2826 6.42859 12.2809 6.45579C12.2642 6.66532 12.2492 6.87646 12.2325 7.08599C12.1189 6.89725 12.0054 6.70851 11.8901 6.51817C11.805 6.37581 11.7098 6.22705 11.5561 6.15508C11.4927 6.12628 11.4225 6.11189 11.3641 6.0767C11.1921 5.97273 11.1737 5.7392 11.0468 5.58725C10.99 5.52007 10.9149 5.47048 10.8514 5.4081C10.7879 5.34732 10.7345 5.26574 10.7445 5.17937C10.661 5.24655 10.7061 5.38091 10.7846 5.45449C10.8614 5.52806 10.9666 5.57925 11.0134 5.67362C11.0384 5.72481 11.0434 5.78399 11.0635 5.83837C11.0952 5.92794 11.1654 6.00472 11.2539 6.04631C11.1203 6.12468 10.9316 6.10709 10.8163 6.00312C10.7579 5.95034 10.6911 5.87036 10.6159 5.89915C10.676 5.99193 10.7562 6.0671 10.8631 6.11509C10.5642 6.16147 10.2535 6.14548 9.96129 6.0687C9.85775 6.04151 9.7325 6.01112 9.65401 6.0799C9.80932 6.11029 9.96463 6.14068 10.1199 6.17267C10.2752 6.20306 10.4339 6.23505 10.5925 6.22865C10.843 6.21906 11.0869 6.11829 11.3357 6.15188C11.3524 6.15667 11.3691 6.16147 11.3858 6.16627C11.4125 6.17427 11.4376 6.18227 11.4609 6.19506C11.4776 6.20466 11.4927 6.21746 11.5077 6.23025C11.5277 6.24625 11.5444 6.27024 11.5678 6.27984C11.7782 6.36781 11.9369 6.7549 12.0872 7.05081C12.1273 7.13078 12.1807 7.20596 12.2007 7.29393C12.2358 7.43949 12.1907 7.58984 12.164 7.7354C12.0889 8.13528 12.1289 8.54636 12.0788 8.94943C12.0271 9.35251 11.8551 9.77638 11.486 9.97632C11.1637 10.1507 10.7545 10.1139 10.4172 9.96673C10.0799 9.82117 9.80097 9.57804 9.52709 9.33972C9.33504 9.17177 9.14132 9.00382 8.94927 8.83587C8.88247 8.77669 8.814 8.65832 8.81233 8.57035C8.81066 8.47598 8.83905 8.3848 8.87078 8.29683C8.97265 8.01691 9.10124 7.745 9.16804 7.45548C9.19643 7.33552 9.21313 7.21236 9.25989 7.09719C9.29997 6.99802 9.36009 6.90845 9.39516 6.80768C9.39683 6.80128 9.40017 6.79328 9.39683 6.78689C9.38848 6.76929 9.36009 6.78369 9.3484 6.79968C9.20311 6.99962 9.13965 7.24115 9.05782 7.47148C9.02275 7.56905 8.98601 7.66662 8.9476 7.76259C8.85742 7.99452 8.76557 8.22645 8.67539 8.45838C8.62863 8.4104 8.61193 8.34162 8.60024 8.27604C8.53845 7.93854 8.55682 7.58664 8.65368 7.25714C8.70545 7.0796 8.77893 6.90685 8.85241 6.7357C8.88414 6.66372 8.9142 6.59174 8.94593 6.51817C8.92756 6.50697 8.90084 6.51337 8.88414 6.52776C8.86744 6.54216 8.85909 6.56295 8.85074 6.58375C8.81901 6.65732 8.78895 6.7325 8.75722 6.80608C8.62028 7.13078 8.48167 7.46348 8.46664 7.81378C8.4132 7.7434 8.39984 7.65382 8.38815 7.56745C8.37479 7.46828 8.36143 7.37071 8.35475 7.26994C8.34139 7.0732 8.35141 6.87326 8.39483 6.68132C8.41821 6.57575 8.43324 6.46858 8.42322 6.35981C8.40652 6.18707 8.37646 6.00952 8.41153 5.83837C8.45829 5.60324 8.62696 5.38251 8.58855 5.14578C8.58688 5.13458 8.58187 5.12019 8.57018 5.12019C8.56016 5.12019 8.55348 5.12978 8.55014 5.13778C8.49002 5.25775 8.51006 5.4017 8.45829 5.52646C8.43157 5.59045 8.38815 5.64643 8.36477 5.71041C8.33972 5.77919 8.33805 5.85277 8.34306 5.92475C8.35141 6.0623 8.3798 6.19986 8.36811 6.33742C8.36143 6.42859 8.33638 6.51657 8.31801 6.60454C8.26123 6.87166 8.24954 7.14678 8.28294 7.4171C8.26791 7.43309 8.24119 7.4139 8.2295 7.3963C8.13097 7.25714 8.01741 7.12758 7.89049 7.01242C7.80198 6.93244 7.70679 6.85726 7.64166 6.75969C7.55148 6.62533 7.52643 6.46218 7.51307 6.30223C7.49971 6.14388 7.49637 5.98073 7.44293 5.83037C7.40786 5.7344 7.37613 5.63683 7.34607 5.53926C7.33271 5.49447 7.31434 5.44489 7.27092 5.42889C7.26424 5.48488 7.28428 5.54086 7.30265 5.59365C7.36277 5.77119 7.39784 5.95514 7.40619 6.14068C7.40953 6.20306 7.40953 6.26544 7.41621 6.32782C7.43458 6.50857 7.50305 6.68292 7.61327 6.83007C7.47967 6.70531 7.32436 6.61894 7.17573 6.51177C7.12229 6.47338 7.06885 6.42379 7.01875 6.38061C6.81501 6.20306 6.67139 5.94234 6.54113 5.728C6.52276 5.69921 6.4877 5.67202 6.4543 5.68642C6.45263 5.68962 6.45262 5.69281 6.45262 5.69441C6.45262 5.736 6.46765 5.7456 6.48769 5.78239L6.49938 5.79998C6.66972 6.04471 6.82503 6.31183 7.0438 6.51977C7.19744 6.66532 7.39951 6.76129 7.56985 6.89085C7.83037 7.08919 8.11761 7.27794 8.26123 7.56425C8.33137 7.70181 8.36143 7.85376 8.39984 8.00092C8.47165 8.27923 8.44326 8.63433 8.67205 8.81987C8.91921 9.02141 9.14633 9.24534 9.3484 9.48847C9.04446 9.45168 8.73551 9.44368 8.42823 9.46288C8.29129 9.47088 8.15602 9.48527 8.02075 9.49967C7.8955 9.51246 7.77025 9.52526 7.645 9.53806C7.21414 9.58284 6.79998 9.56205 6.38249 9.67402C6.38249 9.67402 6.31402 9.68681 6.2873 9.7156C6.28396 9.7188 6.28563 9.7236 6.28897 9.7252C6.31235 9.74599 6.34575 9.75239 6.37915 9.75719C6.44595 9.76679 6.51608 9.77478 6.58288 9.76359C6.61628 9.75719 6.64801 9.74759 6.68141 9.738C6.84841 9.68521 7.01708 9.62763 7.19243 9.63563C7.20412 9.63563 7.21748 9.63723 7.22416 9.64682C7.00038 9.738 6.78495 9.84356 6.5762 9.96353C6.49771 10.0083 6.41756 10.0611 6.38249 10.1411C6.73652 10.0323 7.02543 9.76679 7.38782 9.69321C7.6784 9.63403 7.99069 9.70441 8.27292 9.61323C8.39984 9.57325 8.53344 9.49967 8.65869 9.54605C8.66537 9.54925 8.67205 9.55085 8.67706 9.55725C8.70044 9.58124 8.66537 9.61643 8.65535 9.64842C8.63698 9.7076 8.71046 9.74919 8.74386 9.80198C8.78394 9.86756 8.75388 9.95073 8.72048 10.0211C8.68708 10.0899 8.64867 10.1667 8.67372 10.2402C8.74219 10.1363 8.79563 10.0227 8.83404 9.90594C8.85074 9.85636 8.86243 9.79878 8.83404 9.75399C8.81901 9.73 8.79396 9.714 8.77726 9.69161C8.76056 9.66922 8.75388 9.63563 8.77559 9.61643C8.78394 9.61003 8.79396 9.60684 8.80398 9.60524C8.86911 9.59404 8.93424 9.59084 9.00104 9.58764C9.11794 9.58444 9.24486 9.57644 9.35842 9.61483C9.43357 9.64042 9.4987 9.68521 9.55882 9.7364C9.63731 9.80517 9.70745 9.88675 9.76757 9.97153C9.83771 10.0675 9.89282 10.1731 9.93624 10.2834C10.0164 10.4882 10.0966 10.6913 10.1767 10.896C10.2318 11.0352 10.2869 11.1824 10.2552 11.3279C10.2018 11.5726 9.9329 11.7086 9.69242 11.8046C8.814 12.1565 7.87045 12.454 6.92189 12.3356C6.82002 12.31 6.71982 12.2492 6.62463 12.2045C6.57787 12.1821 6.53112 12.1549 6.48436 12.1293C6.4376 12.1037 6.39084 12.0781 6.34408 12.0509C6.29565 12.0221 6.24722 11.9917 6.2038 11.9565C6.2038 11.9517 6.20547 11.9437 6.20881 11.9341C6.21549 11.9149 6.2205 11.8909 6.22217 11.8702C6.22551 11.827 6.21716 11.7854 6.20547 11.747C6.19545 11.7086 6.17541 11.6718 6.16706 11.635C6.16205 11.6174 6.16205 11.5982 6.16873 11.5806C6.17541 11.563 6.19044 11.5471 6.21048 11.5423C6.19044 11.5439 6.17207 11.5582 6.16038 11.5758C6.14869 11.5934 6.14702 11.6158 6.14869 11.6366C6.15203 11.6782 6.16539 11.715 6.1704 11.7534C6.17541 11.7918 6.17708 11.8286 6.16873 11.8638C6.16539 11.8813 6.15871 11.8957 6.15036 11.9117C6.13366 11.8957 6.11696 11.8797 6.10193 11.8622C6.04348 11.7934 6.0034 11.7086 6.00006 11.619C6.00006 11.611 6.00006 11.6014 6.00006 11.5934C6.00173 11.5455 6.0201 11.5007 6.04181 11.4511C6.06352 11.4015 6.08189 11.3503 6.09191 11.2975C6.11362 11.192 6.11529 11.0848 6.1036 10.9792C6.09358 10.8737 6.07354 10.7713 6.05016 10.6689C6.03847 10.6177 6.02678 10.5649 5.99672 10.5202C5.96833 10.4754 5.91823 10.4386 5.86312 10.4386C5.91823 10.4418 5.96499 10.4802 5.99171 10.5234C6.01843 10.5681 6.02845 10.6209 6.0368 10.6721C6.05517 10.7745 6.0702 10.8785 6.07688 10.9824C6.08189 11.0864 6.07688 11.1904 6.05183 11.2895C6.04014 11.3391 6.0201 11.3871 5.99839 11.4335C5.9867 11.4575 5.97501 11.4815 5.96499 11.5071C5.95831 11.5247 5.9533 11.5438 5.94996 11.5614C5.88984 11.4959 5.82304 11.4367 5.7529 11.3839C5.66105 11.3151 5.56586 11.2527 5.46399 11.2016C5.36212 11.1504 5.24689 11.1152 5.12999 11.1184C5.01476 11.1232 4.89786 11.168 4.82772 11.2575C4.9012 11.1728 5.01977 11.1344 5.12999 11.136C5.24188 11.1376 5.35043 11.1776 5.44729 11.2319C5.54415 11.2863 5.63433 11.3535 5.7195 11.4239C5.803 11.4959 5.87815 11.5614 5.93994 11.6494L5.94662 11.659C5.95497 11.7486 5.99505 11.8334 6.05016 11.9037C6.1203 11.9933 6.21215 12.0605 6.304 12.1197C6.34909 12.1501 6.39585 12.1773 6.44261 12.206C6.48937 12.2332 6.53612 12.2636 6.58455 12.2892C6.67306 12.3356 6.76825 12.374 6.86511 12.4044C6.77994 12.4508 6.69644 12.4908 6.60793 12.4956C6.55783 12.4988 6.50773 12.4908 6.46431 12.47C6.4209 12.4476 6.38082 12.4124 6.34074 12.374C6.26225 12.2956 6.16873 12.2077 6.04181 12.1773C5.97835 12.1629 5.91656 12.1661 5.85811 12.1709C5.79966 12.1757 5.74455 12.1805 5.68944 12.1757C5.63433 12.1709 5.57922 12.1613 5.52578 12.1453C5.49906 12.1373 5.47234 12.1261 5.44061 12.1197C5.41055 12.1117 5.37548 12.1101 5.34542 12.1181C5.30534 12.1277 5.19679 12.1453 5.18844 12.1437C5.17007 12.1421 5.16005 12.1437 5.14502 12.1421H5.06319C5.00975 12.1421 4.95464 12.1421 4.9012 12.1405C4.79432 12.1357 4.68744 12.1245 4.59058 12.0861C4.49205 12.0493 4.41022 11.9805 4.32672 11.9149C4.24322 11.8494 4.15137 11.7854 4.04282 11.7662C4.1497 11.7902 4.23487 11.859 4.31503 11.9277C4.39519 11.9965 4.47368 12.0717 4.57722 12.1165C4.67909 12.1629 4.78931 12.1805 4.89953 12.1901C4.95464 12.1949 5.00808 12.1981 5.06319 12.2013L5.14335 12.206C5.15504 12.2077 5.17174 12.2077 5.1851 12.2093C5.14335 12.2412 5.09826 12.2684 5.04816 12.2876C4.94295 12.3292 4.82772 12.3452 4.71416 12.342C4.59893 12.3404 4.48537 12.3228 4.37014 12.3052C4.4837 12.3276 4.59726 12.3484 4.71249 12.3548C4.82772 12.3612 4.94629 12.3516 5.05818 12.3116C5.11329 12.2924 5.16673 12.2636 5.21182 12.2284C5.25858 12.1965 5.30367 12.1613 5.35377 12.1517C5.40387 12.1405 5.45397 12.1629 5.50908 12.1837C5.56419 12.2045 5.62431 12.2172 5.68276 12.2236C5.803 12.2396 5.92324 12.2077 6.02177 12.2364C6.07187 12.2508 6.11863 12.2764 6.16038 12.31C6.20213 12.342 6.23887 12.382 6.27895 12.4236C6.31903 12.4652 6.36077 12.5084 6.41922 12.5403C6.476 12.5739 6.54614 12.5867 6.6096 12.5835C6.67473 12.5819 6.73652 12.5659 6.79497 12.5435C6.85175 12.5212 6.88849 12.502 6.94026 12.4764L6.95028 12.4748C7.18408 12.4588 7.41788 12.4556 7.65168 12.4668C7.34774 12.5771 7.06885 12.7547 6.84674 12.9818C6.80833 13.0202 6.77326 13.0618 6.73819 13.1034C6.69978 13.1482 6.66304 13.1946 6.62463 13.2393C6.58455 13.2857 6.54447 13.3289 6.49938 13.3705C6.45596 13.4105 6.4092 13.4489 6.35744 13.4809C6.34909 13.4857 6.3424 13.4889 6.33239 13.4921C6.32237 13.4953 6.31402 13.4969 6.304 13.5001C6.27895 13.5081 6.2539 13.5161 6.22885 13.5241C6.22217 13.5273 6.21549 13.5289 6.20881 13.5321C6.16539 13.5512 6.12197 13.5656 6.07521 13.572C6.0702 13.5736 6.06352 13.5736 6.05851 13.5736C6.05851 13.5736 5.97501 13.5768 5.9366 13.572C5.88984 13.5656 5.84475 13.5496 5.79799 13.5337C5.70614 13.4985 5.60427 13.4745 5.50574 13.4761C5.40554 13.4761 5.30701 13.4953 5.21516 13.5353C5.30701 13.5017 5.40721 13.4889 5.50407 13.4937C5.6026 13.4985 5.69445 13.5273 5.78463 13.5672C5.82972 13.5864 5.87648 13.6056 5.92825 13.6152C5.93994 13.6184 5.95163 13.62 5.96332 13.6216C5.95163 13.6296 5.94161 13.6376 5.93159 13.6472C5.89652 13.6792 5.86813 13.716 5.84308 13.7528C5.8364 13.764 5.82972 13.7736 5.82471 13.7848L5.77294 13.7928C5.67441 13.8088 5.57588 13.82 5.47735 13.8136C5.42892 13.8104 5.37882 13.804 5.33206 13.7896C5.2853 13.7768 5.24021 13.756 5.19679 13.732C5.11162 13.684 5.02979 13.6216 4.93293 13.5944C5.02812 13.628 5.10327 13.6936 5.18677 13.748C5.22852 13.7752 5.27361 13.7992 5.32204 13.8168C5.37047 13.8328 5.42057 13.844 5.47234 13.8504C5.57421 13.8616 5.67775 13.8552 5.77795 13.8456L5.78964 13.844C5.76459 13.8903 5.74121 13.9351 5.71282 13.9783C5.66773 14.0487 5.60427 14.1095 5.53246 14.1591C5.46065 14.2086 5.38049 14.247 5.29699 14.2774C5.38216 14.2518 5.46566 14.2182 5.54248 14.1735C5.6193 14.1287 5.68944 14.0695 5.74288 13.9991C5.78296 13.9479 5.81469 13.8919 5.84809 13.8392L5.92825 13.8312C5.9533 13.8296 5.97668 13.8264 5.99672 13.828C6.00507 13.828 6.01175 13.8296 6.01843 13.8328C5.99171 13.9015 5.97668 13.9735 5.95497 14.0407C5.89151 14.247 5.77294 14.4358 5.65604 14.6229C5.78296 14.4438 5.91322 14.2614 5.99004 14.0519C6.0201 13.9687 6.04348 13.8839 6.08356 13.812C6.08356 13.812 6.09191 13.8008 6.09024 13.7992C6.09859 13.7848 6.10694 13.772 6.11696 13.7592C6.18042 13.676 6.26893 13.5928 6.38416 13.5592C6.49938 13.5241 6.82002 13.177 6.82002 13.177C7.0605 12.9642 7.30766 12.7467 7.60492 12.6187C8.06918 12.4188 8.60024 12.454 9.10124 12.3692C9.39182 12.3212 9.69743 12.2972 9.98133 12.2172C10.0431 12.1997 10.1049 12.2396 10.1133 12.3004C10.1249 12.3868 10.0999 12.4812 10.0548 12.5579C9.98967 12.6715 9.78594 12.8459 9.78594 12.8459C9.53878 13.1274 9.19142 13.3161 8.88414 13.5368C8.57853 13.7576 8.31968 14.0311 8.07252 14.3126C7.97232 14.4278 7.86544 14.5477 7.72015 14.6005C7.65669 14.6229 7.58989 14.6325 7.52142 14.6405C7.20913 14.6725 6.89517 14.6853 6.58288 14.7269C6.10193 14.7909 5.57087 15.2659 5.49405 15.3635C5.46566 15.3987 5.43727 15.4323 5.40721 15.4675C5.32371 15.4739 5.23854 15.4755 5.15337 15.4739C5.14502 15.4739 5.08824 15.4723 5.08824 15.4723C5.0515 15.4707 5.01643 15.4707 4.97969 15.4691C4.92124 15.4659 4.86279 15.4643 4.80434 15.4675C4.68577 15.4739 4.57221 15.5075 4.467 15.5586C4.41523 15.5842 4.36513 15.6146 4.31837 15.6466C4.27161 15.6786 4.22318 15.7122 4.16473 15.7202C4.22318 15.7138 4.27495 15.6818 4.32171 15.6514C4.37014 15.621 4.42024 15.5922 4.47201 15.5698C4.57722 15.5234 4.69078 15.4947 4.80434 15.4931C4.86112 15.4915 4.91957 15.4963 4.97635 15.5011C4.99806 15.5027 5.01977 15.5043 5.04148 15.5059L4.968 15.5602C4.92124 15.5954 4.87448 15.6242 4.8177 15.6386C4.70581 15.669 4.57889 15.6546 4.46199 15.6834C4.58223 15.6658 4.7008 15.693 4.82605 15.6738C4.88951 15.6658 4.94963 15.6354 4.99973 15.605L5.1517 15.5139C5.22184 15.5171 5.29365 15.5187 5.36546 15.5171C5.21516 15.6946 5.05484 15.8625 4.88617 16.0241C4.8344 16.0721 4.78096 16.1217 4.71082 16.1409C4.62398 16.1649 4.51877 16.1393 4.44696 16.192C4.58891 16.1984 4.73086 16.1841 4.8678 16.1473C4.81102 16.2816 4.76259 16.4208 4.72585 16.5615C4.77929 16.5136 4.8344 16.4624 4.8678 16.3984C4.91623 16.3072 4.91623 16.2 4.96132 16.1089C4.98971 16.0497 5.0348 16.0001 5.07822 15.9505C5.21015 15.805 5.34041 15.6578 5.47234 15.5123C5.48236 15.5123 5.49238 15.5107 5.5024 15.5107C5.6193 15.5027 5.7362 15.4851 5.85143 15.4563C5.90821 15.4419 5.96499 15.4211 6.01676 15.4083C6.06853 15.3955 6.11863 15.3987 6.17708 15.4035C6.29732 15.4147 6.41589 15.4051 6.53112 15.4019L6.87847 15.3875L6.90185 15.2819L6.52444 15.3107C6.40754 15.3187 6.29398 15.3315 6.18209 15.3267C6.1537 15.3251 6.12364 15.3235 6.09191 15.3251C6.06018 15.3267 6.02678 15.3315 5.99672 15.3395C5.9366 15.3571 5.88483 15.3779 5.83139 15.3939C5.73119 15.4243 5.62765 15.4435 5.52244 15.4563C5.57588 15.3971 5.62932 15.3363 5.68276 15.2771C5.74622 15.2051 5.81469 15.1524 5.91155 15.1012C5.91155 15.1012 6.77159 14.8037 7.22416 14.7749C7.32102 14.7685 7.42122 14.7637 7.5114 14.7973C7.42456 14.8996 7.33939 14.9332 7.25088 15.0116C7.16738 15.0836 7.05716 15.154 6.97366 15.2275C6.95028 15.2483 6.9269 15.2675 6.91187 15.2947C6.8935 15.3251 6.88849 15.3603 6.88181 15.3939C6.85342 15.5602 6.82169 15.725 6.78829 15.8913C6.69978 16.3168 6.49938 16.8526 6.25056 16.9918C6.07855 17.0878 5.87982 17.123 5.70113 17.2077C5.68276 17.2157 5.66272 17.2285 5.66105 17.2477C5.72284 17.2621 5.78964 17.2621 5.85143 17.2461C5.89318 17.2365 5.93159 17.2189 5.97167 17.2029C6.04515 17.171 6.11696 17.139 6.18877 17.1054C6.26392 17.0718 6.33907 17.0366 6.40587 16.9918C6.47267 16.9454 6.52276 16.899 6.55616 16.8271C6.55616 16.8271 6.56618 16.8031 6.57119 16.7919C6.57787 16.8287 6.57954 16.867 6.57787 16.9038C6.57286 16.9806 6.55116 17.0574 6.57287 17.1326C6.58789 17.1854 6.62129 17.2301 6.65636 17.2717C6.66972 17.2877 6.68475 17.3037 6.6931 17.3229C6.70479 17.3485 6.70646 17.3773 6.70479 17.4061C6.6931 17.5276 6.60459 17.6268 6.54113 17.7308C6.51608 17.7708 6.49604 17.8188 6.51775 17.8603C6.59791 17.7852 6.66304 17.694 6.70479 17.5932C6.73819 17.5149 6.75656 17.4317 6.79998 17.3597C6.80499 17.3517 6.81167 17.3437 6.82002 17.3469C6.82336 17.3485 6.8267 17.3517 6.82837 17.3549C6.89517 17.4621 6.98368 17.5548 7.07052 17.646C7.10559 17.6828 7.14233 17.7212 7.19243 17.734C7.11394 17.6092 6.99203 17.5133 6.91688 17.3869C6.8768 17.3197 6.85008 17.2445 6.82503 17.171C6.77994 17.0414 6.76324 16.9118 6.73318 16.7759C6.67807 16.5279 6.72817 16.2768 6.83505 16.0449C6.92356 15.853 6.90686 15.6226 7.00372 15.4291C7.08889 15.2563 7.25589 15.1348 7.42623 15.034C7.59657 14.9332 7.77693 14.8469 7.92222 14.7157C7.94059 14.6981 7.97065 14.6805 7.98902 14.6981C7.9957 14.7029 7.99737 14.7109 8.00071 14.7189C8.01574 14.7589 8.0291 14.8005 8.04413 14.8405C8.06584 14.9044 8.12262 14.9492 8.1627 15.0036C8.17773 15.026 8.19443 15.0468 8.20445 15.0724C8.2295 15.1348 8.21614 15.2051 8.20779 15.2723C8.17606 15.5522 8.35141 16.0657 8.3965 16.1904C8.40318 16.2064 8.39984 16.224 8.39149 16.24C8.35809 16.2992 8.33972 16.4112 8.32469 16.4592C8.30632 16.5152 8.2963 16.5727 8.28628 16.6271C8.26624 16.7359 8.23952 16.8431 8.20445 16.9486C8.13765 17.1598 8.04413 17.3661 7.92723 17.558C8.05749 17.3725 8.16604 17.1726 8.24787 16.963C8.28962 16.8574 8.32469 16.7503 8.35308 16.6415C8.37813 16.5439 8.40318 16.4448 8.4633 16.3776C8.47332 16.3984 8.48501 16.4192 8.49837 16.4368C8.52509 16.4736 8.55515 16.504 8.58521 16.5327C8.647 16.5887 8.71046 16.6367 8.76724 16.6895C8.85575 16.7711 8.93758 16.859 9.01106 16.9534C9.01106 16.9534 9.03945 16.995 9.04446 16.9982C9.05615 17.0126 9.06617 17.027 9.07786 17.043C9.12295 17.107 9.1647 17.1742 9.20311 17.2429C9.24152 17.3117 9.27325 17.3837 9.31166 17.4525C9.35007 17.5228 9.39349 17.5916 9.45361 17.646C9.51206 17.702 9.58554 17.7452 9.6657 17.7596C9.58554 17.742 9.51707 17.6956 9.46196 17.638C9.40685 17.5804 9.36844 17.5117 9.33504 17.4413C9.30164 17.3709 9.27325 17.2973 9.23818 17.2253C9.20812 17.1614 9.17305 17.0974 9.13464 17.0366C9.17973 17.051 9.22482 17.0606 9.27158 17.0686C9.35508 17.0814 9.43691 17.0862 9.51874 17.0926C9.60057 17.1006 9.68073 17.1118 9.75755 17.1342C9.83437 17.1582 9.90785 17.1949 9.96463 17.2541C9.91286 17.1917 9.84105 17.1486 9.76423 17.1182C9.68741 17.0878 9.60558 17.0718 9.52375 17.0574C9.44192 17.0446 9.36176 17.0334 9.28327 17.0158C9.21146 16.9998 9.14299 16.9758 9.08287 16.9342H9.07118C8.9977 16.8271 8.91587 16.7263 8.82402 16.6319C8.76724 16.5727 8.7138 16.5088 8.65034 16.4656C8.57519 16.4144 8.48501 16.2336 8.48501 16.2336C8.48501 16.2336 8.23117 15.4547 8.3631 15.0372C8.36644 15.0276 8.37312 15.018 8.38147 15.0148C8.39817 15.0084 8.41654 15.0116 8.43491 15.0164C8.6136 15.066 8.77893 15.1572 8.91587 15.2867C8.89583 15.3171 8.88247 15.3235 8.88414 15.3491C8.88581 15.3763 8.88915 15.4003 8.89416 15.4243C8.90251 15.4739 8.92088 15.5235 8.94927 15.5666C8.97599 15.6082 9.00772 15.645 9.02609 15.6882C9.04446 15.7298 9.04947 15.7826 9.01941 15.8226C9.05448 15.7858 9.05615 15.7298 9.04279 15.6818C9.02943 15.6338 9.00104 15.5906 8.981 15.549C8.96096 15.5075 8.95094 15.4627 8.9476 15.4163C8.94426 15.3715 9.00605 15.3011 9.0311 15.2771C9.02943 15.2947 9.02609 15.3171 9.02776 15.3331C9.03444 15.3699 9.04947 15.4035 9.06617 15.4339C9.10124 15.4947 9.15635 15.5458 9.22148 15.5746C9.28661 15.6034 9.36176 15.6114 9.43023 15.5938C9.4653 15.5858 9.49369 15.5682 9.52709 15.5602C9.55882 15.5522 9.59723 15.5538 9.62061 15.5778C9.5989 15.5506 9.55882 15.5458 9.52542 15.5506C9.49035 15.557 9.46029 15.5714 9.42689 15.5762C9.36176 15.5874 9.29496 15.573 9.23818 15.5426C9.18307 15.5123 9.13965 15.4627 9.1146 15.4083C9.10124 15.3811 9.09289 15.3523 9.09122 15.3235C9.08955 15.3075 9.09122 15.2931 9.09623 15.2803C9.1313 15.2851 9.16637 15.2931 9.20144 15.3059C9.27492 15.3315 9.35341 15.3683 9.44192 15.3811C9.55548 15.4003 9.66904 15.3923 9.77759 15.3635C9.88614 15.4707 9.99135 15.5842 10.0982 15.6946C10.1249 15.7218 10.155 15.749 10.1867 15.7714C10.2185 15.7938 10.2552 15.813 10.2919 15.8274C10.3654 15.8577 10.4422 15.8737 10.5191 15.8897C10.4439 15.8689 10.3671 15.8482 10.297 15.8146C10.2268 15.7826 10.1667 15.7346 10.1183 15.6754C10.0231 15.5666 9.93123 15.4547 9.8327 15.3459C9.86944 15.3347 9.90451 15.3203 9.93958 15.3043C10.0181 15.2675 10.0899 15.2227 10.1583 15.1716C10.1767 15.186 10.1934 15.2003 10.2118 15.2131C10.2886 15.2707 10.3704 15.3267 10.4673 15.3507C10.3738 15.3219 10.2953 15.2627 10.2235 15.2003C10.2068 15.186 10.1917 15.1716 10.175 15.1588C10.2318 15.114 10.2853 15.0676 10.3354 15.018C10.3938 14.962 10.4473 14.9012 10.5007 14.8421C10.5541 14.7845 10.6143 14.7285 10.6911 14.6981C10.6126 14.7237 10.5491 14.7781 10.4907 14.8325C10.4322 14.8884 10.3771 14.946 10.317 14.9972C10.2636 15.0452 10.2051 15.09 10.1467 15.1316C10.0999 15.0916 10.0531 15.0516 9.9997 15.018C9.91453 14.9668 9.82602 14.9268 9.72916 14.8964C9.68407 14.882 9.63731 14.8724 9.59055 14.866C9.63898 14.8389 9.68574 14.8085 9.73083 14.7765C9.84606 14.6949 9.9496 14.6037 10.0548 14.5142C10.1082 14.4694 10.16 14.4246 10.2151 14.383C10.2702 14.343 10.332 14.3078 10.4022 14.2966C10.332 14.303 10.2669 14.335 10.2068 14.3734C10.1483 14.4118 10.0932 14.4534 10.0381 14.495C9.92789 14.5781 9.81767 14.6613 9.70077 14.7333C9.58387 14.8053 9.46029 14.866 9.33003 14.898C9.2649 14.9156 9.19977 14.922 9.12963 14.93C9.05949 14.9364 8.98601 14.9492 8.91086 14.9716C8.91086 14.9716 8.8641 15.0004 8.80398 14.9844C8.58187 14.9236 8.58688 14.9076 8.34306 14.874C8.30465 14.8676 8.26123 14.8788 8.2295 14.8565C8.19777 14.8341 8.18775 14.7909 8.18775 14.7525C8.18441 14.5286 8.37646 14.3494 8.55515 14.2038C8.92422 13.9047 9.30164 13.6136 9.68574 13.3321C9.85775 13.2057 10.0398 13.0794 10.2502 13.0314C10.6944 12.9322 11.1537 13.2265 11.3741 13.6088C11.5945 13.9911 11.633 14.4438 11.6664 14.8804C11.6847 15.1188 11.7448 15.6674 11.7465 15.701C11.7899 16.5567 11.8968 17.4077 12.0755 18.249C12.2542 19.0888 12.488 19.9205 12.7886 20.7331C12.9372 21.1394 13.0992 21.5408 13.2779 21.9375C13.4532 22.3358 13.652 22.7117 13.8039 23.0908C14.0979 23.8377 14.2632 24.6695 14.3768 25.4852C14.4836 26.3074 14.5237 27.1376 14.4703 27.9549C14.4152 28.7691 14.2649 29.5784 13.9542 30.2998C13.6453 31.0212 13.1393 31.6354 12.4529 31.9585C12.1122 32.1248 11.7315 32.2208 11.3374 32.2624C10.9366 32.304 10.5391 32.2992 10.1617 32.2224C9.40184 32.0705 8.70378 31.6466 8.23451 31.0516C7.99737 30.7557 7.81534 30.4214 7.69844 30.0647C7.63999 29.8871 7.59824 29.7032 7.57653 29.5176C7.55315 29.3321 7.55148 29.1513 7.54981 28.929L7.5281 26.3842C7.52643 25.9699 7.51975 25.5124 7.46798 25.0726C7.4112 24.6311 7.32102 24.1944 7.19911 23.7658C6.94193 22.9116 6.53445 22.1007 6.00006 21.3761C5.73453 21.013 5.43059 20.6771 5.10661 20.362C4.94295 20.2052 4.77428 20.0549 4.59726 19.9141L4.0996 19.5062C3.45331 18.9608 2.86715 18.3434 2.36281 17.6684C1.35747 16.3168 0.676111 14.7333 0.407242 13.0794C0.136703 11.4287 0.281992 9.7092 0.834761 8.11768C1.92861 4.91385 4.70748 2.36102 7.96564 1.33093C8.77726 1.06221 9.62061 0.889463 10.4723 0.80149C11.324 0.708718 12.1857 0.713516 13.0391 0.793492C14.7425 0.96464 16.4058 1.50528 17.867 2.37382C20.8079 4.0949 22.8921 7.13398 23.3546 10.4946C23.3563 10.5218 23.3814 10.541 23.4047 10.5378C23.4265 10.5346 23.4432 10.5122 23.4398 10.4882C23.4064 9.81957 23.2979 8.94623 22.9956 7.96413Z" fill="#FFD336"/>
<path d="M12.9789 11.6814C12.9789 11.9261 12.8637 12.0525 12.6783 12.262C12.493 12.4476 12.2341 12.7131 11.9502 12.6667C11.6663 12.6187 11.4091 12.6667 11.2221 12.494C11.0367 12.3468 10.9215 11.9805 10.9215 11.6798C10.9215 11.4303 11.0367 11.2991 11.2221 11.0896C11.4075 10.904 11.6647 10.6401 11.9502 10.6945C12.2341 10.7473 12.4913 10.7057 12.6783 10.8768C12.8637 11.0272 12.9789 11.3871 12.9789 11.6814Z" fill="#FFD336"/>
</g>
<defs>
<clipPath id="clip0">
<rect width="51" height="37" fill="white"/>
</clipPath>
</defs>
</svg>
