<svg width="140" height="107" viewBox="0 0 140 107" fill="none" xmlns="http://www.w3.org/2000/svg">
<g clip-path="url(#clip0)">
<path d="M127.434 42.8055C127.306 42.1256 126.985 41.5289 126.472 41.0108C125.789 40.3216 124.959 39.9746 123.992 39.9746C123.02 39.9746 122.194 40.3216 121.511 41.0108C120.998 41.5289 120.677 42.1302 120.549 42.8055H127.434ZM126.687 46.062C126.88 46.062 127.045 46.1314 127.182 46.2701C127.32 46.4089 127.388 46.5754 127.388 46.7697C127.388 46.964 127.32 47.1305 127.187 47.2739C126.279 48.0695 125.216 48.4673 123.987 48.4673C122.63 48.4673 121.475 47.9862 120.517 47.0148C119.559 46.0481 119.077 44.8824 119.077 43.5133C119.077 42.1441 119.554 40.9784 120.517 40.0117C121.475 39.0449 122.635 38.5592 123.987 38.5592C125.344 38.5592 126.499 39.0449 127.457 40.0117C128.415 40.9784 128.897 42.1487 128.897 43.5133C128.897 43.7075 128.828 43.8741 128.69 44.0128C128.553 44.1516 128.388 44.221 128.195 44.221H120.544C120.672 44.9009 120.993 45.4976 121.507 46.0157C122.19 46.7049 123.02 47.0519 123.987 47.0519C124.863 47.0519 125.619 46.7743 126.247 46.21C126.38 46.1129 126.527 46.062 126.687 46.062Z" fill="#14557A"/>
<path d="M63.5049 36.0383C63.5049 35.844 63.5736 35.6775 63.7112 35.5387C63.8487 35.4 64.0137 35.3306 64.2063 35.3306C64.3988 35.3306 64.5639 35.4 64.7014 35.5387C64.8389 35.6775 64.9077 35.844 64.9077 36.0383V47.0519H71.9217C72.1142 47.0519 72.2793 47.1213 72.4168 47.2601C72.5543 47.3988 72.6231 47.5653 72.6231 47.7596C72.6231 47.9539 72.5543 48.1204 72.4168 48.2592C72.2793 48.398 72.1142 48.4673 71.9217 48.4673H64.2063C64.0137 48.4673 63.8487 48.398 63.7112 48.2592C63.5736 48.1204 63.5049 47.9539 63.5049 47.7596V36.0383Z" fill="#14557A"/>
<path d="M81.9941 47.7596C81.9941 47.9539 81.9254 48.1204 81.7878 48.2591C81.6503 48.3979 81.4853 48.4673 81.2927 48.4673C81.1002 48.4673 80.9352 48.3979 80.7976 48.2591C80.6601 48.1204 80.5913 47.9539 80.5913 47.7596V47.186C79.7157 48.0417 78.6613 48.4673 77.4373 48.4673C76.1812 48.4673 75.1085 48.0186 74.2146 47.1166C73.3207 46.2192 72.876 45.1322 72.876 43.8648V39.2669C72.876 39.0726 72.9447 38.9061 73.0823 38.7674C73.2198 38.6286 73.3848 38.5592 73.5774 38.5592C73.7699 38.5592 73.9349 38.6286 74.0725 38.7674C74.21 38.9061 74.2788 39.0726 74.2788 39.2669V43.8648C74.2788 44.7437 74.5859 45.493 75.2048 46.1175C75.8237 46.7419 76.5663 47.0519 77.4373 47.0519C78.3084 47.0519 79.051 46.7419 79.6699 46.1175C80.2842 45.493 80.5959 44.7437 80.5959 43.8648V39.2669C80.5959 39.0726 80.6647 38.9061 80.8022 38.7674C80.9397 38.6286 81.1048 38.5592 81.2973 38.5592C81.4899 38.5592 81.6549 38.6286 81.7924 38.7674C81.9299 38.9061 81.9987 39.0726 81.9987 39.2669V47.7596H81.9941Z" fill="#14557A"/>
<path d="M84.0844 47.7596C84.0844 47.9539 84.0157 48.1204 83.8781 48.2591C83.7406 48.3979 83.5756 48.4673 83.383 48.4673C83.1905 48.4673 83.0255 48.3979 82.8879 48.2591C82.7504 48.1204 82.6816 47.9539 82.6816 47.7596V39.2669C82.6816 39.0726 82.7504 38.9061 82.8879 38.7674C83.0255 38.6286 83.1905 38.5592 83.383 38.5592C83.5756 38.5592 83.7406 38.6286 83.8781 38.7674C84.0157 38.9061 84.0844 39.0726 84.0844 39.2669V39.452C84.7812 38.8552 85.5973 38.5592 86.537 38.5592C87.6006 38.5592 88.5083 38.9385 89.2647 39.7017C89.4206 39.859 89.5673 40.0302 89.6956 40.2059C89.824 40.0302 89.9661 39.859 90.1265 39.7017C90.8784 38.9431 91.7906 38.5592 92.8542 38.5592C93.9178 38.5592 94.8255 38.9385 95.5819 39.7017C96.3337 40.4603 96.7142 41.3808 96.7142 42.454V47.7596C96.7142 47.9539 96.6454 48.1204 96.5079 48.2591C96.3704 48.3979 96.2053 48.4673 96.0128 48.4673C95.8202 48.4673 95.6552 48.3979 95.5177 48.2591C95.3802 48.1204 95.3114 47.9539 95.3114 47.7596V42.454C95.3114 41.7694 95.073 41.1866 94.5917 40.7009C94.1149 40.2198 93.5327 39.9746 92.8542 39.9746C92.1757 39.9746 91.5981 40.2152 91.1168 40.7009C90.64 41.1866 90.397 41.7694 90.397 42.454V47.7596C90.397 47.9539 90.3283 48.1204 90.1907 48.2591C90.0532 48.3979 89.8882 48.4673 89.6956 48.4673C89.5031 48.4673 89.338 48.3979 89.2005 48.2591C89.063 48.1204 88.9942 47.9539 88.9942 47.7596V42.454C88.9942 41.7694 88.7558 41.1866 88.2745 40.7009C87.7977 40.2198 87.2155 39.9746 86.537 39.9746C85.8586 39.9746 85.2809 40.2152 84.7996 40.7009C84.3228 41.1866 84.0799 41.7694 84.0799 42.454V47.7596H84.0844Z" fill="#14557A"/>
<path d="M98.0895 39.267C98.0895 39.0727 98.1583 38.9062 98.2958 38.7674C98.4334 38.6286 98.5984 38.5593 98.7909 38.5593C98.9835 38.5593 99.1485 38.6286 99.286 38.7674C99.4236 38.9062 99.4923 39.0727 99.4923 39.267V47.7596C99.4923 47.9539 99.4236 48.1204 99.286 48.2592C99.1485 48.398 98.9835 48.4673 98.7909 48.4673C98.5984 48.4673 98.4334 48.398 98.2958 48.2592C98.1583 48.1204 98.0895 47.9539 98.0895 47.7596V39.267ZM99.6711 36.4361C99.6711 36.6766 99.584 36.8848 99.4144 37.0606C99.2402 37.2363 99.0339 37.3196 98.7955 37.3196C98.5571 37.3196 98.3508 37.2317 98.1766 37.0606C98.0024 36.8848 97.9199 36.6766 97.9199 36.4361C97.9199 36.1956 98.007 35.9874 98.1766 35.8116C98.3508 35.6359 98.5571 35.548 98.7955 35.548C99.0339 35.548 99.2402 35.6359 99.4144 35.8116C99.584 35.9874 99.6711 36.1956 99.6711 36.4361Z" fill="#14557A"/>
<path d="M103.683 35.0207C103.683 34.8264 103.751 34.6599 103.889 34.5211C104.026 34.3824 104.191 34.313 104.384 34.313C104.576 34.313 104.742 34.3824 104.884 34.5165L107.015 36.6674C107.135 36.8016 107.19 36.9635 107.19 37.1439C107.19 37.3381 107.121 37.5047 106.983 37.6434C106.846 37.7822 106.681 37.8516 106.488 37.8516C106.3 37.8516 106.14 37.7915 106.007 37.6666L103.875 35.5157C103.751 35.3769 103.683 35.2104 103.683 35.0207ZM109.234 42.8056C109.106 42.1257 108.785 41.529 108.271 41.0109C107.588 40.3217 106.759 39.9748 105.791 39.9748C104.819 39.9748 103.994 40.3217 103.311 41.0109C102.798 41.529 102.477 42.1303 102.349 42.8056H109.234ZM108.487 46.0621C108.679 46.0621 108.844 46.1315 108.982 46.2702C109.12 46.409 109.188 46.5755 109.188 46.7698C109.188 46.9641 109.12 47.1306 108.987 47.274C108.079 48.0696 107.015 48.4674 105.787 48.4674C104.43 48.4674 103.275 47.9863 102.316 47.015C101.358 46.0482 100.877 44.8825 100.877 43.5134C100.877 42.1442 101.354 40.9785 102.316 40.0118C103.275 39.045 104.434 38.5593 105.787 38.5593C107.144 38.5593 108.299 39.045 109.257 40.0118C110.215 40.9785 110.697 42.1488 110.697 43.5134C110.697 43.7076 110.628 43.8742 110.49 44.0129C110.353 44.1517 110.188 44.2211 109.995 44.2211H102.344C102.472 44.901 102.793 45.4978 103.307 46.0158C103.99 46.705 104.819 47.052 105.787 47.052C106.662 47.052 107.419 46.7744 108.047 46.2101C108.18 46.113 108.326 46.0621 108.487 46.0621Z" fill="#14557A"/>
<path d="M111.379 39.2669C111.379 39.0726 111.448 38.9061 111.585 38.7674C111.723 38.6286 111.888 38.5592 112.08 38.5592C112.273 38.5592 112.438 38.6286 112.575 38.7674C112.713 38.9061 112.782 39.0726 112.782 39.2669V40.044C113.763 39.0541 114.932 38.5592 116.289 38.5592C116.972 38.5592 117.6 38.6795 118.173 38.9108C118.278 38.9524 118.375 39.0125 118.462 39.0958C118.595 39.2392 118.663 39.4057 118.663 39.6C118.663 39.7942 118.595 39.9608 118.457 40.0995C118.32 40.2383 118.154 40.3077 117.962 40.3077C117.852 40.3077 117.746 40.2846 117.655 40.2383C117.238 40.0625 116.784 39.9746 116.289 39.9746C115.317 39.9746 114.492 40.3216 113.809 41.0108C113.126 41.7 112.782 42.5372 112.782 43.5133V47.7596C112.782 47.9539 112.713 48.1204 112.575 48.2591C112.438 48.3979 112.273 48.4673 112.08 48.4673C111.888 48.4673 111.723 48.3979 111.585 48.2591C111.448 48.1204 111.379 47.9539 111.379 47.7596V39.2669Z" fill="#14557A"/>
<path d="M79.7432 55.7759C79.3352 55.6232 79.0464 55.4613 78.886 55.2948C78.565 54.9756 78.4092 54.5917 78.4092 54.143C78.4092 53.6943 78.5742 53.3012 78.9089 52.9635C79.5553 52.2974 80.4034 51.9644 81.444 51.9644C82.5717 51.9644 83.539 52.4223 84.3458 53.3335C84.4192 53.4214 84.4513 53.5278 84.4467 53.6527C84.4467 53.8007 84.3917 53.9302 84.2863 54.0366C84.1808 54.143 84.0525 54.1985 83.9058 54.1985C83.7591 54.1985 83.6399 54.1523 83.5482 54.0551C83.4565 53.958 83.3923 53.8932 83.3511 53.8516C82.8239 53.3197 82.1866 53.056 81.444 53.056C80.6967 53.056 80.1008 53.2919 79.6561 53.7637C79.5461 53.8932 79.4957 54.0505 79.4957 54.2355C79.5094 54.4483 79.6194 54.5963 79.8257 54.6703L83.1448 55.7805C83.5528 55.9331 83.8416 56.095 84.002 56.2616C84.3229 56.5807 84.4788 56.9647 84.4788 57.4133C84.4788 57.862 84.3138 58.2552 83.9791 58.5929C83.3327 59.259 82.4846 59.592 81.444 59.592C80.3117 59.592 79.3444 59.1341 78.5421 58.2228C78.4734 58.1257 78.4413 58.0193 78.4413 57.9037C78.4413 57.7556 78.4917 57.6261 78.6017 57.5197C78.7072 57.4133 78.8355 57.3578 78.9822 57.3578C79.1289 57.3578 79.2481 57.4041 79.3398 57.5012C79.4315 57.5984 79.4957 57.6631 79.5369 57.7048C80.0641 58.2367 80.7013 58.5004 81.444 58.5004C82.1912 58.5004 82.7872 58.2645 83.2319 57.7926C83.3419 57.6631 83.3923 57.5059 83.3923 57.3208C83.3786 57.1081 83.2685 56.9647 83.0622 56.886L79.7432 55.7759Z" fill="#14557A"/>
<path d="M92.0247 59.0462C92.0247 59.1942 91.9743 59.3237 91.8643 59.4301C91.7588 59.5365 91.6305 59.592 91.4838 59.592C91.3371 59.592 91.2087 59.5411 91.1033 59.4301C90.9978 59.3237 90.9474 59.1942 90.9474 59.0462V58.6021C90.2735 59.259 89.4621 59.5874 88.5177 59.5874C87.5504 59.5874 86.7253 59.2405 86.0376 58.5512C85.35 57.8574 85.0107 57.0248 85.0107 56.0488V52.5102C85.0107 52.3622 85.0657 52.2326 85.1712 52.1263C85.2766 52.0199 85.405 51.9644 85.5517 51.9644C85.6984 51.9644 85.8267 52.0199 85.9322 52.1263C86.0376 52.2326 86.0926 52.3622 86.0926 52.5102V56.0488C86.0926 56.7241 86.331 57.3023 86.8032 57.7834C87.28 58.2645 87.8484 58.5004 88.5223 58.5004C89.1916 58.5004 89.7647 58.2598 90.2414 57.7834C90.7136 57.3023 90.952 56.7288 90.952 56.0488V52.5102C90.952 52.3622 91.0024 52.2326 91.1078 52.1263C91.2133 52.0199 91.3416 51.9644 91.4883 51.9644C91.635 51.9644 91.7634 52.0199 91.8688 52.1263C91.9743 52.2326 92.0293 52.3622 92.0293 52.5102V59.0462H92.0247Z" fill="#14557A"/>
<path d="M92.5469 52.5102C92.5469 52.3622 92.5973 52.2326 92.7073 52.1263C92.8128 52.0199 92.9411 51.9644 93.0878 51.9644C93.2345 51.9644 93.3629 52.0199 93.4683 52.1263C93.5738 52.2326 93.6288 52.3622 93.6288 52.5102V53.1069C94.3852 52.3437 95.2837 51.9644 96.3289 51.9644C96.8561 51.9644 97.3375 52.0569 97.7776 52.2373C97.8601 52.2696 97.9334 52.3159 98.0022 52.3807C98.1076 52.4917 98.1581 52.6212 98.1581 52.7692C98.1581 52.9172 98.1076 53.0468 97.9976 53.1531C97.8922 53.2595 97.7638 53.315 97.6171 53.315C97.53 53.315 97.4521 53.2965 97.3787 53.2595C97.0578 53.1254 96.7094 53.056 96.3243 53.056C95.5771 53.056 94.9399 53.3197 94.4173 53.8516C93.8901 54.3836 93.6288 55.0265 93.6288 55.7759V59.0416C93.6288 59.1896 93.5783 59.3191 93.4683 59.4255C93.3629 59.5319 93.2345 59.5874 93.0878 59.5874C92.9411 59.5874 92.8128 59.5365 92.7073 59.4255C92.6019 59.3191 92.5469 59.1896 92.5469 59.0416V52.5102Z" fill="#14557A"/>
<path d="M101.969 50.0262C101.969 49.8782 102.024 49.7486 102.129 49.6422C102.235 49.5359 102.363 49.4803 102.51 49.4803C102.656 49.4803 102.785 49.5359 102.89 49.6422C102.996 49.7486 103.051 49.8782 103.051 50.0262V58.5003H103.592C103.738 58.5003 103.867 58.5558 103.972 58.6622C104.078 58.7686 104.133 58.8981 104.133 59.0461C104.133 59.1942 104.082 59.3237 103.972 59.4301C103.867 59.5365 103.738 59.592 103.592 59.592H102.514C102.368 59.592 102.239 59.5411 102.134 59.4301C102.028 59.3237 101.973 59.1942 101.973 59.0461V50.0262H101.969Z" fill="#14557A"/>
<path d="M108.427 53.056C107.68 53.056 107.042 53.3197 106.52 53.8516C105.993 54.3836 105.731 55.0265 105.731 55.7759C105.731 56.5299 105.993 57.1728 106.52 57.7001C107.047 58.2321 107.684 58.4957 108.427 58.4957C109.174 58.4957 109.811 58.2321 110.334 57.7001C110.861 57.1682 111.122 56.5299 111.122 55.7759C111.122 55.0219 110.861 54.3789 110.334 53.8516C109.811 53.3197 109.174 53.056 108.427 53.056ZM111.127 58.4449C110.371 59.2081 109.472 59.5874 108.427 59.5874C107.382 59.5874 106.492 59.2173 105.754 58.4726C105.016 57.7279 104.649 56.8305 104.649 55.7759C104.649 54.7212 105.016 53.8239 105.754 53.0791C106.492 52.3344 107.382 51.9644 108.427 51.9644C109.472 51.9644 110.361 52.339 111.1 53.0791C111.838 53.8239 112.204 54.7212 112.204 55.7759V59.0416C112.204 59.1896 112.154 59.3191 112.048 59.4255C111.943 59.5319 111.815 59.5874 111.668 59.5874C111.521 59.5874 111.393 59.5365 111.287 59.4255C111.182 59.3191 111.127 59.1896 111.127 59.0416V58.4449Z" fill="#14557A"/>
<path d="M57.3308 80.1946C55.3137 77.7985 54.4243 75.0185 54.6719 71.8592C54.9378 68.7184 56.258 66.1327 58.6327 64.0928C60.7644 62.2471 63.217 61.322 65.9859 61.322C69.2683 61.322 72.1335 62.6819 74.5861 65.4064C74.9987 65.9014 75.37 66.4148 75.6909 66.9468C75.9155 67.3076 76.0301 67.7193 76.0301 68.1726C76.0301 68.8017 75.8101 69.3382 75.3654 69.7869C74.9207 70.2356 74.389 70.4576 73.7655 70.4576C73.0503 70.4576 72.5186 70.231 72.1793 69.773C71.8401 69.3151 71.4917 68.8525 71.1341 68.3761C69.9055 66.9283 68.3698 66.128 66.5223 65.98C64.6565 65.8274 63.0061 66.364 61.5712 67.5944C60.1364 68.8202 59.3433 70.3697 59.1966 72.2339C59.0453 74.1165 59.5817 75.7817 60.8102 77.2296C61.8096 78.2009 63.4325 78.978 65.6742 79.5701C69.6167 80.4444 72.6148 82.0633 74.6686 84.4224C76.8003 86.9711 77.8639 89.8668 77.8639 93.1001C77.8639 93.5395 77.8455 93.9743 77.8088 94.4137C77.5063 98.1836 75.9339 101.283 73.0824 103.721C70.5381 105.908 67.6409 107.005 64.3998 107.005C60.3427 107.005 56.854 105.386 53.9338 102.152C53.5395 101.713 53.1774 101.25 52.8611 100.755C52.5585 100.358 52.4072 99.8997 52.4072 99.3863C52.4072 98.7572 52.6273 98.2206 53.0719 97.772C53.5166 97.3233 54.0484 97.1012 54.6719 97.1012C55.4833 97.1012 56.1251 97.4528 56.5973 98.1559C56.8219 98.5167 57.0878 98.859 57.3904 99.1828C58.9949 101.126 61.0486 102.199 63.5562 102.407C66.0455 102.596 68.2414 101.88 70.1485 100.251C72.0555 98.6231 73.1099 96.5554 73.3162 94.0437C73.5225 91.5135 72.8257 89.2886 71.2258 87.3643C69.8276 85.787 67.65 84.6074 64.6886 83.8257C61.8188 83.3076 59.3662 82.1003 57.3308 80.1946Z" fill="#14557A"/>
<path d="M82.3379 61.3267H109.495C110.119 61.3267 110.651 61.5533 111.095 61.9974C111.54 62.4461 111.76 62.9826 111.76 63.6117C111.76 64.2408 111.54 64.7774 111.095 65.2261C110.651 65.6747 110.119 65.8968 109.495 65.8968H84.5979V81.8829H102.701C103.325 81.8829 103.857 82.1096 104.301 82.5537C104.746 83.0023 104.966 83.5389 104.966 84.168C104.966 84.7971 104.746 85.3337 104.301 85.7824C103.857 86.231 103.325 86.4531 102.701 86.4531H84.5979V102.439H109.495C110.119 102.439 110.651 102.666 111.095 103.11C111.54 103.559 111.76 104.095 111.76 104.724C111.76 105.353 111.54 105.89 111.095 106.339C110.651 106.787 110.119 107.009 109.495 107.009H82.3379C81.7144 107.009 81.1826 106.787 80.738 106.339C80.2933 105.89 80.0732 105.353 80.0732 104.724V63.621C80.0732 62.9919 80.2933 62.4553 80.738 62.0066C81.1826 61.5533 81.719 61.3267 82.3379 61.3267Z" fill="#14557A"/>
<path d="M118.499 65.8922V86.4438H125.288C128.099 86.4438 130.501 85.4401 132.49 83.4325C134.48 81.425 135.475 79.0058 135.475 76.1657C135.475 73.3302 134.48 70.911 132.49 68.8988C130.501 66.8913 128.099 65.8875 125.288 65.8875H118.499V65.8922ZM116.234 61.3267H125.288C129.341 61.3267 132.807 62.7791 135.686 65.6794C138.56 68.5796 139.999 72.0766 139.999 76.1703C139.999 80.264 138.56 83.761 135.686 86.6612C132.811 89.5661 129.345 91.0139 125.288 91.0139H118.499V104.715C118.499 105.344 118.279 105.881 117.834 106.329C117.39 106.778 116.858 107 116.234 107C115.611 107 115.079 106.778 114.634 106.329C114.19 105.881 113.97 105.344 113.97 104.715V63.6117C113.97 62.9826 114.19 62.4461 114.634 61.9974C115.079 61.5533 115.611 61.3267 116.234 61.3267Z" fill="#14557A"/>
<path d="M35.2577 103.716H24.205C23.664 103.716 23.2285 103.276 23.2285 102.731C23.2285 102.185 23.664 101.745 24.205 101.745H35.2577C35.7987 101.745 36.2342 102.185 36.2342 102.731C36.2388 103.276 35.7987 103.716 35.2577 103.716Z" fill="#FFD336"/>
<path d="M32.2088 107H27.2577C26.7168 107 26.2812 106.561 26.2812 106.015C26.2812 105.469 26.7168 105.03 27.2577 105.03H32.2133C32.7543 105.03 33.1898 105.469 33.1898 106.015C33.1852 106.556 32.7497 107 32.2088 107Z" fill="#FFD336"/>
<path d="M35.2577 100.445H24.205C23.664 100.445 23.2285 100.006 23.2285 99.4602C23.2285 98.9144 23.664 98.475 24.205 98.475H35.2577C35.7987 98.475 36.2342 98.9144 36.2342 99.4602C36.2388 100.001 35.7987 100.445 35.2577 100.445Z" fill="#FFD336"/>
<path d="M42.3946 40.4512C42.3487 40.3263 42.3075 40.1968 42.2616 40.0673C42.2158 39.9377 42.1654 39.8082 42.1012 39.688C42.225 39.6556 42.3533 39.6139 42.4633 39.5261C42.5321 39.4705 42.578 39.3965 42.6055 39.3179C42.633 39.2393 42.6421 39.1653 42.6559 39.0866C42.6284 39.1606 42.6009 39.2346 42.5596 39.2948C42.5229 39.3595 42.4679 39.4058 42.4083 39.4382C42.2846 39.4983 42.1424 39.5029 41.9866 39.5076C41.9453 39.452 41.8995 39.3965 41.8628 39.3457C41.7849 39.2439 41.7253 39.1329 41.7299 39.0311C41.7299 38.9664 41.7482 38.9016 41.7619 38.8415C41.7803 38.7675 41.8032 38.6934 41.8353 38.6194C41.8445 38.6009 41.8536 38.5824 41.8674 38.5685C41.8811 38.5547 41.8949 38.5362 41.9132 38.5223C41.9407 38.4899 41.9728 38.4575 42.0003 38.4252C42.0553 38.3604 42.1104 38.291 42.1608 38.217C42.2616 38.0736 42.3487 37.921 42.4175 37.7591C42.4496 37.6897 42.4771 37.6157 42.5 37.5417L42.3121 37.4677C42.2066 37.8608 41.9682 38.2494 41.6794 38.55C41.3952 38.8507 41.056 39.1005 40.703 39.3272C40.5242 39.4428 40.3454 39.5538 40.1758 39.6833C40.0749 39.762 39.9878 39.8452 39.9053 39.9424C39.8503 39.9054 39.7769 39.8961 39.7174 39.9007C39.6578 39.9054 39.6027 39.9239 39.5523 39.947C39.456 39.9979 39.3735 40.0673 39.2864 40.1274C39.3827 40.0811 39.4744 40.0256 39.5707 39.9932C39.6623 39.9609 39.7724 39.9701 39.832 40.0256C39.7999 40.0673 39.7678 40.1089 39.7357 40.1551C39.4927 40.5067 39.3369 40.9045 39.126 41.2699C39.3552 40.9137 39.5248 40.5206 39.7769 40.1829C39.9007 40.0117 40.052 39.8684 40.217 39.7435C40.3867 39.6232 40.57 39.5168 40.7488 39.4104C41.0376 39.2393 41.3219 39.0496 41.5786 38.8322C41.5602 38.8923 41.5465 38.9571 41.5511 39.0311C41.5557 39.1144 41.5786 39.193 41.6152 39.2624C41.6519 39.3318 41.6978 39.3873 41.739 39.4428C41.8307 39.5492 41.9178 39.6371 41.9866 39.7527C42.0553 39.8637 42.1104 39.984 42.1608 40.1043C42.2112 40.2292 42.2616 40.354 42.3166 40.4789C42.3717 40.6038 42.4358 40.7241 42.5046 40.8397C42.6421 41.0756 42.8072 41.293 42.9905 41.4873C42.8163 41.2792 42.6696 41.0571 42.5459 40.8166C42.4954 40.6963 42.4404 40.5761 42.3946 40.4512Z" fill="#FFD336"/>
<path d="M42.831 35.1549C43.3536 35.03 43.8808 34.9421 44.4172 34.8958C44.9168 34.8496 45.4257 34.8403 45.9208 34.7524C46.4159 34.6645 46.911 34.4934 47.2961 34.165C46.4342 34.4333 45.5403 34.5952 44.6418 34.6507C44.8527 34.4286 45.1094 34.2575 45.334 34.0447C45.5541 33.8319 45.7466 33.5636 45.7741 33.2583C45.4761 33.6238 45.1415 33.9614 44.7839 34.2667C44.5959 34.424 44.3988 34.5766 44.1604 34.6414C43.9587 34.6969 43.7433 34.6877 43.5324 34.7015C43.3215 34.72 43.1015 34.7709 42.9593 34.9282C43.2344 34.6507 43.184 34.1881 43.0327 33.8273C42.8814 33.4665 42.643 33.1381 42.5788 32.7542C42.533 32.4674 42.5834 32.1713 42.6522 31.8892C42.7851 31.3341 42.9777 30.7929 43.2206 30.2794C43.1381 30.2101 43.0235 30.3118 42.9639 30.409C42.5147 31.1583 42.3175 32.0557 42.4138 32.9253C41.7078 32.4442 41.0018 31.9678 40.2913 31.4914C40.2592 31.8198 40.7956 31.9308 40.8552 32.2546C40.5801 32.176 40.2775 32.213 40.0254 32.3563C40.6076 32.3471 41.199 32.4581 41.7124 32.731C42.2259 33.0039 42.6568 33.4526 42.8631 34.0031C42.9181 34.1418 42.9548 34.2991 42.9089 34.4425C42.8356 34.6877 42.5834 34.9004 42.4413 35.1132C42.2579 35.3815 42.2946 35.6544 42.3771 35.969C42.4597 36.2835 42.5559 36.6258 42.4321 36.9265L43.129 37.3428C42.7347 36.8201 42.5972 36.1124 42.7668 35.4786C43.7708 36.1632 44.7701 36.8525 45.8154 37.4723C45.8566 37.5 45.9437 37.537 45.9758 37.5232C46.0125 37.5047 45.8612 37.3196 45.8291 37.2965C45.3019 36.9172 44.7243 36.6165 44.2109 36.2234C43.9816 36.0476 43.7387 35.8626 43.4865 35.7146C43.2711 35.585 43.051 35.4833 42.8722 35.3075C42.8402 35.2659 42.7806 35.1641 42.831 35.1549Z" fill="#FFD336"/>
<path d="M21.0233 25.0478C20.7758 24.9691 20.5328 24.8535 20.2852 24.7517L19.5518 24.4326L20.2623 24.798C20.5007 24.9183 20.7345 25.0478 20.9866 25.1449C21.115 25.1958 21.2479 25.2328 21.3809 25.2559C21.5184 25.2791 21.6514 25.2837 21.7843 25.2929L22.6232 25.3484C22.747 25.5057 22.8845 25.6537 23.0358 25.7879C23.2421 25.9775 23.4622 26.1487 23.6868 26.3106C24.1269 26.639 24.5761 26.9535 24.9108 27.356L25.3784 27.4068C24.9887 26.8842 24.2644 26.4308 23.8152 26.1255C23.5905 25.9729 23.3659 25.8156 23.1596 25.6445C22.9533 25.4733 22.7654 25.2791 22.6003 25.0617C22.4353 24.8489 22.284 24.6176 22.1327 24.3863C21.986 24.155 21.8347 23.9237 21.6926 23.6878C21.6239 23.5676 21.5505 23.4519 21.4863 23.3317C21.4267 23.2114 21.3717 23.0819 21.3167 22.957C21.2067 22.7072 21.0875 22.4482 20.8904 22.2493C21.0737 22.4574 21.1838 22.7165 21.28 22.9709C21.3305 23.1004 21.3763 23.2299 21.4359 23.3548C21.4955 23.4797 21.5643 23.6 21.6284 23.7248C21.7614 23.97 21.8989 24.2059 22.0364 24.4464C22.1694 24.6777 22.3069 24.909 22.4628 25.131L21.7889 25.1403C21.5276 25.1449 21.2709 25.1357 21.0233 25.0478Z" fill="#FFD336"/>
<path d="M15.3518 37.1022C15.3884 37.0606 15.4389 37.0375 15.4847 37.0328C15.4847 37.0328 15.7323 37.0328 15.8515 37.0791C15.989 37.1346 16.1219 37.204 16.264 37.2688C16.3374 37.3011 16.4107 37.3335 16.4841 37.3566C16.562 37.3798 16.64 37.4029 16.7179 37.4214C16.8738 37.4584 17.0342 37.4677 17.1901 37.4723C17.5064 37.4815 17.8135 37.4492 18.1161 37.4353C18.2674 37.426 18.4141 37.426 18.5608 37.4306C18.7075 37.4399 18.7442 37.426 18.8817 37.4584L19.1384 37.2132C18.978 37.1809 18.7304 37.1485 18.57 37.1439C18.4095 37.1439 18.2536 37.1531 18.0978 37.167C17.7906 37.1947 17.4881 37.2364 17.1947 37.241C16.8967 37.2456 16.6125 37.204 16.3374 37.0884C16.1999 37.0328 16.0578 36.9681 15.9111 36.9126C15.7644 36.8571 15.6039 36.8201 15.4435 36.8108C15.1271 36.7831 14.82 36.8247 14.522 36.8247C14.2194 36.8293 13.9169 36.8016 13.6097 36.7877C13.3026 36.7784 12.9909 36.7831 12.6929 36.8571C12.3949 36.9265 12.1061 37.0652 11.8906 37.2873C12.1153 37.0745 12.4041 36.9496 12.702 36.8941C13 36.8339 13.3072 36.8386 13.6097 36.8617C13.9123 36.8848 14.2149 36.9265 14.5266 36.9357C14.7742 36.945 15.0171 36.9311 15.2555 36.945C15.1867 37.0236 15.1409 37.1207 15.1271 37.2132C15.0996 37.3705 15.1134 37.5278 15.173 37.6758C15.2005 37.7498 15.2463 37.8146 15.3059 37.8701C15.3655 37.9256 15.4389 37.9533 15.4985 37.9811C15.6268 38.032 15.7231 38.1522 15.7369 38.3003C15.7414 38.1569 15.6543 38.0089 15.5214 37.9395C15.4572 37.9025 15.3976 37.8701 15.3564 37.8192C15.3151 37.7683 15.283 37.7082 15.2647 37.6481C15.228 37.5232 15.2326 37.3798 15.2693 37.2549C15.283 37.1947 15.3151 37.1439 15.3518 37.1022Z" fill="#FFD336"/>
<path d="M12.8258 43.5134C13.3026 43.4856 13.7793 43.4116 14.2469 43.2867C14.4807 43.2266 14.71 43.1526 14.9346 43.0647C15.1592 42.9814 15.3793 42.8935 15.5993 42.838C15.7093 42.8103 15.8239 42.7872 15.9248 42.7825C16.0302 42.7779 16.1448 42.7872 16.2503 42.8057C16.4657 42.8473 16.6537 42.8889 16.8142 43.0138L17.0938 42.8565C16.8646 42.6946 16.5437 42.5744 16.2915 42.542C16.1632 42.5281 16.0348 42.5189 15.9065 42.5327C15.7735 42.5466 15.6543 42.579 15.5351 42.616C15.2967 42.69 15.0813 42.7918 14.8612 42.8889C14.6458 42.9814 14.4257 43.0693 14.2011 43.1387C13.7518 43.2821 13.2888 43.3839 12.8166 43.4347C12.3445 43.4856 11.8677 43.4856 11.3955 43.444C11.8677 43.5134 12.349 43.5411 12.8258 43.5134Z" fill="#FFD336"/>
<path d="M24.5482 43.569C24.8691 43.4348 25.2771 43.4394 25.6622 43.3007C25.7447 43.2729 25.8272 43.2406 25.9097 43.2035C26.1435 43.1342 26.4048 43.1527 26.6569 43.2174C26.9091 43.2868 27.1612 43.3839 27.3859 43.5088C27.528 43.5875 27.6563 43.6892 27.7847 43.7956C27.6059 43.9205 27.4134 44.0315 27.2116 44.1148C27.097 44.161 26.9778 44.2027 26.8587 44.2304C26.5882 43.9344 26.2673 43.6522 25.8547 43.5227C25.6347 43.4487 25.3871 43.4348 25.1579 43.4765C24.9287 43.5135 24.782 43.5505 24.5757 43.6199L24.4106 43.6384L24.5482 43.569ZM25.9556 44.2489C25.7493 44.2027 25.5659 44.1009 25.3458 44.0038C25.1716 43.9298 24.9745 43.865 24.759 43.8789C24.9103 43.8188 25.0616 43.7679 25.2129 43.7355C25.41 43.6939 25.6071 43.6892 25.7997 43.7401C26.1252 43.8234 26.414 44.0223 26.6753 44.2674C26.4323 44.3091 26.1848 44.3044 25.9556 44.2489ZM63.1251 23.0312C62.4282 20.649 61.4655 18.3269 60.2094 16.1714C57.7385 11.8325 54.2224 8.07191 50.0323 5.31503C45.8606 2.52116 41.0012 0.786545 36.0135 0.208341C31.0441 -0.355985 25.9051 0.226844 21.22 2.03084C16.5394 3.83946 12.3218 6.75823 8.96613 10.4356C5.60584 14.113 3.09823 18.5258 1.58541 23.244C-1.42648 32.6895 -0.13829 43.4765 5.33078 51.8951C6.68315 53.9951 8.28307 55.9425 10.0847 57.691L11.4462 58.9584C11.8817 59.347 12.2989 59.7587 12.6978 60.1842C13.4908 61.0446 14.2289 61.9558 14.8661 62.9318C15.5033 63.9125 16.0672 64.9347 16.544 66.0033C17.007 67.0764 17.3875 68.1819 17.6992 69.306C17.988 70.4392 18.1897 71.5864 18.3135 72.7474C18.419 73.9177 18.419 75.051 18.4052 76.3045L18.3456 83.6639C18.341 84.2467 18.3273 84.9545 18.4052 85.6344C18.474 86.319 18.6069 86.9944 18.7995 87.6512C19.18 88.9695 19.7988 90.2184 20.6194 91.3193C22.2606 93.5165 24.6995 95.0938 27.3767 95.6582C28.7245 95.9449 30.0906 95.9681 31.4063 95.8108C32.7357 95.6489 34.0789 95.2835 35.3029 94.6313C36.5315 93.9883 37.6272 93.0817 38.489 92.0178C39.3555 90.9539 40.0156 89.7605 40.5015 88.5301C41.4872 86.0646 41.8356 83.4835 41.9364 80.9533C42.0281 78.4138 41.8447 75.8975 41.4734 73.4181C41.0746 70.9342 40.5657 68.4919 39.5938 66.0773C39.0942 64.9024 38.5257 63.8015 38.0031 62.7237C37.4713 61.6413 36.9945 60.5358 36.5407 59.4164C35.6376 57.1776 34.8995 54.8694 34.3081 52.5149C33.9368 50.9746 33.6159 49.4204 33.3592 47.8523C33.1483 46.5617 33.1483 45.2527 33.3638 43.9621C33.5563 42.8289 33.8176 41.7095 34.0148 41.0341C34.4228 39.6511 35.3075 38.3744 36.582 37.7176C37.0771 37.4631 37.618 37.3059 38.1681 37.1995C40.1669 36.8202 42.3444 37.181 43.9764 38.4068C44.1506 38.5363 44.2469 38.6936 44.3982 38.8462C44.5311 38.9803 44.6641 39.1191 44.7512 39.2903C45.0171 39.8083 44.7833 40.4235 44.7374 41.0064C44.7145 41.2932 44.7374 41.5799 44.7604 41.8667C44.8475 42.9491 44.852 43.7494 44.9437 44.8318C44.9437 44.8318 44.9025 45.1602 44.7879 45.4285C44.6732 45.6968 44.6503 46.0067 44.6732 46.2935C44.687 46.4276 44.7374 46.5432 44.7924 46.6681C44.8658 46.8254 44.9346 46.9827 45.0079 47.14C45.0171 47.1631 45.0354 47.1862 45.0583 47.177C45.0721 47.1723 45.0767 47.1492 45.0767 47.1307C45.0813 46.7329 44.7512 46.3721 44.8154 45.9789C44.8337 45.8725 44.8841 45.7708 44.9208 45.669C44.9621 45.5626 44.9896 45.4516 45.0033 45.336C45.0125 45.2712 45.0171 45.2064 45.0537 45.1509C45.0583 45.1417 45.0629 45.1371 45.0721 45.1324C45.0904 45.1278 45.1088 45.1509 45.1179 45.1694C45.1729 45.2758 45.2463 45.3683 45.3242 45.4608C45.6405 45.854 45.9614 46.2472 46.3374 46.5849C46.4474 46.682 46.5574 46.7745 46.672 46.8624C46.8921 47.0289 47.1534 47.1816 47.4284 47.1538C47.3413 47.0983 47.2542 47.0382 47.1671 46.9827C46.8875 46.7977 46.6032 46.608 46.3649 46.3721C46.2273 46.2333 46.1036 46.0807 45.9798 45.928C45.7781 45.6783 45.5764 45.4238 45.3746 45.1741C45.2325 44.9983 45.15 44.7763 45.1409 44.5496C45.1088 43.7817 45.0904 43.3516 45.0583 42.5467C45.0492 42.2692 45.0354 41.9916 45.0537 41.7095C45.0583 41.6355 45.0675 41.5614 45.0721 41.4874C45.3288 41.987 45.6405 42.3062 45.9798 42.7225C46.154 42.9353 46.3236 43.148 46.4795 43.3701C46.6353 43.5921 46.7729 43.8326 46.9425 44.0547C47.025 44.1657 47.1167 44.2767 47.2175 44.3738C47.3184 44.471 47.433 44.5589 47.5522 44.6329C47.7906 44.7809 48.0565 44.878 48.3269 44.9382C48.5974 44.9983 48.8725 45.026 49.1429 45.0353C49.2805 45.0399 49.418 45.0399 49.5509 45.0399H49.7572C49.8214 45.0399 49.8994 45.0445 49.9544 44.9983C49.8994 45.0399 49.826 45.0307 49.7572 45.0307L49.5509 45.0214C49.4134 45.0168 49.2805 45.0075 49.1429 44.9983C48.8725 44.9752 48.602 44.9382 48.3407 44.8641C48.0794 44.7901 47.8318 44.6837 47.6118 44.5357C47.3917 44.3877 47.213 44.1888 47.0617 43.9621C46.9104 43.7401 46.782 43.495 46.6353 43.259C46.4886 43.0231 46.3236 42.7965 46.1586 42.5791C45.8331 42.1443 45.3563 41.5059 45.1363 41.0249C45.1684 40.8075 45.205 40.5947 45.2234 40.3773C45.2646 39.9332 45.2921 39.4753 45.0904 39.0775C45.0904 39.0775 45.0354 38.9156 45.1959 39.0081C45.5672 39.2163 45.8835 39.5169 46.3419 39.392C46.6216 39.318 46.9241 39.3828 47.213 39.3458C47.9098 39.2486 49.3309 39.2718 49.3309 39.2718C49.5739 39.2718 49.771 39.2856 50.014 39.3134C50.4816 39.3735 50.9904 39.4753 51.3022 39.8315C51.4076 39.9517 51.4855 40.0951 51.5635 40.2385C51.8248 40.7288 52.0906 41.2377 52.164 41.7881C52.1686 41.8251 52.1778 41.8714 52.2144 41.8806C52.2282 41.5013 52.2328 41.1035 52.0815 40.7566C52.0127 40.6039 51.9164 40.4605 51.8981 40.2987C52.0402 40.4004 52.1869 40.4837 52.3474 40.5531C52.0998 40.2986 51.8568 40.0442 51.6093 39.7898C51.4764 39.6557 51.3434 39.5169 51.183 39.4198C50.8941 39.2394 50.5412 39.2024 50.2019 39.17C49.8948 39.1376 49.5876 39.1099 49.2759 39.0775C49.3034 39.0312 49.3813 39.0266 49.4272 39.0035C49.7664 38.8138 50.1148 38.6149 50.3303 38.2911C50.4357 38.1292 50.4999 37.9442 50.5549 37.7592C50.6924 37.2827 50.7566 36.7832 50.7474 36.2882C50.7474 36.2373 50.7245 36.1726 50.6787 36.1772C50.587 36.6999 50.4495 37.2134 50.2753 37.7129C50.2111 37.8979 50.1377 38.0876 50.0231 38.2449C49.8581 38.4715 49.661 38.6658 49.418 38.7907C49.0788 38.9665 48.6845 39.0405 48.304 38.9896C48.029 38.9526 47.7585 38.8601 47.4834 38.8462C47.1488 38.8323 46.8233 38.9433 46.4978 39.0127C46.1723 39.0775 45.7506 39.1746 45.4893 38.9618C43.8618 37.6065 41.996 36.5334 40.0064 35.8118C39.2042 35.5204 38.2827 35.192 37.9802 34.3917C37.8014 33.9153 37.8931 33.3833 37.9893 32.8791C38.0764 32.412 38.1773 31.9263 38.4524 31.5423C38.6449 31.2741 38.9108 31.0751 39.1813 30.8901C39.8093 30.4599 40.4144 30.0251 41.125 29.7615C41.4872 29.6273 41.8677 29.5441 42.2436 29.4608C42.647 29.3729 43.0504 29.2804 43.4584 29.1925C43.628 29.1555 43.8206 29.1185 43.9673 29.2156C44.224 29.3868 44.1369 29.7754 44.1461 30.0899C44.1598 30.5941 44.5678 31.0613 45.0675 31.1353C44.852 30.9549 44.632 30.7699 44.4853 30.5293C44.3386 30.2888 44.2698 29.9789 44.3799 29.7198C44.6595 30.1593 45.0629 30.5154 45.5351 30.7282C45.9889 30.9364 46.4932 31.015 46.9883 31.0937C47.7768 31.2139 48.5653 31.3342 49.3538 31.4545C49.5876 31.4915 49.826 31.5285 50.0277 31.6534C50.289 31.8153 50.4541 32.0928 50.6237 32.3518C50.8437 32.6802 51.105 32.9902 51.3893 33.2631C51.4351 33.1382 51.3526 33.004 51.2701 32.9023C51.0363 32.5924 50.8025 32.2778 50.5641 31.9679C50.4632 31.8338 50.3578 31.695 50.2248 31.5886C49.9727 31.3897 49.6426 31.3249 49.3263 31.2787C48.3774 31.1353 47.4055 31.0751 46.4841 30.7976C45.5626 30.5201 44.6687 29.9835 44.2102 29.1324C44.1827 29.0815 44.1598 29.026 44.1736 28.9705L44.2011 28.915C45.0217 28.6837 45.8927 28.7161 46.7087 28.4894C46.9837 28.4154 47.2542 28.3368 47.5339 28.3044C48.5974 28.198 49.6656 28.1425 50.7337 28.1379C51.2609 28.1333 51.7973 28.1425 52.3107 28.013C52.219 27.8603 51.999 27.8927 51.8293 27.9158C51.458 27.9621 51.0775 27.8788 50.7016 27.8742C50.3853 27.8742 50.0736 27.9297 49.7572 27.9575C48.9917 28.0269 48.1986 27.9158 47.4651 28.1564C47.7539 27.8881 48.0565 27.6106 48.4324 27.5042C48.6112 27.4533 48.8037 27.444 48.9825 27.3885C49.1567 27.333 49.3171 27.2313 49.473 27.1341C49.881 26.8705 50.2844 26.5975 50.6787 26.3154C50.6604 26.2275 50.5274 26.246 50.4495 26.2923C49.9498 26.5744 49.4959 26.9537 48.9504 27.1387C48.6662 27.2359 48.3636 27.2775 48.0931 27.407C47.7814 27.5597 47.5339 27.8233 47.2267 27.9899C46.915 28.161 46.5574 28.2211 46.2044 28.2813C45.7551 28.3553 45.3609 28.4848 44.9071 28.4848L43.0137 28.6374C42.9496 28.6421 42.922 28.5588 42.9725 28.5218C43.6693 28.0639 44.3615 27.555 44.7099 26.8011C44.8154 26.5744 44.8887 26.3246 45.0308 26.1211C45.2096 25.8667 45.4755 25.6909 45.7414 25.5244C46.0302 25.344 46.319 25.159 46.6353 25.0387C46.805 24.9739 46.9654 24.9231 47.1442 24.8953C47.8227 24.7936 48.5103 24.7797 49.1934 24.7797C49.3447 24.7797 49.5005 24.7797 49.6518 24.8028C50.0231 24.8537 50.3761 25.122 50.6374 25.4226C50.8804 25.7048 51.3663 26.0702 51.6826 26.2599C51.8018 26.3339 51.921 26.4033 52.0448 26.4773C52.1823 26.5605 52.3199 26.6438 52.4711 26.6854C52.5262 26.6993 52.5949 26.7086 52.6224 26.6623C52.6545 26.6114 52.6087 26.542 52.5628 26.5004C52.3153 26.2738 51.9898 26.1581 51.7056 25.987C51.5497 25.8898 51.403 25.7788 51.2563 25.6678C51.0546 25.5105 50.8529 25.3533 50.6512 25.2006C50.5641 25.1358 50.477 25.0618 50.4449 24.9554C50.4403 24.9369 50.4357 24.9138 50.4449 24.8953C50.4541 24.8722 50.477 24.8537 50.5045 24.8444C50.6924 24.7565 50.9125 24.8074 51.1142 24.775C51.2884 24.7473 51.4443 24.6594 51.6185 24.627C51.7377 24.6039 51.8614 24.6085 51.9806 24.6224C52.5491 24.6825 53.0854 24.9046 53.631 25.0711C53.7777 25.1173 53.9335 25.159 54.0802 25.1127L54.1077 25.1081C53.7364 24.8259 53.2826 24.6039 52.8333 24.5021C52.2282 24.368 51.5955 24.4142 50.9812 24.516C50.7566 24.553 50.5274 24.5993 50.2982 24.6085C50.1056 24.6178 49.9131 24.5993 49.7206 24.5808C49.5005 24.5623 49.2759 24.5391 49.0558 24.5206C49.3813 24.2107 49.7114 23.9008 50.0919 23.6556C50.4724 23.4151 50.9079 23.2393 51.3526 23.2393C51.5864 23.2393 51.8293 23.281 52.0494 23.207C51.7514 23.1006 51.4443 23.0219 51.1279 23.0173C50.8116 23.0127 50.4907 23.0913 50.2386 23.281C50.0781 23.4059 49.9498 23.5678 49.7893 23.6973C49.6426 23.8129 49.4776 23.9008 49.3309 24.0118C49.175 24.1321 49.0421 24.2801 48.8816 24.3819C48.7029 24.4975 48.492 24.5576 48.2811 24.59C48.0656 24.6224 47.8456 24.6039 47.6301 24.5854C47.9831 24.2662 48.3315 23.9378 48.6708 23.6001C48.9275 23.3457 49.1796 23.0821 49.3859 22.7814C49.5326 22.564 49.6564 22.3281 49.8306 22.1292C49.9865 21.9534 50.179 21.8193 50.3715 21.6851C50.5778 21.5417 50.7795 21.403 51.0088 21.2966C51.1646 21.2272 51.3342 21.1902 51.5039 21.1763C51.9485 21.1301 52.3978 21.1301 52.8425 21.1717C53.0442 21.1902 53.2551 21.2179 53.4476 21.1439C53.2963 21.0005 53.0763 20.982 52.87 20.9774C52.384 20.9635 51.9027 20.9867 51.4213 21.0468C51.3617 21.056 51.2746 21.0422 51.2746 20.982C51.2746 20.9497 51.2976 20.9219 51.3251 20.8988C51.6918 20.5472 51.8018 20.0107 52.0311 19.5527C52.1273 19.3631 52.2465 19.178 52.2603 18.9653C52.2603 18.9375 52.2603 18.9098 52.2465 18.8912C52.2007 18.8357 52.1182 18.9005 52.0815 18.9606C51.9119 19.2382 51.7606 19.5296 51.6276 19.8256C51.5176 20.0708 51.4259 20.3252 51.293 20.5611C51.16 20.797 50.9812 21.0144 50.7474 21.1439C50.5412 21.2596 50.289 21.3105 50.1515 21.5047C50.1332 21.3798 50.2753 21.3012 50.3486 21.1948C50.4036 21.1162 50.422 21.0237 50.4541 20.9358C50.5732 20.649 50.8804 20.4871 51.0363 20.2142C51.2013 19.9228 51.1555 19.562 51.2517 19.2428C51.3388 18.9421 51.5451 18.697 51.6826 18.4194C51.8248 18.1373 51.8981 17.8274 51.9669 17.5174C51.9806 17.4573 51.9852 17.374 51.9256 17.3509C51.8018 17.4249 51.7606 17.5868 51.7147 17.7256C51.6047 18.0448 51.403 18.3223 51.2746 18.6368C51.1234 19.0023 51.0684 19.4047 50.9171 19.7701C50.8116 20.0199 50.6603 20.2512 50.5091 20.4778C50.3257 20.7554 50.1744 21.0422 49.991 21.3197C49.991 21.3197 49.5785 22.1893 49.2575 22.564C48.9321 22.9479 48.6066 23.3272 48.2765 23.7065C48.1069 23.9008 47.9327 24.0997 47.7218 24.2477C47.3092 24.5345 46.8187 24.6733 46.3557 24.8676C45.8193 25.0942 45.3746 25.4874 44.9391 25.8759L45.0217 24.2986C45.04 23.9101 45.1363 23.5308 45.2417 23.1561C45.3426 22.786 45.3471 22.3697 45.4893 22.0043C45.6589 21.5649 46.0073 21.2272 46.2961 20.8618C46.5803 20.5056 46.9837 19.5666 46.9837 19.5666C46.6399 19.9043 46.4153 20.4917 45.8927 21.1069C45.856 20.8803 45.8652 20.6444 45.9523 20.4316C46.1036 20.0523 47.7172 18.3732 48.1757 18.0216C47.9373 18.0771 46.5345 19.451 45.9798 19.9181C46.1127 19.4741 47.5476 18.2622 47.9281 18.0355C47.378 18.2622 47.0158 18.4981 46.6583 18.8126C46.3924 19.0439 46.1677 19.2058 45.9294 19.4602C45.8606 19.2798 45.8606 19.0809 45.8468 18.8866C45.8193 18.3593 45.7231 17.8366 45.5718 17.3278C45.4618 17.7533 45.6084 18.1974 45.691 18.6276C45.8056 19.2197 45.7964 19.7146 45.7322 20.3113C45.7231 20.3853 45.7047 20.4686 45.6772 20.5935C45.5351 20.9358 45.3976 21.2827 45.2555 21.625C45.15 21.3983 45.0446 21.1717 44.9437 20.9497C44.8245 20.6952 44.7053 20.4316 44.6595 20.154C44.6274 19.9366 44.6412 19.71 44.6228 19.4926C44.5724 18.8866 44.2744 18.313 44.2744 17.7025C44.2194 18.5351 44.4257 19.4139 44.5128 20.117C44.3936 20.1309 44.3019 20.0245 44.2286 19.932C43.8893 19.4926 43.0412 18.6091 43.0412 18.6091C43.3942 19.3168 44.1506 19.9783 44.5632 20.6582C44.6549 20.8155 44.7374 20.9774 44.8154 21.1439C44.9025 21.3197 44.985 21.5001 45.0308 21.6944C45.0721 21.8887 45.0675 22.0922 45.0629 22.2911C45.0583 22.4946 45.0537 22.7028 45.0308 22.9063C44.9942 23.2717 44.852 23.651 44.8291 24.0164C44.7466 25.3486 44.4211 26.9306 43.3392 27.7956C42.7249 28.2859 41.9502 28.5126 41.1938 28.7253C40.5474 28.9104 39.901 29.0908 39.2546 29.2758C38.6816 29.4377 38.0994 29.6042 37.508 29.5857C35.8806 29.5441 34.4686 27.9251 34.629 26.2923C34.6886 25.7002 34.9224 25.122 34.9041 24.5253C34.8766 23.6649 34.3219 22.8508 34.4503 21.995C34.5511 21.2966 35.6789 20.3622 35.6789 20.3622C36.6141 19.673 37.1321 18.4379 38.0398 17.7117C38.1315 17.6377 38.2277 17.5683 38.3332 17.5267C38.4844 17.4666 38.6495 17.4666 38.8145 17.4666C39.5388 17.4804 40.2586 17.5822 40.9554 17.7765C41.1021 17.8181 41.2488 17.8597 41.4001 17.8875C41.4597 17.8967 41.533 17.9014 41.5651 17.8505C41.6155 17.7718 41.5101 17.684 41.4184 17.6516C40.5474 17.3278 39.6122 17.189 38.6862 17.2445C39.2088 16.708 39.8231 16.2546 40.4878 15.9123C40.6207 15.843 40.7583 15.7782 40.905 15.7736C41.0196 15.769 41.1754 15.7736 41.1984 15.6579C41.0975 15.5793 40.9554 15.6117 40.8362 15.6487C40.2356 15.8245 39.6351 16.0465 39.1354 16.4258C38.7274 16.7357 38.3928 17.1428 37.9893 17.4619C37.7739 17.6331 37.5355 17.7765 37.375 17.9985C37.6272 17.6053 37.8885 17.1983 38.1498 16.8097C38.2323 16.6895 38.3102 16.5692 38.3928 16.4489C38.5211 16.2593 38.6495 16.065 38.7778 15.8753C38.92 15.6626 39.0667 15.4498 39.2454 15.2694C39.5893 14.9317 40.0614 14.7051 40.2815 14.2749C40.1852 14.224 40.0431 14.3119 40.0431 14.3119C38.8008 14.904 38.1773 16.2824 37.4301 17.4481C36.7653 18.4842 35.9356 19.4093 34.9866 20.1818C34.5511 20.5333 34.0606 20.8988 33.9322 21.4446C33.9139 20.8433 33.9047 20.2419 33.9093 19.636C33.9093 19.4926 33.9139 19.3399 33.9964 19.2197C34.0973 19.067 34.2944 19.0161 34.4457 18.9144C34.7116 18.734 34.8445 18.4056 35.0875 18.1928C35.4038 17.9199 35.8439 17.8875 36.2381 17.7672C36.7974 17.5961 37.2879 17.2168 37.6043 16.7172C37.0312 17.337 36.1785 17.7256 35.3488 17.832C35.8301 17.1381 35.6605 16.1991 35.4771 15.3711C35.3763 15.8245 35.5505 16.3009 35.5001 16.7588C35.4313 17.3925 34.9591 17.9014 34.5649 18.3778C34.4778 18.4842 34.3448 18.549 34.2073 18.5397C33.946 18.5166 33.891 18.2668 33.8635 18.0494C33.703 16.7773 33.5884 15.496 33.5151 14.2147C33.4967 13.9372 33.4876 13.6504 33.5563 13.3821C33.6893 12.8872 34.0835 12.5171 34.4182 12.1286C34.7253 11.7724 34.9912 11.3839 35.2113 10.9722C35.2067 10.8843 35.0691 10.9305 35.0187 10.9999C34.5419 11.6198 34.0652 12.2396 33.593 12.8594C33.2629 12.0361 33.6297 11.1109 33.9918 10.3015C33.9552 10.2367 33.8543 10.2367 33.7901 10.2783C33.7305 10.3246 33.6984 10.3986 33.6755 10.4726C33.24 11.7308 33.2858 13.0953 33.3363 14.4275C33.3592 14.9641 33.3775 15.5007 33.4921 16.0234C33.5105 16.102 33.5242 16.1945 33.4784 16.2593C32.942 15.3203 32.7174 14.2009 32.8503 13.1277C32.612 13.4145 32.6349 13.8308 32.6716 14.2055C32.7357 14.8716 32.8182 15.5839 33.24 16.102C32.2773 15.4822 31.4567 14.6357 30.8699 13.6458C30.7049 13.6689 30.737 13.9233 30.8195 14.0713C31.3559 14.9965 32.1764 15.7458 33.1391 16.1899C33.2446 16.2361 33.3546 16.287 33.4234 16.3749C33.5151 16.4905 33.5242 16.6524 33.5288 16.8005C33.5426 17.1751 33.5563 17.5498 33.5701 17.9245C33.5701 17.9707 33.5701 18.0216 33.538 18.054C33.483 18.1049 33.3959 18.054 33.3363 18.0124C33.1254 17.8736 32.6257 17.9291 32.5569 18.165C32.5478 18.1928 32.5753 18.2159 32.6028 18.2067C32.8916 18.128 33.2079 18.1511 33.483 18.2714C33.5655 18.3084 33.648 18.3593 33.6893 18.4426C33.7214 18.5119 33.7168 18.5906 33.7122 18.6692C33.6663 19.2752 33.6251 19.8858 33.5792 20.4917C33.2675 19.9459 32.9558 19.4001 32.6395 18.8496C32.4057 18.4379 32.1444 18.0078 31.7226 17.7996C31.5484 17.7163 31.3559 17.6747 31.1954 17.5729C30.7232 17.2723 30.6728 16.5969 30.3244 16.1575C30.1685 15.9632 29.9622 15.8198 29.788 15.6394C29.6138 15.4637 29.4671 15.2278 29.4946 14.978C29.2654 15.1722 29.3892 15.5608 29.6047 15.7736C29.8155 15.9864 30.1043 16.1344 30.2327 16.4073C30.3015 16.5553 30.3152 16.7265 30.3702 16.8837C30.4573 17.1428 30.6499 17.3648 30.8928 17.4851C30.5261 17.7117 30.0081 17.6608 29.6918 17.3602C29.5313 17.2075 29.3479 16.9762 29.1416 17.0595C29.3067 17.3278 29.5267 17.5452 29.8201 17.684C28.9995 17.8181 28.1468 17.7718 27.3446 17.5498C27.0604 17.4712 26.7165 17.3833 26.5011 17.5822C26.9274 17.6701 27.3538 17.758 27.7801 17.8505C28.2064 17.9384 28.642 18.0309 29.0775 18.0124C29.7651 17.9846 30.4344 17.6932 31.1175 17.7903C31.1633 17.8042 31.2092 17.8181 31.255 17.832C31.3284 17.8551 31.3971 17.8782 31.4613 17.9152C31.5071 17.943 31.5484 17.98 31.5897 18.017C31.6447 18.0633 31.6905 18.1326 31.7547 18.1604C32.3323 18.4148 32.7678 19.5342 33.1804 20.39C33.2904 20.6212 33.4371 20.8386 33.4921 21.093C33.5884 21.514 33.4646 21.9488 33.3913 22.3697C33.185 23.5261 33.295 24.7149 33.1575 25.8806C33.0154 27.0462 32.5432 28.272 31.5301 28.8502C30.6453 29.3544 29.5221 29.248 28.5961 28.8225C27.6701 28.4015 26.9045 27.6984 26.1527 27.0092C25.6255 26.5235 25.0937 26.0378 24.5665 25.5522C24.3831 25.381 24.1952 25.0387 24.1906 24.7843C24.186 24.5114 24.2639 24.2477 24.351 23.9933C24.6307 23.1838 24.9837 22.3975 25.1671 21.5602C25.245 21.2133 25.2908 20.8571 25.4192 20.5241C25.5292 20.2373 25.6942 19.9783 25.7905 19.6869C25.7951 19.6684 25.8043 19.6452 25.7951 19.6267C25.7722 19.5758 25.6942 19.6175 25.6622 19.6637C25.2633 20.2419 25.0891 20.9404 24.8645 21.6065C24.7682 21.8887 24.6674 22.1708 24.5619 22.4484C24.3144 23.1191 24.0622 23.7898 23.8147 24.4605C23.6863 24.3217 23.6405 24.1228 23.6084 23.9332C23.4388 22.9572 23.4892 21.9395 23.7551 20.9867C23.8972 20.4732 24.0989 19.9736 24.3006 19.4787C24.3877 19.2706 24.4702 19.0624 24.5573 18.8496C24.5069 18.8172 24.4336 18.8357 24.3877 18.8774C24.3419 18.919 24.319 18.9791 24.296 19.0393C24.2089 19.252 24.1264 19.4695 24.0393 19.6822C23.6634 20.6212 23.2829 21.5834 23.2416 22.5964C23.0949 22.3928 23.0583 22.1338 23.0262 21.884C22.9895 21.5972 22.9528 21.3151 22.9345 21.0237C22.8978 20.4547 22.9253 19.8765 23.0445 19.3214C23.1087 19.0161 23.15 18.7062 23.1225 18.3917C23.0766 17.8921 22.9941 17.3787 23.0904 16.8837C23.2187 16.2038 23.6817 15.5654 23.5763 14.8808C23.5717 14.8485 23.558 14.8068 23.5259 14.8068C23.4984 14.8068 23.48 14.8346 23.4709 14.8577C23.3058 15.2046 23.3608 15.6209 23.2187 15.9817C23.1454 16.1668 23.0262 16.3287 22.962 16.5137C22.8932 16.7126 22.8887 16.9254 22.9024 17.1335C22.9253 17.5313 23.0033 17.9291 22.9712 18.3269C22.9528 18.5906 22.8841 18.845 22.8336 19.0994C22.6778 19.8719 22.6457 20.6675 22.7374 21.4492C22.6961 21.4955 22.6228 21.44 22.5907 21.3891C22.3202 20.9867 22.0085 20.612 21.6601 20.2789C21.4171 20.0477 21.1558 19.8303 20.977 19.5481C20.7294 19.1595 20.6607 18.6877 20.624 18.2252C20.5873 17.7672 20.5782 17.2954 20.4315 16.8606C20.3352 16.5831 20.2481 16.3009 20.1656 16.0187C20.1289 15.8892 20.0785 15.7458 19.9593 15.6996C19.9409 15.8615 19.996 16.0234 20.0464 16.176C20.2114 16.6895 20.3077 17.2214 20.3306 17.758C20.3398 17.9384 20.3398 18.1188 20.3581 18.2992C20.4085 18.8219 20.5965 19.3261 20.8991 19.7516C20.5323 19.3908 20.106 19.141 19.698 18.8311C19.5513 18.7201 19.4046 18.5767 19.2671 18.4518C18.7078 17.9384 18.3135 17.1844 17.9559 16.5646C17.9055 16.4813 17.8092 16.4027 17.7176 16.4443C17.713 16.4535 17.713 16.4628 17.713 16.4674C17.713 16.5877 17.7542 16.6154 17.8092 16.7218L17.8413 16.7727C18.3089 17.4804 18.7353 18.2529 19.3358 18.8542C19.7576 19.2752 20.3123 19.5527 20.7799 19.9274C21.495 20.501 22.2835 21.0468 22.6778 21.8748C22.8703 22.2726 22.9528 22.712 23.0583 23.1376C23.2554 23.9424 23.1775 24.9693 23.8055 25.5059C24.484 26.0887 25.1075 26.7363 25.6622 27.4394C24.8278 27.333 23.9797 27.3099 23.1362 27.3654C22.7603 27.3885 22.389 27.4302 22.0176 27.4718C21.6738 27.5088 21.33 27.5458 20.9862 27.5828C19.8034 27.7123 18.6665 27.6522 17.5204 27.976C17.5204 27.976 17.3325 28.013 17.2591 28.0962C17.25 28.1055 17.2545 28.1194 17.2637 28.124C17.3279 28.1841 17.4196 28.2026 17.5113 28.2165C17.6946 28.2443 17.8872 28.2674 18.0706 28.235C18.1622 28.2165 18.2493 28.1888 18.341 28.161C18.7995 28.0084 19.2625 27.8418 19.7438 27.865C19.7759 27.865 19.8126 27.8696 19.8309 27.8973C19.2166 28.161 18.6253 28.4663 18.0522 28.8132C17.8368 28.9427 17.6167 29.0954 17.5204 29.3267C18.4923 29.0121 19.2854 28.2443 20.2802 28.0315C21.0779 27.8603 21.9351 28.0639 22.7099 27.8002C23.0583 27.6846 23.425 27.4718 23.7688 27.6059C23.7872 27.6152 23.8055 27.6198 23.8193 27.6383C23.8834 27.7077 23.7872 27.8095 23.7597 27.902C23.7092 28.0731 23.911 28.1934 24.0026 28.346C24.1127 28.5357 24.0301 28.7762 23.9385 28.9797C23.8468 29.1786 23.7413 29.4007 23.8101 29.6134C23.9981 29.3128 24.1448 28.9844 24.2502 28.6467C24.296 28.5033 24.3281 28.3368 24.2502 28.2073C24.2089 28.1379 24.1402 28.0916 24.0943 28.0269C24.0485 27.9621 24.0301 27.865 24.0897 27.8095C24.1127 27.791 24.1402 27.7817 24.1677 27.7771C24.3465 27.7447 24.5252 27.7354 24.7086 27.7262C25.0295 27.7169 25.3779 27.6938 25.6897 27.8048C25.896 27.8788 26.0747 28.0084 26.2398 28.1564C26.4552 28.3553 26.6478 28.5912 26.8128 28.8363C27.0054 29.1139 27.1566 29.4192 27.2758 29.7383C27.4959 30.3304 27.7159 30.9179 27.936 31.51C28.0872 31.9124 28.2385 32.3379 28.1514 32.7589C28.0047 33.4666 27.2667 33.8598 26.6065 34.1373C24.1952 35.155 21.605 36.0153 19.0012 35.673C18.7215 35.599 18.4465 35.4232 18.1852 35.2937C18.0568 35.229 17.9284 35.1503 17.8001 35.0763C17.6717 35.0023 17.5434 34.9283 17.415 34.8497C17.2821 34.7664 17.1491 34.6785 17.0299 34.5767C17.0299 34.5629 17.0345 34.5397 17.0437 34.512C17.062 34.4565 17.0758 34.3871 17.0803 34.327C17.0895 34.2021 17.0666 34.0818 17.0345 33.9708C17.007 33.8598 16.952 33.7534 16.9291 33.647C16.9153 33.5961 16.9153 33.5406 16.9336 33.4897C16.952 33.4388 16.9932 33.3926 17.0483 33.3787C16.9932 33.3833 16.9428 33.425 16.9107 33.4759C16.8786 33.5267 16.8741 33.5915 16.8786 33.6516C16.8878 33.7719 16.9245 33.8783 16.9382 33.9893C16.952 34.1003 16.9566 34.2067 16.9336 34.3085C16.9245 34.3593 16.9061 34.401 16.8832 34.4472C16.8374 34.401 16.7915 34.3547 16.7503 34.3038C16.5898 34.1049 16.4798 33.8598 16.4706 33.6007C16.4706 33.5776 16.4706 33.5499 16.4706 33.5267C16.4752 33.388 16.5256 33.2584 16.5852 33.1151C16.6448 32.9717 16.6953 32.8236 16.7228 32.671C16.7824 32.3657 16.7869 32.0558 16.7549 31.7505C16.7274 31.4452 16.6723 31.1492 16.6082 30.8531C16.5761 30.7051 16.544 30.5525 16.4615 30.4229C16.3835 30.2934 16.246 30.187 16.0947 30.187C16.246 30.1963 16.3744 30.3073 16.4477 30.4322C16.5211 30.5617 16.5486 30.7144 16.5715 30.8624C16.6219 31.1584 16.6632 31.4591 16.6815 31.7597C16.6953 32.0604 16.6815 32.3611 16.6127 32.6479C16.5807 32.7913 16.5256 32.93 16.466 33.0642C16.434 33.1336 16.4019 33.2029 16.3744 33.277C16.356 33.3278 16.3423 33.3833 16.3331 33.4342C16.1681 33.2446 15.9847 33.0734 15.7922 32.9208C15.54 32.7219 15.2787 32.5415 14.9991 32.3935C14.7194 32.2454 14.4031 32.1437 14.0822 32.1529C13.7659 32.1668 13.445 32.2963 13.2525 32.5553C13.4542 32.3102 13.7796 32.1992 14.0822 32.2038C14.3894 32.2084 14.6873 32.3241 14.9532 32.4813C15.2191 32.6386 15.4667 32.8329 15.7005 33.0364C15.9297 33.2446 16.136 33.4342 16.3056 33.6886L16.3239 33.7164C16.3469 33.9754 16.4569 34.2206 16.6082 34.4241C16.8007 34.6831 17.0528 34.8774 17.305 35.0486C17.4288 35.1364 17.5571 35.2151 17.6855 35.2983C17.8138 35.377 17.9422 35.4649 18.0751 35.5389C18.3181 35.673 18.5794 35.784 18.8453 35.8719C18.6115 36.0061 18.3823 36.1217 18.1393 36.1356C18.0018 36.1448 17.8643 36.1217 17.7451 36.0616C17.6259 35.9968 17.5159 35.8951 17.4058 35.784C17.1904 35.5574 16.9336 35.303 16.5852 35.2151C16.411 35.1735 16.2414 35.1827 16.081 35.1966C15.9205 35.2105 15.7692 35.2243 15.618 35.2105C15.4667 35.1966 15.3154 35.1688 15.1687 35.1226C15.0953 35.0994 15.022 35.0671 14.9349 35.0486C14.8524 35.0254 14.7561 35.0208 14.6736 35.0439C14.5636 35.0717 14.2656 35.1226 14.2427 35.1179C14.1922 35.1133 14.1647 35.118 14.1235 35.1133H13.8988C13.7521 35.1133 13.6009 35.1133 13.4542 35.1087C13.1608 35.0948 12.8674 35.0624 12.6015 34.9514C12.331 34.845 12.1064 34.6461 11.8772 34.4565C11.6479 34.2668 11.3958 34.0818 11.0978 34.0263C11.3912 34.0957 11.625 34.2946 11.8451 34.4935C12.0651 34.6924 12.2806 34.9098 12.5648 35.0393C12.8444 35.1735 13.147 35.2243 13.4496 35.2521C13.6009 35.266 13.7476 35.2752 13.8988 35.2845L14.1189 35.2983C14.151 35.303 14.1968 35.303 14.2335 35.3076C14.1189 35.4001 13.9951 35.4787 13.8576 35.5343C13.5688 35.6545 13.2525 35.7008 12.9407 35.6915C12.6244 35.6869 12.3127 35.636 11.9964 35.5851C12.3081 35.6499 12.6198 35.71 12.9361 35.7285C13.2525 35.747 13.5779 35.7193 13.8851 35.6036C14.0364 35.5481 14.1831 35.4649 14.3068 35.3631C14.4352 35.2706 14.559 35.1688 14.6965 35.1411C14.834 35.1087 14.9716 35.1735 15.1228 35.2336C15.2741 35.2937 15.4392 35.3307 15.5996 35.3492C15.9297 35.3955 16.2598 35.303 16.5302 35.3862C16.6678 35.4279 16.7961 35.5019 16.9107 35.599C17.0253 35.6915 17.1262 35.8072 17.2362 35.9274C17.3462 36.0477 17.4608 36.1726 17.6213 36.2651C17.7772 36.3622 17.9697 36.3992 18.1439 36.39C18.3227 36.3854 18.4923 36.3391 18.6528 36.2744C18.8086 36.2096 18.9095 36.1541 19.0516 36.0801L19.0791 36.0755C19.7209 36.0292 20.3627 36.0199 21.0045 36.0523C20.1702 36.3715 19.4046 36.8849 18.7949 37.5418C18.6894 37.6528 18.5932 37.7731 18.4969 37.8933C18.3915 38.0228 18.2906 38.157 18.1852 38.2865C18.0751 38.4206 17.9651 38.5455 17.8413 38.6658C17.7221 38.7814 17.5938 38.8925 17.4517 38.985C17.4288 38.9988 17.4104 39.0081 17.3829 39.0173C17.3554 39.0266 17.3325 39.0312 17.305 39.0405C17.2362 39.0636 17.1674 39.0867 17.0987 39.1099C17.0803 39.1191 17.062 39.1237 17.0437 39.133C16.9245 39.1885 16.8053 39.2301 16.6769 39.2486C16.6632 39.2533 16.6448 39.2533 16.6311 39.2533C16.6311 39.2533 16.4019 39.2625 16.2964 39.2486C16.1681 39.2301 16.0443 39.1839 15.9159 39.1376C15.6638 39.0359 15.3842 38.9665 15.1137 38.9711C14.8386 38.9711 14.5681 39.0266 14.316 39.1422C14.5681 39.0451 14.8432 39.0081 15.1091 39.022C15.3796 39.0359 15.6317 39.1191 15.8793 39.2348C16.003 39.2903 16.1314 39.3458 16.2735 39.3735C16.3056 39.3828 16.3377 39.3874 16.3698 39.392C16.3377 39.4152 16.3102 39.4383 16.2827 39.466C16.1864 39.5585 16.1085 39.6649 16.0397 39.7713C16.0214 39.8037 16.003 39.8315 15.9893 39.8638L15.8472 39.887C15.5767 39.9332 15.3062 39.9656 15.0357 39.9471C14.9028 39.9379 14.7653 39.9193 14.6369 39.8777C14.5086 39.8407 14.3848 39.7806 14.2656 39.7112C14.0318 39.5724 13.8072 39.392 13.5413 39.3134C13.8026 39.4105 14.0089 39.6002 14.2381 39.7575C14.3527 39.8361 14.4765 39.9055 14.6094 39.9564C14.7424 40.0026 14.8799 40.035 15.022 40.0535C15.3016 40.0859 15.5859 40.0674 15.8609 40.0396L15.893 40.035C15.8242 40.1691 15.7601 40.2986 15.6821 40.4235C15.5584 40.6271 15.3842 40.8028 15.187 40.9462C14.9899 41.0896 14.7699 41.2006 14.5406 41.2885C14.7744 41.2145 15.0037 41.1174 15.2145 40.9879C15.4254 40.8584 15.618 40.6872 15.7646 40.4837C15.8747 40.3357 15.9618 40.1738 16.0535 40.0211L16.2735 39.998C16.3423 39.9934 16.4065 39.9841 16.4615 39.9887C16.4844 39.9887 16.5027 39.9934 16.5211 40.0026C16.4477 40.2015 16.4065 40.4097 16.3469 40.6039C16.1727 41.2006 15.8472 41.7465 15.5263 42.2877C15.8747 41.7696 16.2322 41.2423 16.4431 40.6363C16.5256 40.3958 16.5898 40.1506 16.6998 39.9425C16.6998 39.9425 16.7228 39.9101 16.7182 39.9055C16.7411 39.8638 16.764 39.8268 16.7915 39.7898C16.9657 39.5493 17.2087 39.3088 17.525 39.2116C17.8413 39.1099 18.7215 38.1061 18.7215 38.1061C19.3817 37.4909 20.0601 36.8618 20.8761 36.4918C22.1506 35.9136 23.6084 36.0153 24.9837 35.7702C25.7813 35.6314 26.6203 35.562 27.3996 35.3307C27.5692 35.2798 27.7388 35.3955 27.7618 35.5713C27.7939 35.821 27.7251 36.094 27.6013 36.316C27.4225 36.6444 26.8632 37.1486 26.8632 37.1486C26.1848 37.9627 25.2312 38.5085 24.3877 39.1469C23.5488 39.7852 22.8382 40.5762 22.1597 41.3903C21.8847 41.7233 21.5913 42.0703 21.1925 42.2229C21.0183 42.2877 20.8349 42.3154 20.6469 42.3386C19.7897 42.4311 18.9278 42.4681 18.0706 42.5883C16.7503 42.7734 15.2925 44.1472 15.0816 44.4293C15.0037 44.5311 14.9257 44.6282 14.8432 44.73C14.614 44.7485 14.3802 44.7531 14.1464 44.7485C14.1235 44.7485 13.9676 44.7439 13.9676 44.7439C13.8667 44.7393 13.7705 44.7393 13.6696 44.7346C13.5092 44.7254 13.3487 44.7207 13.1883 44.73C12.8628 44.7485 12.5511 44.8456 12.2622 44.9937C12.1201 45.0677 11.9826 45.1556 11.8542 45.2481C11.7259 45.3406 11.5929 45.4377 11.4325 45.4608C11.5929 45.4423 11.735 45.3498 11.8634 45.2619C11.9964 45.1741 12.1339 45.0908 12.276 45.026C12.5648 44.8919 12.8765 44.8086 13.1883 44.804C13.3441 44.7994 13.5046 44.8133 13.6605 44.8271C13.7201 44.8318 13.7796 44.8364 13.8392 44.841L13.6375 44.9983C13.5092 45.1001 13.3808 45.1833 13.2249 45.2249C12.9178 45.3128 12.5694 45.2712 12.2485 45.3545C12.5786 45.3036 12.904 45.3822 13.2479 45.3267C13.4221 45.3036 13.5871 45.2157 13.7246 45.1278L14.1418 44.8641C14.3343 44.8734 14.5315 44.878 14.7286 44.8734C14.316 45.3868 13.8759 45.8725 13.4129 46.3397C13.2708 46.4785 13.1241 46.6219 12.9316 46.6774C12.6932 46.7468 12.4044 46.6728 12.2072 46.8254C12.5969 46.8439 12.9866 46.8023 13.3625 46.6959C13.2066 47.0844 13.0737 47.4869 12.9728 47.8939C13.1195 47.7552 13.2708 47.6071 13.3625 47.4221C13.4954 47.1585 13.4954 46.8485 13.6192 46.5849C13.6971 46.4137 13.8209 46.2703 13.9401 46.1269C14.3023 45.706 14.6598 45.2805 15.022 44.8595C15.0495 44.8595 15.077 44.8549 15.1045 44.8549C15.4254 44.8318 15.7463 44.7809 16.0626 44.6976C16.2185 44.656 16.3744 44.5959 16.5165 44.5589C16.6586 44.5218 16.7961 44.5311 16.9566 44.545C17.2866 44.5774 17.6121 44.5496 17.9284 44.5404L18.882 44.4987L18.9462 44.1934L17.9101 44.2767C17.5892 44.2998 17.2775 44.3368 16.9703 44.3229C16.8924 44.3183 16.8099 44.3137 16.7228 44.3183C16.6357 44.3229 16.544 44.3368 16.4615 44.36C16.2964 44.4108 16.1543 44.471 16.0076 44.5172C15.7326 44.6051 15.4483 44.6606 15.1595 44.6976C15.3062 44.5265 15.4529 44.3507 15.5996 44.1796C15.7738 43.9714 15.9618 43.8188 16.2277 43.6707C16.2277 43.6707 18.5886 42.8104 19.8309 42.7271C20.0968 42.7086 20.3719 42.6947 20.6194 42.7919C20.381 43.0879 20.1472 43.185 19.9043 43.4117C19.6751 43.6199 19.3725 43.8234 19.1433 44.0362C19.0791 44.0963 19.0149 44.1518 18.9737 44.2304C18.9232 44.3183 18.9095 44.4201 18.8911 44.5172C18.8132 44.9983 18.7261 45.4747 18.6344 45.9558C18.3915 47.1862 17.8413 48.7358 17.1583 49.1382C16.6861 49.4158 16.1406 49.5175 15.65 49.7627C15.5996 49.7858 15.5446 49.8228 15.54 49.8783C15.7096 49.92 15.893 49.92 16.0626 49.8737C16.1772 49.8459 16.2827 49.7951 16.3927 49.7488C16.5944 49.6563 16.7915 49.5638 16.9887 49.4666C17.195 49.3695 17.4012 49.2677 17.5846 49.1382C17.768 49.0041 17.9055 48.8699 17.9972 48.6618C17.9972 48.6618 18.0247 48.5924 18.0385 48.56C18.0568 48.6664 18.0614 48.7774 18.0568 48.8838C18.043 49.1058 17.9835 49.3279 18.043 49.5453C18.0843 49.6979 18.176 49.8274 18.2723 49.9477C18.3089 49.994 18.3502 50.0402 18.3731 50.0957C18.4052 50.1697 18.4098 50.253 18.4052 50.3363C18.3731 50.6878 18.1301 50.9746 17.9559 51.2753C17.8872 51.3909 17.8322 51.5297 17.8918 51.6499C18.1118 51.4325 18.2906 51.1689 18.4052 50.8775C18.4969 50.6508 18.5473 50.4103 18.6665 50.2021C18.6803 50.179 18.6986 50.1559 18.7215 50.1651C18.7307 50.1697 18.7399 50.179 18.7444 50.1882C18.9278 50.4982 19.1708 50.7664 19.4092 51.0301C19.5054 51.1365 19.6063 51.2475 19.7438 51.2845C19.5284 50.9237 19.1937 50.6462 18.9874 50.2808C18.8774 50.0865 18.804 49.8691 18.7353 49.6563C18.6115 49.2816 18.5657 48.9069 18.4831 48.5138C18.3319 47.7968 18.4694 47.0706 18.7628 46.3999C19.0058 45.8448 18.9599 45.1787 19.2258 44.619C19.4596 44.1194 19.918 43.7679 20.3856 43.4765C20.8532 43.185 21.3483 42.9353 21.7472 42.556C21.7976 42.5051 21.8801 42.4542 21.9305 42.5051C21.9489 42.519 21.9535 42.5421 21.9626 42.5652C22.0039 42.6808 22.0406 42.8011 22.0818 42.9168C22.1414 43.1018 22.2973 43.2313 22.4073 43.3886C22.4486 43.4533 22.4944 43.5135 22.5219 43.5875C22.5907 43.7679 22.554 43.9714 22.5311 44.1657C22.444 44.9752 22.9253 46.46 23.0491 46.8208C23.0674 46.867 23.0583 46.9179 23.0354 46.9642C22.9437 47.1353 22.8932 47.4591 22.852 47.5979C22.8016 47.7598 22.774 47.9263 22.7465 48.0836C22.6915 48.3981 22.6182 48.708 22.5219 49.0133C22.3385 49.6239 22.0818 50.2206 21.7609 50.7757C22.1185 50.2391 22.4165 49.6609 22.6411 49.055C22.7557 48.7497 22.852 48.4398 22.9299 48.1252C22.9987 47.843 23.0674 47.5563 23.2325 47.362C23.26 47.4221 23.2921 47.4823 23.3287 47.5331C23.4021 47.6395 23.4846 47.7274 23.5671 47.8107C23.7367 47.9726 23.911 48.1113 24.0668 48.264C24.3098 48.4999 24.5344 48.7543 24.7361 49.0272C24.7361 49.0272 24.8141 49.1475 24.8278 49.1567C24.8599 49.1984 24.8874 49.24 24.9195 49.2862C25.0433 49.4713 25.1579 49.6655 25.2633 49.8644C25.3688 50.0634 25.4559 50.2715 25.5613 50.4704C25.6667 50.6739 25.7859 50.8728 25.951 51.0301C26.1114 51.192 26.3131 51.3169 26.5332 51.3585C26.3131 51.3076 26.1252 51.1735 25.9739 51.007C25.8226 50.8405 25.7172 50.6416 25.6255 50.438C25.5338 50.2345 25.4559 50.0217 25.3596 49.8136C25.2771 49.6285 25.1808 49.4435 25.0754 49.2677C25.1991 49.3094 25.3229 49.3371 25.4513 49.3603C25.6805 49.3973 25.9051 49.4111 26.1298 49.4296C26.3544 49.4528 26.5744 49.4851 26.7853 49.5499C26.9962 49.6193 27.1979 49.7257 27.3538 49.8968C27.2116 49.7164 27.0145 49.5915 26.8036 49.5036C26.5928 49.4158 26.3681 49.3695 26.1435 49.3279C25.9189 49.2909 25.6988 49.2585 25.4834 49.2076C25.2862 49.1614 25.0983 49.092 24.9333 48.9717H24.9012C24.6995 48.6618 24.4748 48.3704 24.2227 48.0975C24.0668 47.9263 23.9201 47.7413 23.7459 47.6164C23.5396 47.4684 23.2921 46.9457 23.2921 46.9457C23.2921 46.9457 22.5953 44.693 22.9574 43.4857C22.9666 43.458 22.9849 43.4302 23.0078 43.4209C23.0537 43.4024 23.1041 43.4117 23.1545 43.4256C23.6451 43.569 24.0989 43.8326 24.4748 44.2073C24.4198 44.2952 24.3831 44.3137 24.3877 44.3877C24.3923 44.4663 24.4015 44.5357 24.4152 44.6051C24.4381 44.7485 24.4886 44.8919 24.5665 45.0168C24.6399 45.1371 24.727 45.2434 24.7774 45.3683C24.8278 45.4886 24.8416 45.6412 24.759 45.7569C24.8553 45.6505 24.8599 45.4886 24.8232 45.3498C24.7866 45.2111 24.7086 45.0862 24.6536 44.9659C24.5986 44.8456 24.5711 44.7161 24.5619 44.582C24.5528 44.4525 24.7224 44.2489 24.7911 44.1796C24.7866 44.2304 24.7774 44.2952 24.782 44.3414C24.8003 44.4478 24.8416 44.545 24.8874 44.6329C24.9837 44.8086 25.135 44.9567 25.3137 45.0399C25.4925 45.1232 25.6988 45.1463 25.8868 45.0954C25.9831 45.0723 26.061 45.0214 26.1527 44.9983C26.2398 44.9752 26.3452 44.9798 26.4094 45.0492C26.3498 44.9705 26.2398 44.9567 26.1481 44.9705C26.0518 44.989 25.9693 45.0307 25.8776 45.0445C25.6988 45.0769 25.5155 45.0353 25.3596 44.9474C25.2083 44.8595 25.0891 44.7161 25.0204 44.5589C24.9837 44.4802 24.9608 44.397 24.9562 44.3137C24.9516 44.2674 24.9562 44.2258 24.9699 44.1888C25.0662 44.2027 25.1625 44.2258 25.2587 44.2628C25.4604 44.3368 25.6759 44.4432 25.9189 44.4802C26.2306 44.5357 26.5423 44.5126 26.8403 44.4293C27.1383 44.7393 27.4271 45.0677 27.7205 45.3868C27.7939 45.4655 27.8764 45.5441 27.9635 45.6089C28.0506 45.6736 28.1514 45.7291 28.2523 45.7708C28.454 45.8587 28.6649 45.9049 28.8758 45.9512C28.6695 45.891 28.4586 45.8309 28.266 45.7338C28.0735 45.6413 27.9085 45.5025 27.7755 45.3313C27.5142 45.0168 27.2621 44.693 26.9916 44.3785C27.0925 44.3461 27.1887 44.3044 27.285 44.2582C27.5005 44.1518 27.6976 44.0223 27.8855 43.8743C27.936 43.9159 27.9818 43.9575 28.0322 43.9945C28.2431 44.161 28.4677 44.3229 28.7336 44.3923C28.4769 44.3091 28.2615 44.1379 28.0643 43.9575C28.0185 43.9159 27.9772 43.8743 27.9314 43.8373C28.0873 43.7077 28.2339 43.5736 28.3715 43.4302C28.5319 43.2683 28.6786 43.0925 28.8253 42.9214C28.972 42.7549 29.1371 42.593 29.3479 42.5051C29.1325 42.5791 28.9583 42.7364 28.7978 42.8936C28.6374 43.0555 28.4861 43.222 28.321 43.3701C28.1744 43.5088 28.0139 43.6384 27.8535 43.7586C27.7251 43.643 27.5967 43.5273 27.45 43.4302C27.2162 43.2822 26.9733 43.1665 26.7074 43.0787C26.5836 43.037 26.4552 43.0093 26.3269 42.9908C26.4598 42.9121 26.5882 42.8242 26.712 42.7317C27.0283 42.4958 27.3125 42.2322 27.6013 41.9731C27.748 41.8436 27.8901 41.7141 28.0414 41.5938C28.1927 41.4782 28.3623 41.3764 28.5548 41.344C28.3623 41.3625 28.1835 41.4551 28.0185 41.5661C27.858 41.6771 27.7068 41.7974 27.5555 41.9176C27.2529 42.1582 26.9503 42.3987 26.6294 42.6068C26.3085 42.815 25.9693 42.9908 25.6117 43.0833C25.4329 43.1342 25.2542 43.1527 25.0616 43.1758C24.8691 43.1943 24.6674 43.2313 24.4611 43.2961C24.4611 43.2961 24.3327 43.3793 24.1677 43.3331C23.558 43.1573 23.5717 43.111 22.9024 43.0139C22.797 42.9954 22.6778 43.0278 22.5907 42.963C22.5036 42.8983 22.4761 42.7734 22.4761 42.6623C22.4669 42.0148 22.9941 41.4967 23.4846 41.0758C24.4977 40.2108 25.5338 39.3689 26.5882 38.5548C27.0604 38.1894 27.5601 37.8239 28.1377 37.6852C29.3571 37.3984 30.6178 38.2495 31.2229 39.355C31.828 40.4605 31.9335 41.7696 32.0252 43.0324C32.0756 43.7216 32.2406 45.3082 32.2452 45.4053C32.3644 47.8801 32.6578 50.3409 33.1483 52.774C33.6388 55.2024 34.2806 57.6077 35.1058 59.9576C35.5138 61.1325 35.9585 62.2935 36.449 63.4407C36.9304 64.5924 37.4759 65.6795 37.8931 66.7757C38.6999 68.9359 39.1538 71.3412 39.4655 73.7003C39.7589 76.0779 39.8689 78.4786 39.7222 80.8423C39.5709 83.1967 39.1583 85.5373 38.3057 87.6234C37.4576 89.7096 36.0685 91.4858 34.1844 92.4202C33.2492 92.9013 32.204 93.1788 31.1221 93.2991C30.0218 93.4194 28.9308 93.4055 27.8947 93.1834C25.8089 92.744 23.8926 91.5182 22.6044 89.7975C21.9535 88.9417 21.4538 87.975 21.1329 86.9435C20.9724 86.43 20.8578 85.8981 20.7982 85.3615C20.734 84.8249 20.7294 84.3022 20.7249 83.6593L20.6653 76.2999C20.6607 75.1019 20.6423 73.7789 20.5002 72.5069C20.3444 71.2302 20.0968 69.9674 19.7622 68.7278C19.0562 66.2577 17.9376 63.9125 16.4706 61.8171C15.7417 60.7671 14.9074 59.7957 14.018 58.8844C13.5688 58.4311 13.1058 57.9963 12.6198 57.5892L11.2537 56.4097C9.47957 54.8324 7.87048 53.0469 6.48602 51.0949C3.72628 47.1862 1.85588 42.6068 1.11781 37.8239C0.375152 33.0503 0.773986 28.0777 2.29139 23.4752C5.29411 14.2101 12.9224 6.82761 21.8664 3.84871C24.0943 3.0716 26.4094 2.57204 28.7474 2.31763C31.0854 2.04934 33.4509 2.06322 35.7935 2.2945C40.4694 2.78944 45.0354 4.3529 49.0467 6.86462C57.1196 11.8418 62.8408 20.6305 64.1107 30.3489C64.1153 30.4276 64.184 30.4831 64.2482 30.4738C64.3078 30.4646 64.3537 30.3998 64.3445 30.3304C64.2528 28.3969 63.9548 25.8713 63.1251 23.0312Z" fill="#FFD336"/>
<path d="M35.6283 33.781C35.6283 34.4887 35.312 34.8541 34.8032 35.4601C34.2943 35.9966 33.5837 36.7645 32.8044 36.6303C32.0251 36.4916 31.3191 36.6303 30.8056 36.1308C30.2968 35.7052 29.9805 34.6459 29.9805 33.7763C29.9805 33.0547 30.2968 32.6754 30.8056 32.0695C31.3145 31.5329 32.0205 30.7697 32.8044 30.9269C33.5837 31.0796 34.2897 30.9593 34.8032 31.4543C35.312 31.8891 35.6283 32.9298 35.6283 33.781Z" fill="#FBB03B"/>
</g>
<defs>
<clipPath id="clip0">
<rect width="140" height="107" fill="white"/>
</clipPath>
</defs>
</svg>
