<?xml version="1.0" encoding="utf-8"?>
<!-- Generator: Adobe Illustrator 25.3.1, SVG Export Plug-In . SVG Version: 6.00 Build 0)  -->
<svg version="1.1" id="svg3633" xmlns:svg="http://www.w3.org/2000/svg"
	 xmlns="http://www.w3.org/2000/svg" xmlns:xlink="http://www.w3.org/1999/xlink" x="0px" y="0px" viewBox="0 0 75.1 40.4"
	 style="enable-background:new 0 0 75.1 40.4;" xml:space="preserve">
<style type="text/css">
	.st0{fill:#0078C1;}
</style>
<g id="layer1" transform="translate(-649.89646,-406.26802)">
	<g id="g20076" transform="translate(17.716521,17.668446)">
		<path id="path19828" class="st0" d="M682.7,404.7c-0.4-0.3-1.1-0.5-1.8-0.5c-0.7,0-1.4,0.2-1.9,0.6v-4.7h-2.3v15.2h2.2v-7.9
			c0-0.5,0.5-1.2,1.3-1.2c0.4,0,0.9,0.2,1.2,0.6c0.3,0.4,0.3,1,0.3,1.6l0,7h2.3v-7.1C683.9,406.2,683.7,405.5,682.7,404.7"/>
		<path id="path19830" class="st0" d="M663.9,409.9c0,1.5-0.1,1.9-0.1,2c-0.1,0.8-0.4,1.7-1.4,1.7c-0.9,0-1.3-0.9-1.4-1.7
			c0,0-0.1-0.5-0.1-2s0.1-2.1,0.1-2.1c0-0.8,0.4-1.7,1.4-1.7c0.9,0,1.4,0.8,1.4,1.7C663.8,407.8,663.9,408.4,663.9,409.9z
			 M666.1,408.1c-0.3-3.2-2.2-3.9-3.7-3.9c-2.1,0-3.4,1.4-3.7,3.9c0,0.2-0.1,0.6-0.1,1.8c0,0.9,0.1,1.6,0.1,1.8
			c0.1,2.4,1.5,3.9,3.7,3.9s3.5-1.5,3.7-3.9c0-0.2,0.1-0.9,0.1-1.8C666.2,409.5,666.2,408.4,666.1,408.1"/>
		<path id="path19832" class="st0" d="M687.8,408.6c0-0.5,0-0.6,0-0.8c0.1-0.9,0.5-1.7,1.4-1.7c1.1,0,1.4,1.1,1.4,1.7
			c0,0.3,0,0.5,0,0.8H687.8z M690.6,411.6c0,0,0,0.2,0,0.4c-0.1,0.5-0.3,1.6-1.4,1.6c-0.9,0-1.3-0.8-1.4-1.7c0-0.2-0.1-0.5-0.1-1.4
			h5c0,0,0-0.7,0-1.2c0-0.2,0-0.5-0.1-1.1c-0.1-0.9-0.4-2-1-2.6c-0.6-0.8-1.5-1.2-2.6-1.2c-2,0-3.3,1.3-3.5,3.8
			c0,0.2-0.1,0.5-0.1,1.7c0,0.9,0.1,1.6,0.1,1.7c0.1,2.3,1.5,3.8,3.5,3.8c2,0,3.4-1.4,3.5-3.9H690.6"/>
		<path id="path19834" class="st0" d="M651.4,392.4h37.4l14.3,16.7l-14.3,16.5h-37.4l-14.4-16.6L651.4,392.4z M689.7,390.5h-39.2
			L634.6,409l15.9,18.4h39.2l15.9-18.3L689.7,390.5"/>
		<path id="path19836" class="st0" d="M651.9,402.3h1.1c1.2,0,1.8,0.6,1.9,1.8c0,0.1,0,0.2,0,0.4c0,0.2,0,0.3,0,0.4
			c-0.1,0.7-0.4,1.8-1.8,1.8h-1.2V402.3z M657.4,414.5l-0.2-3.7c-0.1-1.7-0.5-2.7-1.4-3.2c0.6-0.4,1.4-1.3,1.4-3.2c0-2.9-1.8-4-4-4
			h-3.6v15h2.3l0-6.9h1.3c0.7,0,1.6,0.6,1.7,2.4l0.2,3.5c0,0.5,0.1,0.9,0.1,0.9h2.2C657.5,415.4,657.4,415,657.4,414.5"/>
		<path id="path19838" class="st0" d="M672.8,411.5c0,0.2,0,0.3,0,0.4c-0.1,0.8-0.3,1.7-1.4,1.7c-0.9,0-1.3-1-1.4-1.7
			c0-0.4,0-0.8,0-2c0-1.5,0-1.8,0.1-2.1c0.1-0.9,0.4-1.7,1.4-1.7c1,0,1.4,0.8,1.4,1.6c0,0,0,0.2,0,0.6h2.2c0-0.2,0-0.3,0-0.3
			c-0.3-3.1-2.2-3.9-3.6-3.9c-2.1,0-3.4,1.3-3.6,3.9c0,0.2-0.1,0.6-0.1,1.8c0,0.9,0.1,1.6,0.1,1.8c0.1,2.4,1.5,3.8,3.6,3.8
			c2.2,0,3.4-1.3,3.6-3.8c0-0.1,0-0.2,0-0.2H672.8"/>
	</g>
</g>
</svg>
