<svg width="20" height="20" viewBox="0 0 20 20" fill="none" xmlns="http://www.w3.org/2000/svg">
    <path d="M10.8734 10.7779L18.663 10.7841C18.896 10.7841 19.1195 10.6915 19.2843 10.5268C19.449 10.362 19.5416 10.1385 19.5416 9.90551C19.5416 9.6725 19.449 9.44903 19.2843 9.28427C19.1195 9.1195 18.896 9.02694 18.663 9.02694L10.8734 9.03313L10.8796 1.24354C10.8796 1.01053 10.7871 0.787064 10.6223 0.6223C10.4575 0.457536 10.2341 0.364972 10.0011 0.364972C9.76804 0.364972 9.54458 0.457536 9.37981 0.6223C9.21505 0.787064 9.12248 1.01053 9.12248 1.24354L9.12867 9.03313L1.33909 9.02694C1.22358 9.02647 1.10912 9.04887 1.00232 9.09285C0.895509 9.13684 0.798467 9.20153 0.71679 9.28321C0.635113 9.36489 0.570416 9.46193 0.526431 9.56874C0.482447 9.67554 0.460045 9.79 0.460518 9.90551C0.460045 10.021 0.482445 10.1355 0.52643 10.2423C0.570415 10.3491 0.635112 10.4461 0.716789 10.5278C0.798467 10.6095 0.895508 10.6742 1.00231 10.7182C1.10912 10.7622 1.22358 10.7846 1.33909 10.7841L9.12867 10.7779L9.12249 18.5675C9.12201 18.683 9.14441 18.7974 9.1884 18.9043C9.23238 19.0111 9.29708 19.1081 9.37876 19.1898C9.46043 19.2715 9.55747 19.3362 9.66428 19.3801C9.77109 19.4241 9.88555 19.4465 10.0011 19.446C10.1166 19.4465 10.231 19.4241 10.3378 19.3801C10.4446 19.3362 10.5417 19.2715 10.6234 19.1898C10.705 19.1081 10.7697 19.0111 10.8137 18.9043C10.8577 18.7974 10.8801 18.683 10.8796 18.5675L10.8734 10.7779Z" fill="#14557A"></path>
</svg>
