<svg xmlns="http://www.w3.org/2000/svg" width="30px" height="30px" viewBox="0 0 30 30">
    <path fill="#0D4869" d="M21.3,10.3c-0.2-0.3-0.5-0.4-0.9-0.3L20.2,10c-0.4-0.5-1-0.8-1.6-0.9C18,8.9,17.3,9,16.7,9.2
      c-0.4,0.1-0.7,0.3-1,0.6l-0.1-0.1c-0.3-0.2-0.8-0.2-1,0.2c-0.1,0.1-0.1,0.3-0.1,0.4c0,0.2,0.1,0.5,0.3,0.6l0.1,0.1
      c-0.1,0.3-0.2,0.7-0.2,1.1v0.7c-1.2,0-2.5-0.2-3.6-0.8c-0.7-0.3-1.4-0.8-1.9-1.3c-0.2-0.2-0.5-0.3-0.7-0.2C8.2,10.5,8,10.7,8,11
      c-0.2,0.7-0.2,1.4-0.2,2c0,0,0,0,0,0c0.1,1.1,0.4,2,0.9,2.9c0.7,1,1.8,1.9,3.2,2.5c-0.6,0.4-1.3,0.7-2,1c-0.3,0.1-0.5,0.4-0.5,0.8
      s0.3,0.6,0.6,0.7c0.7,0.1,1.4,0.2,2.1,0.2c1.5,0,3-0.3,4.3-1c3-1.5,4.6-4.4,4.6-8c0-0.2,0-0.4-0.1-0.6c0.1-0.1,0.2-0.2,0.3-0.3
      C21.5,10.9,21.5,10.6,21.3,10.3z"></path>
</svg>
