<svg width="30" height="30" viewBox="0 0 30 30" fill="none" xmlns="http://www.w3.org/2000/svg">
    <path d="M22.4924 12.8767C22.5272 11.8589 22.3068 10.8487 21.8518 9.93986C21.5431 9.56695 21.1146 9.3153 20.6411 9.22875C18.6824 9.04921 16.7157 8.97563 14.7493 9.00831C12.79 8.97415 10.8304 9.04536 8.87862 9.22164C8.49275 9.29255 8.13565 9.47539 7.85091 9.74786C7.21738 10.3381 7.14699 11.3479 7.0766 12.2012C6.97447 13.7355 6.97447 15.2749 7.0766 16.8092C7.09696 17.2895 7.16775 17.7662 7.28777 18.2314C7.37265 18.5906 7.54437 18.9228 7.78755 19.1985C8.07424 19.4854 8.43965 19.6787 8.83639 19.7532C10.354 19.9424 11.8831 20.0208 13.4118 19.9878C15.8756 20.0234 18.0366 19.9878 20.5918 19.7887C20.9983 19.7188 21.374 19.5253 21.6688 19.2341C21.8659 19.0349 22.0131 18.7911 22.0982 18.523C22.3499 17.7426 22.4736 16.9259 22.4642 16.1052C22.4924 15.707 22.4924 13.3034 22.4924 12.8767ZM13.1584 16.5318V12.1301L17.3256 14.3416C16.1571 14.9959 14.6155 15.7354 13.1584 16.5318Z" fill="#0D4869"></path>
</svg>
